ply
format ascii 1.0
comment Created by Blender 2.75 (sub 0) - www.blender.org, source file: ''
element vertex 289
property float x
property float y
property float z
property float nx
property float ny
property float nz
property float s
property float t
element face 512
property list uchar uint vertex_indices
end_header
-2.444509 0.000000 3.658466 0.563891 0.000000 -0.825831 0.749999 0.824575
-2.874438 1.190632 3.111269 0.658803 -0.272866 -0.701041 0.687499 0.759660
-2.258432 0.935474 3.658466 0.520981 -0.215796 -0.825831 0.687499 0.824575
-3.658466 0.000000 -2.444509 0.835139 0.000000 0.550005 0.749999 0.305255
-2.874438 1.190632 -3.111269 0.658803 -0.272866 0.701041 0.687499 0.240340
-3.379982 1.400035 -2.444509 0.771569 -0.319590 0.550005 0.687499 0.305255
-3.111269 0.000000 3.111269 0.713095 0.000000 -0.701041 0.749999 0.759660
-3.379982 1.400035 2.444509 0.771569 -0.319590 -0.550005 0.687499 0.694745
-3.111269 0.000000 -3.111269 0.713095 0.000000 0.701041 0.749999 0.240340
-2.258431 0.935474 -3.658466 0.520981 -0.215796 0.825831 0.687499 0.175425
-3.658466 0.000000 2.444509 0.835139 0.000000 -0.550005 0.749999 0.694745
-3.755635 1.555635 1.683807 0.855159 -0.354198 -0.378430 0.687499 0.629830
-1.683806 0.000000 -4.065070 0.393017 0.000000 0.919523 0.749999 0.110510
-2.444509 0.000000 -3.658466 0.563891 0.000000 0.825831 0.749999 0.175425
-4.065070 0.000000 1.683807 0.925596 0.000000 -0.378430 0.749999 0.629830
-3.986960 1.651454 0.858397 0.906522 -0.375500 -0.192785 0.687499 0.564915
-0.858396 0.000000 -4.315455 0.207648 0.000000 0.978179 0.749999 0.045595
-1.555634 0.644365 -4.065070 0.363109 -0.150395 0.919523 0.687499 0.110510
-4.315455 0.000000 0.858397 0.981231 0.000000 -0.192785 0.749999 0.564915
-4.065070 1.683808 0.000000 0.923856 -0.382672 0.000000 0.687499 0.500000
-4.400000 0.000000 0.000000 1.000000 0.000000 0.000000 0.749999 0.500000
-3.986960 1.651454 -0.858397 0.906522 -0.375500 0.192785 0.687499 0.435085
-0.858397 0.000000 4.315455 0.207678 0.000000 -0.978179 0.749999 0.954405
-1.555635 0.644366 4.065070 0.363109 -0.150395 -0.919523 0.687499 0.889490
-0.793056 0.328495 4.315455 0.191870 -0.079470 -0.978179 0.687499 0.954405
-4.315455 0.000000 -0.858397 0.981231 0.000000 0.192785 0.749999 0.435085
-3.755635 1.555635 -1.683806 0.855159 -0.354198 0.378430 0.687499 0.370170
-1.683807 0.000000 4.065070 0.393017 0.000000 -0.919523 0.749999 0.889490
-4.065070 0.000000 -1.683806 0.925596 0.000000 0.378430 0.749999 0.370170
-3.051487 3.051489 -0.858397 0.693838 -0.693838 0.192785 0.624999 0.435085
-1.728528 1.728530 3.658466 0.398724 -0.398724 -0.825831 0.624999 0.824575
-1.190631 1.190632 4.065070 0.277902 -0.277902 -0.919523 0.624999 0.889490
-2.586926 2.586927 -2.444509 0.590533 -0.590533 0.550005 0.624999 0.305255
-2.874438 2.874440 -1.683806 0.654500 -0.654500 0.378430 0.624999 0.370170
-2.199999 2.200001 3.111269 0.504227 -0.504227 -0.701041 0.624999 0.759660
-2.199999 2.200001 -3.111269 0.504227 -0.504227 0.701041 0.624999 0.240340
-2.586926 2.586927 2.444509 0.590533 -0.590533 -0.550005 0.624999 0.694745
-1.728528 1.728530 -3.658466 0.398724 -0.398724 0.825831 0.624999 0.175425
-2.874438 2.874439 1.683807 0.654500 -0.654500 -0.378430 0.624999 0.629830
-1.190630 1.190632 -4.065070 0.277902 -0.277902 0.919523 0.624999 0.110510
-3.051487 3.051489 0.858397 0.693838 -0.693838 -0.192785 0.624999 0.564915
-0.606977 0.606979 -4.315455 0.146825 -0.146825 0.978179 0.624999 0.045595
-3.111269 3.111271 0.000000 0.707083 -0.707083 0.000000 0.624999 0.500000
-0.606978 0.606980 4.315455 0.146855 -0.146855 -0.978179 0.624999 0.954405
-0.935472 2.258433 -3.658466 0.215796 -0.520981 0.825831 0.562499 0.175425
-1.651452 3.986962 0.858397 0.375500 -0.906522 -0.192785 0.562499 0.564915
-1.555634 3.755636 1.683807 0.354198 -0.855159 -0.378430 0.562499 0.629830
-0.328493 0.793056 -4.315455 0.079470 -0.191839 0.978179 0.562499 0.045595
-0.644364 1.555635 -4.065070 0.150395 -0.363109 0.919523 0.562499 0.110510
-1.683806 4.065071 0.000000 0.382672 -0.923856 0.000000 0.562499 0.500000
-1.651452 3.986962 -0.858397 0.375500 -0.906522 0.192785 0.562499 0.435085
-0.644364 1.555636 4.065070 0.150395 -0.363109 -0.919523 0.562499 0.889490
-0.328493 0.793057 4.315455 0.079470 -0.191870 -0.978179 0.562499 0.954405
-1.555634 3.755636 -1.683806 0.354198 -0.855159 0.378430 0.562499 0.370170
-0.935472 2.258433 3.658466 0.215796 -0.520981 -0.825831 0.562499 0.824575
-1.400033 3.379983 -2.444509 0.319590 -0.771569 0.550005 0.562499 0.305255
-1.190630 2.874439 3.111269 0.272866 -0.658803 -0.701041 0.562499 0.759660
-1.400033 3.379983 2.444509 0.319590 -0.771569 -0.550005 0.562499 0.694745
-1.190630 2.874439 -3.111269 0.272866 -0.658803 0.701041 0.562499 0.240340
0.000002 3.658467 -2.444509 0.000000 -0.835139 0.550005 0.500000 0.305255
0.000002 4.065071 -1.683806 0.000000 -0.925596 0.378430 0.500000 0.370170
0.000002 3.111271 3.111269 0.000000 -0.713095 -0.701041 0.500000 0.759660
0.000002 2.444510 3.658466 0.000000 -0.563891 -0.825831 0.499999 0.824575
0.000002 3.658467 2.444509 0.000000 -0.835139 -0.550005 0.500000 0.694745
0.000002 2.444510 -3.658466 0.000000 -0.563891 0.825831 0.499999 0.175425
0.000002 3.111271 -3.111269 0.000000 -0.713095 0.701041 0.500000 0.240340
0.000002 4.315456 0.858397 0.000000 -0.981231 -0.192785 0.500000 0.564915
0.000002 4.065071 1.683807 0.000000 -0.925596 -0.378430 0.500000 0.629830
0.000002 0.858398 -4.315455 0.000000 -0.207678 0.978179 0.499999 0.045595
0.000002 1.683808 -4.065070 0.000000 -0.393017 0.919523 0.499999 0.110510
0.000002 4.315456 -0.858397 0.000000 -0.981231 0.192785 0.500000 0.435085
0.000002 4.400001 0.000000 0.000000 -1.000000 0.000000 0.500000 0.500000
0.000002 1.683808 4.065070 0.000000 -0.393017 -0.919523 0.499999 0.889490
0.000002 0.858399 4.315455 0.000000 -0.207678 -0.978179 0.499999 0.954405
0.328496 0.793056 -4.315455 -0.079470 -0.191870 0.978179 0.437499 0.045595
0.644367 1.555635 -4.065070 -0.150395 -0.363109 0.919523 0.437499 0.110510
1.651455 3.986962 0.858397 -0.375500 -0.906522 -0.192785 0.437500 0.564915
1.651455 3.986962 -0.858397 -0.375500 -0.906522 0.192785 0.437500 0.435085
1.683810 4.065071 0.000000 -0.382672 -0.923856 0.000000 0.437500 0.500000
0.328496 0.793057 4.315455 -0.079470 -0.191870 -0.978179 0.437499 0.954405
0.935475 2.258433 3.658466 -0.215796 -0.520981 -0.825831 0.437500 0.824575
0.644367 1.555636 4.065070 -0.150395 -0.363109 -0.919523 0.437499 0.889490
1.400037 3.379982 -2.444509 -0.319590 -0.771569 0.550005 0.437500 0.305255
1.555637 3.755635 -1.683806 -0.354198 -0.855159 0.378430 0.437500 0.370170
1.190633 2.874439 3.111269 -0.272866 -0.658803 -0.701041 0.437500 0.759660
1.190633 2.874439 -3.111269 -0.272866 -0.658803 0.701041 0.437500 0.240340
1.400037 3.379982 2.444509 -0.319590 -0.771569 -0.550005 0.437500 0.694745
0.935475 2.258432 -3.658466 -0.215796 -0.520981 0.825831 0.437500 0.175425
1.555637 3.755636 1.683807 -0.354198 -0.855159 -0.378430 0.437500 0.629830
2.200002 2.200000 3.111269 -0.504227 -0.504227 -0.701041 0.375000 0.759660
1.728531 1.728529 3.658466 -0.398724 -0.398724 -0.825831 0.375000 0.824575
2.200002 2.200000 -3.111269 -0.504227 -0.504227 0.701041 0.375000 0.240340
2.586929 2.586926 -2.444509 -0.590533 -0.590533 0.550005 0.375000 0.305255
2.586929 2.586926 2.444509 -0.590533 -0.590533 -0.550005 0.375000 0.694745
2.874441 2.874439 1.683807 -0.654500 -0.654500 -0.378430 0.375000 0.629830
1.728531 1.728529 -3.658466 -0.398724 -0.398724 0.825831 0.375000 0.175425
3.051490 3.051488 0.858397 -0.693838 -0.693838 -0.192785 0.375000 0.564915
0.606980 0.606979 -4.315455 -0.146855 -0.146855 0.978179 0.374999 0.045595
1.190634 1.190631 -4.065070 -0.277902 -0.277902 0.919523 0.375000 0.110510
3.051490 3.051488 -0.858397 -0.693838 -0.693838 0.192785 0.375000 0.435085
3.111272 3.111270 0.000000 -0.707083 -0.707083 0.000000 0.375000 0.500000
1.190634 1.190632 4.065070 -0.277902 -0.277902 -0.919523 0.375000 0.889490
0.606981 0.606979 4.315455 -0.146855 -0.146855 -0.978179 0.374999 0.954405
2.874441 2.874438 -1.683806 -0.654500 -0.654500 0.378430 0.375000 0.370170
3.986963 1.651453 0.858397 -0.906522 -0.375500 -0.192785 0.312500 0.564915
3.986963 1.651453 -0.858397 -0.906522 -0.375500 0.192785 0.312500 0.435085
4.065072 1.683806 0.000000 -0.923856 -0.382672 0.000000 0.312500 0.500000
1.555637 0.644365 4.065070 -0.363109 -0.150395 -0.919523 0.312500 0.889490
0.793058 0.328495 4.315455 -0.191870 -0.079470 -0.978179 0.312500 0.954405
2.258434 0.935473 3.658466 -0.520981 -0.215796 -0.825831 0.312500 0.824575
3.379984 1.400034 -2.444509 -0.771569 -0.319590 0.550005 0.312500 0.305255
3.755637 1.555634 -1.683806 -0.855159 -0.354198 0.378430 0.312500 0.370170
2.874440 1.190631 3.111269 -0.658803 -0.272866 -0.701041 0.312500 0.759660
2.874440 1.190631 -3.111269 -0.658803 -0.272866 0.701041 0.312500 0.240340
3.755637 1.555634 1.683807 -0.855159 -0.354198 -0.378430 0.312500 0.629830
3.379984 1.400034 2.444509 -0.771569 -0.319590 -0.550005 0.312500 0.694745
2.258434 0.935473 -3.658466 -0.520981 -0.215796 0.825831 0.312500 0.175425
0.793057 0.328494 -4.315455 -0.191839 -0.079470 0.978179 0.312500 0.045595
1.555637 0.644365 -4.065070 -0.363109 -0.150395 0.919523 0.312500 0.110510
3.111271 0.000000 -3.111269 -0.713095 0.000000 0.701041 0.250000 0.240340
3.658468 -0.000001 -2.444509 -0.835139 0.000000 0.550005 0.250000 0.305255
3.111271 0.000000 3.111269 -0.713095 0.000000 -0.701041 0.250000 0.759660
4.065072 -0.000001 1.683807 -0.925596 0.000000 -0.378430 0.250000 0.629830
3.658468 -0.000001 2.444509 -0.835139 0.000000 -0.550005 0.250000 0.694745
2.444511 -0.000001 -3.658466 -0.563891 0.000000 0.825831 0.250000 0.175425
4.315457 -0.000001 0.858397 -0.981231 0.000000 -0.192785 0.250000 0.564915
0.858399 0.000000 -4.315455 -0.207678 0.000000 0.978179 0.250000 0.045595
1.683809 -0.000001 -4.065070 -0.393017 0.000000 0.919523 0.250000 0.110510
4.315457 -0.000001 -0.858397 -0.981231 0.000000 0.192785 0.250000 0.435085
4.400002 -0.000001 0.000000 -1.000000 0.000000 0.000000 0.250000 0.500000
1.683809 -0.000001 4.065070 -0.393017 0.000000 -0.919523 0.250000 0.889490
0.858400 0.000000 4.315455 -0.207678 0.000000 -0.978179 0.250000 0.954405
2.444511 -0.000001 3.658466 -0.563891 0.000000 -0.825831 0.250000 0.824575
4.065072 -0.000001 -1.683806 -0.925596 0.000000 0.378430 0.250000 0.370170
3.986962 -1.651454 -0.858397 -0.906522 0.375500 0.192785 0.187500 0.435085
4.065071 -1.683808 0.000000 -0.923856 0.382672 0.000000 0.187500 0.500000
1.555637 -0.644366 4.065070 -0.363109 0.150395 -0.919523 0.187500 0.889490
0.793058 -0.328495 4.315455 -0.191870 0.079470 -0.978179 0.187500 0.954405
2.258434 -0.935474 3.658466 -0.520981 0.215796 -0.825831 0.187500 0.824575
3.379983 -1.400036 -2.444509 -0.771569 0.319590 0.550005 0.187500 0.305255
3.755636 -1.555636 -1.683806 -0.855159 0.354198 0.378430 0.187500 0.370170
2.874439 -1.190632 3.111269 -0.658803 0.272866 -0.701041 0.187500 0.759660
2.874439 -1.190632 -3.111269 -0.658803 0.272866 0.701041 0.187500 0.240340
3.755636 -1.555636 1.683807 -0.855159 0.354198 -0.378430 0.187500 0.629830
3.379983 -1.400036 2.444509 -0.771569 0.319590 -0.550005 0.187500 0.694745
2.258433 -0.935474 -3.658466 -0.520981 0.215796 0.825831 0.187500 0.175425
3.986962 -1.651454 0.858397 -0.906522 0.375500 -0.192785 0.187500 0.564915
0.793057 -0.328495 -4.315455 -0.191870 0.079470 0.978179 0.187500 0.045595
1.555637 -0.644366 -4.065070 -0.363109 0.150395 0.919523 0.187500 0.110510
2.200000 -2.200000 3.111269 -0.504227 0.504227 -0.701041 0.125000 0.759660
2.200000 -2.200000 -3.111269 -0.504227 0.504227 0.701041 0.125000 0.240340
2.874439 -2.874440 1.683807 -0.654500 0.654500 -0.378430 0.125000 0.629830
2.586926 -2.586927 2.444509 -0.590533 0.590533 -0.550005 0.125000 0.694745
1.728530 -1.728530 -3.658466 -0.398724 0.398724 0.825831 0.125000 0.175425
3.051488 -3.051488 0.858397 -0.693838 0.693838 -0.192785 0.125000 0.564915
0.606980 -0.606979 -4.315455 -0.146855 0.146855 0.978179 0.125000 0.045595
1.190633 -1.190632 -4.065070 -0.277902 0.277902 0.919523 0.125000 0.110510
3.051488 -3.051488 -0.858397 -0.693838 0.693838 0.192785 0.125000 0.435085
3.111270 -3.111271 0.000000 -0.707083 0.707083 0.000000 0.125000 0.500000
1.190633 -1.190632 4.065070 -0.277902 0.277902 -0.919523 0.125000 0.889490
0.606981 -0.606980 4.315455 -0.146855 0.146855 -0.978179 0.125000 0.954405
1.728530 -1.728530 3.658466 -0.398724 0.398724 -0.825831 0.125000 0.824575
2.586926 -2.586927 -2.444509 -0.590533 0.590533 0.550005 0.125000 0.305255
2.874439 -2.874440 -1.683806 -0.654500 0.654500 0.378430 0.125000 0.370170
1.651453 -3.986960 -0.858397 -0.375500 0.906522 0.192785 0.062500 0.435085
1.683807 -4.065071 0.000000 -0.382672 0.923856 0.000000 0.062500 0.500000
0.644366 -1.555636 4.065070 -0.150395 0.363109 -0.919523 0.062500 0.889490
0.328496 -0.793057 4.315455 -0.079470 0.191870 -0.978179 0.062500 0.954405
1.555635 -3.755635 -1.683806 -0.354198 0.855159 0.378430 0.062500 0.370170
1.190632 -2.874438 3.111269 -0.272866 0.658803 -0.701041 0.062500 0.759660
0.935474 -2.258433 3.658466 -0.215796 0.520981 -0.825831 0.062500 0.824575
1.190632 -2.874438 -3.111269 -0.272866 0.658803 0.701041 0.062500 0.240340
1.400034 -3.379982 -2.444509 -0.319590 0.771569 0.550005 0.062500 0.305255
1.555635 -3.755636 1.683807 -0.354198 0.855159 -0.378430 0.062500 0.629830
1.400034 -3.379982 2.444509 -0.319590 0.771569 -0.550005 0.062500 0.694745
0.935474 -2.258432 -3.658466 -0.215796 0.520981 0.825831 0.062500 0.175425
1.651453 -3.986960 0.858397 -0.375500 0.906522 -0.192785 0.062500 0.564915
0.328496 -0.793056 -4.315455 -0.079470 0.191870 0.978179 0.062500 0.045595
0.644366 -1.555636 -4.065070 -0.150395 0.363109 0.919523 0.062500 0.110510
0.000000 -3.111269 -3.111269 -0.140416 0.706015 0.694082 0.000000 0.240340
0.000000 -4.065070 1.683807 -0.181066 0.910306 -0.372173 0.000000 0.629830
0.000000 -3.658466 2.444509 -0.163854 0.823847 -0.542558 0.000000 0.694745
0.000000 -2.444510 -3.658466 -0.111454 0.560381 0.820673 0.000000 0.175425
0.000000 -4.315454 0.858397 -0.191565 0.963042 -0.189215 0.000000 0.564915
0.000001 -0.858398 -4.315455 -0.041261 0.207495 0.977355 0.000000 0.045595
0.000000 -1.683808 -4.065070 -0.077914 0.391827 0.916715 0.000000 0.110510
0.000000 -4.315454 -0.858397 -0.191565 0.963042 0.189215 0.000000 0.435085
0.000000 -4.400000 0.000000 -0.195074 0.980773 0.000000 0.000000 0.500000
0.000001 -1.683808 4.065070 -0.077914 0.391827 -0.916715 0.000000 0.889490
0.000001 -0.858399 4.315455 -0.041261 0.207495 -0.977355 0.000000 0.954405
0.000000 -2.444510 3.658466 -0.111454 0.560381 -0.820673 0.000000 0.824575
0.000000 -4.065070 -1.683806 -0.181066 0.910306 0.372173 0.000000 0.370170
0.000000 -3.111269 3.111269 -0.140416 0.706015 -0.694082 0.000000 0.759660
0.000000 -3.658466 -2.444509 -0.163854 0.823847 0.542558 0.000000 0.305255
0.000000 -4.065070 -1.683806 0.181066 0.910306 0.372173 0.999999 0.370170
-1.651453 -3.986959 -0.858397 0.375500 0.906522 0.192785 0.937499 0.435085
0.000000 -4.315454 -0.858397 0.191565 0.963042 0.189215 0.999999 0.435085
0.000000 -2.444510 3.658466 0.111454 0.560381 -0.820673 0.999999 0.824575
-0.644365 -1.555635 4.065070 0.150395 0.363109 -0.919523 0.937499 0.889490
0.000001 -1.683808 4.065070 0.077914 0.391827 -0.916715 0.999999 0.889490
-1.400035 -3.379981 -2.444509 0.319590 0.771569 0.550005 0.937499 0.305255
-1.555635 -3.755634 -1.683806 0.354198 0.855159 0.378430 0.937499 0.370170
-1.190631 -2.874438 3.111269 0.272866 0.658803 -0.701041 0.937499 0.759660
-0.935473 -2.258432 3.658466 0.215796 0.520981 -0.825831 0.937499 0.824575
0.000000 -3.658466 -2.444509 0.163854 0.823847 0.542558 0.999999 0.305255
-1.190631 -2.874438 -3.111269 0.272866 0.658803 0.701041 0.937499 0.240340
0.000000 -3.658466 2.444509 0.163854 0.823847 -0.542558 0.999999 0.694745
0.000000 -3.111269 3.111269 0.140416 0.706015 -0.694082 0.999999 0.759660
0.000000 -2.444510 -3.658466 0.111454 0.560381 0.820673 0.999999 0.175425
0.000000 -3.111269 -3.111269 0.140416 0.706015 0.694082 0.999999 0.240340
-1.555635 -3.755635 1.683807 0.354198 0.855159 -0.378430 0.937499 0.629830
-1.400035 -3.379981 2.444509 0.319590 0.771569 -0.550005 0.937499 0.694745
0.000000 -1.683808 -4.065070 0.077914 0.391827 0.916715 0.999999 0.110510
-0.935473 -2.258432 -3.658466 0.215796 0.520981 0.825831 0.937499 0.175425
0.000000 -4.065070 1.683807 0.181066 0.910306 -0.372173 0.999999 0.629830
-1.651453 -3.986959 0.858397 0.375500 0.906522 -0.192785 0.937499 0.564915
-0.328493 -0.793056 -4.315455 0.079470 0.191839 0.978179 0.937499 0.045595
-0.644365 -1.555635 -4.065070 0.150395 0.363109 0.919523 0.937499 0.110510
0.000000 -4.400000 0.000000 0.195074 0.980773 0.000000 0.999999 0.500000
0.000000 -4.315454 0.858397 0.191565 0.963042 -0.189215 0.999999 0.564915
-1.683807 -4.065070 0.000000 0.382672 0.923856 0.000000 0.937499 0.500000
0.000001 -0.858399 4.315455 0.041261 0.207495 -0.977355 0.999999 0.954405
-0.328494 -0.793057 4.315455 0.079470 0.191870 -0.978179 0.937499 0.954405
-1.728529 -1.728528 -3.658466 0.398724 0.398724 0.825831 0.874999 0.175425
-3.051486 -3.051486 0.858397 0.693838 0.693838 -0.192785 0.874999 0.564915
-2.874439 -2.874437 1.683807 0.654500 0.654500 -0.378430 0.874999 0.629830
-0.606978 -0.606979 -4.315455 0.146855 0.146855 0.978179 0.874999 0.045595
-1.190631 -1.190631 -4.065070 0.277902 0.277902 0.919523 0.874999 0.110510
-3.051486 -3.051486 -0.858397 0.693838 0.693838 0.192785 0.874999 0.435085
-3.111270 -3.111269 0.000000 0.707083 0.707083 0.000000 0.874999 0.500000
-1.190631 -1.190632 4.065070 0.277902 0.277902 -0.919523 0.874999 0.889490
-0.606978 -0.606979 4.315455 0.146855 0.146855 -0.978179 0.874999 0.954405
-1.728529 -1.728528 3.658466 0.398724 0.398724 -0.825831 0.874999 0.824575
-2.874438 -2.874437 -1.683806 0.654500 0.654500 0.378430 0.874999 0.370170
-2.199999 -2.199999 3.111269 0.504227 0.504227 -0.701041 0.874999 0.759660
-2.199999 -2.199999 -3.111269 0.504227 0.504227 0.701041 0.874999 0.240340
-2.586926 -2.586924 -2.444509 0.590533 0.590533 0.550005 0.874999 0.305255
-2.586926 -2.586924 2.444509 0.590533 0.590533 -0.550005 0.874999 0.694745
-2.258431 -0.935472 3.658466 0.520981 0.215796 -0.825831 0.812499 0.824575
-1.555634 -0.644365 4.065070 0.363109 0.150395 -0.919523 0.812499 0.889490
-3.755634 -1.555633 -1.683806 0.855159 0.354198 0.378430 0.812499 0.370170
-2.874437 -1.190630 3.111269 0.658803 0.272866 -0.701041 0.812499 0.759660
-2.874437 -1.190630 -3.111269 0.658803 0.272866 0.701041 0.812499 0.240340
-3.379981 -1.400032 -2.444509 0.771569 0.319590 0.550005 0.812499 0.305255
-3.755635 -1.555633 1.683807 0.855159 0.354198 -0.378430 0.812499 0.629830
-3.379981 -1.400032 2.444509 0.771569 0.319590 -0.550005 0.812499 0.694745
-1.555634 -0.644364 -4.065070 0.363109 0.150395 0.919523 0.812499 0.110510
-2.258431 -0.935472 -3.658466 0.520981 0.215796 0.825831 0.812499 0.175425
-3.986959 -1.651451 0.858397 0.906522 0.375500 -0.192785 0.812499 0.564915
-0.793055 -0.328494 -4.315455 0.191839 0.079470 0.978179 0.812499 0.045595
-3.986959 -1.651451 -0.858397 0.906522 0.375500 0.192785 0.812499 0.435085
-4.065070 -1.683805 0.000000 0.923856 0.382672 0.000000 0.812499 0.500000
-0.793056 -0.328495 4.315455 0.191870 0.079470 -0.978179 0.812499 0.954405
0.000001 0.000000 -4.401763 0.006256 0.009369 0.999908 0.875000 0.000000
0.000001 0.000000 -4.401763 -0.006256 -0.009369 0.999908 0.374999 0.000000
0.000001 0.000000 -4.401763 0.011048 0.002197 0.999908 0.749999 0.000000
0.000001 0.000000 4.401763 0.008026 0.012024 0.999878 0.937500 1.000000
0.000001 0.000000 -4.401763 0.006256 -0.009369 0.999908 0.562499 0.000000
0.000001 0.000000 4.401763 -0.008026 -0.012024 0.999878 0.437499 1.000000
0.000001 0.000000 -4.401763 -0.002197 -0.011048 0.999908 0.437499 0.000000
0.000001 0.000000 -4.401763 0.011048 -0.002197 0.999908 0.687499 0.000000
-0.793055 0.328495 -4.315455 0.191870 -0.079470 0.978179 0.687499 0.045595
0.000001 0.000000 -4.401763 -0.006256 0.009369 0.999908 0.062501 0.000000
0.000001 0.000000 -4.401763 -0.011048 -0.002197 0.999908 0.250000 0.000000
0.000001 0.000000 4.401763 0.008026 -0.012024 0.999878 0.624999 1.000000
0.000001 0.000000 4.401763 0.014191 0.002808 0.999878 0.812500 1.000000
0.000001 0.000000 4.401763 0.014191 -0.002808 0.999878 0.749999 1.000000
0.000001 -0.858398 -4.315455 0.041261 0.207495 0.977355 0.999999 0.045595
0.000001 0.000000 -4.401763 0.002197 0.011048 0.999908 0.937500 0.000000
0.000001 0.000000 4.401763 -0.008026 0.012024 0.999878 0.125000 1.000000
0.000001 0.000000 4.401763 -0.014191 -0.002808 0.999878 0.312499 1.000000
0.000001 0.000000 4.401763 -0.002808 -0.014191 0.999878 0.499999 1.000000
0.000001 0.000000 -4.401763 -0.009369 0.006256 0.999908 0.125000 0.000000
0.000001 0.000000 4.401763 0.006561 0.033021 0.999420 1.000000 1.000000
0.000001 0.000000 -4.401763 0.009369 -0.006256 0.999908 0.624999 0.000000
0.000001 0.000000 -4.401763 0.009369 0.006256 0.999908 0.812500 0.000000
0.000001 0.000000 4.401763 -0.012024 -0.008026 0.999878 0.374999 1.000000
0.000001 0.000000 4.401763 -0.012024 0.008026 0.999878 0.187500 1.000000
0.000001 0.000000 -4.401763 -0.009369 -0.006256 0.999908 0.312499 0.000000
0.000001 0.000000 4.401763 0.012024 -0.008026 0.999878 0.687499 1.000000
0.000001 0.000000 -4.401763 0.002197 -0.011048 0.999908 0.499999 0.000000
0.000001 0.000000 -4.401763 -0.003937 0.019929 0.999786 0.000001 0.000000
0.000001 0.000000 4.401763 0.012024 0.008026 0.999878 0.875000 1.000000
0.000001 0.000000 4.401763 -0.014191 0.002808 0.999878 0.250000 1.000000
0.000001 0.000000 -4.401763 -0.011048 0.002197 0.999908 0.187500 0.000000
0.000001 0.000000 4.401763 0.002808 -0.014191 0.999878 0.562499 1.000000
0.000001 0.000000 4.401763 -0.002808 0.014191 0.999878 0.062501 1.000000
0.000001 0.000000 -4.401763 0.000000 0.000000 1.000000 1.000000 0.000000
0.000001 0.000000 4.401763 0.000000 0.000000 1.000000 0.000001 1.000000
3 0 1 2
3 3 4 5
3 6 7 1
3 8 9 4
3 10 11 7
3 12 9 13
3 14 15 11
3 16 17 12
3 18 19 15
3 20 21 19
3 22 23 24
3 25 26 21
3 0 23 27
3 28 5 26
3 26 29 21
3 23 30 31
3 26 32 33
3 2 34 30
3 5 35 32
3 1 36 34
3 4 37 35
3 7 38 36
3 9 39 37
3 11 40 38
3 17 41 39
3 15 42 40
3 19 29 42
3 24 31 43
3 39 44 37
3 38 45 46
3 39 47 48
3 40 49 45
3 42 50 49
3 43 51 52
3 29 53 50
3 31 54 51
3 33 55 53
3 30 56 54
3 35 55 32
3 34 57 56
3 37 58 35
3 38 57 36
3 53 59 60
3 54 61 62
3 58 59 55
3 56 63 61
3 58 64 65
3 46 63 57
3 48 64 44
3 46 66 67
3 48 68 69
3 49 66 45
3 49 70 71
3 52 72 73
3 53 70 50
3 51 62 72
3 69 74 75
3 71 76 66
3 71 77 78
3 72 79 73
3 60 77 70
3 72 80 81
3 60 82 83
3 62 84 80
3 59 85 82
3 61 86 84
3 65 87 85
3 63 88 86
3 64 75 87
3 67 76 88
3 80 89 90
3 82 91 92
3 84 93 89
3 87 91 85
3 86 94 93
3 75 95 87
3 88 96 94
3 75 97 98
3 78 96 76
3 78 99 100
3 79 101 102
3 83 99 77
3 81 90 101
3 82 103 83
3 100 104 96
3 100 105 106
3 102 107 108
3 103 105 99
3 101 109 107
3 103 110 111
3 90 112 109
3 92 113 110
3 93 112 89
3 95 113 91
3 93 114 115
3 98 116 95
3 94 104 114
3 98 117 118
3 110 119 120
3 115 121 112
3 116 119 113
3 115 122 123
3 118 124 116
3 114 125 122
3 118 126 127
3 106 125 104
3 106 128 129
3 108 130 131
3 111 128 105
3 107 132 130
3 111 120 133
3 109 121 132
3 129 134 135
3 131 136 137
3 133 134 128
3 130 138 136
3 133 139 140
3 132 141 138
3 120 142 139
3 123 141 121
3 124 142 119
3 123 143 144
3 127 145 124
3 122 146 143
3 127 147 148
3 129 146 125
3 144 149 141
3 145 150 142
3 144 151 152
3 148 153 145
3 143 154 151
3 148 155 156
3 135 154 146
3 135 157 158
3 137 159 160
3 140 157 134
3 136 161 159
3 140 162 163
3 138 149 161
3 139 150 162
3 158 164 165
3 160 166 167
3 163 164 157
3 161 166 159
3 162 168 163
3 161 169 170
3 162 171 172
3 152 169 149
3 153 171 150
3 152 173 174
3 156 175 153
3 151 176 173
3 156 177 178
3 158 176 154
3 175 179 171
3 174 180 181
3 178 182 175
3 173 183 180
3 178 184 185
3 165 183 176
3 165 186 187
3 167 188 189
3 168 186 164
3 166 190 188
3 172 191 168
3 170 192 190
3 172 179 193
3 174 192 169
3 194 195 196
3 197 198 199
3 194 200 201
3 197 202 203
3 204 205 200
3 206 202 207
3 208 205 209
3 206 210 211
3 212 213 208
3 214 215 210
3 212 216 217
3 218 215 219
3 218 195 220
3 221 198 222
3 217 223 213
3 210 224 225
3 217 226 227
3 220 224 215
3 220 228 229
3 222 230 231
3 201 228 195
3 198 232 230
3 200 233 201
3 203 234 232
3 200 235 236
3 211 234 202
3 213 235 205
3 211 225 237
3 230 238 239
3 236 240 233
3 232 241 238
3 236 242 243
3 237 241 234
3 223 242 235
3 237 244 245
3 223 246 247
3 225 248 244
3 227 249 246
3 229 248 224
3 229 250 251
3 231 239 252
3 233 250 228
3 244 18 14
3 246 16 12
3 251 18 248
3 251 25 20
3 239 22 252
3 250 28 25
3 238 27 239
3 240 3 28
3 238 241 0
3 243 8 3
3 245 6 241
3 242 13 8
3 245 14 10
3 247 12 13
3 216 253 226
3 74 254 97
3 249 255 16
3 231 256 222
3 41 257 47
3 102 258 79
3 68 259 74
3 16 260 261
3 155 262 177
3 117 263 126
3 52 264 43
3 22 265 252
3 24 266 22
3 267 268 216
3 167 269 160
3 131 270 108
3 79 271 73
3 147 272 155
3 222 273 221
3 261 274 41
3 226 275 249
3 108 276 102
3 160 277 137
3 97 278 117
3 43 279 24
3 47 280 68
3 177 281 184
3 252 282 231
3 137 283 131
3 126 284 147
3 73 285 52
3 189 286 167
3 6 1 0
3 8 4 3
3 10 7 6
3 13 9 8
3 14 11 10
3 17 9 12
3 18 15 14
3 261 17 16
3 20 19 18
3 25 21 20
3 27 23 22
3 28 26 25
3 2 23 0
3 3 5 28
3 33 29 26
3 2 30 23
3 5 32 26
3 1 34 2
3 4 35 5
3 7 36 1
3 9 37 4
3 11 38 7
3 17 39 9
3 15 40 11
3 261 41 17
3 19 42 15
3 21 29 19
3 23 31 24
3 48 44 39
3 40 45 38
3 41 47 39
3 42 49 40
3 29 50 42
3 31 51 43
3 33 53 29
3 30 54 31
3 32 55 33
3 34 56 30
3 58 55 35
3 36 57 34
3 44 58 37
3 46 57 38
3 55 59 53
3 56 61 54
3 65 59 58
3 57 63 56
3 44 64 58
3 67 63 46
3 69 64 48
3 45 66 46
3 47 68 48
3 71 66 49
3 50 70 49
3 51 72 52
3 60 70 53
3 54 62 51
3 68 74 69
3 78 76 71
3 70 77 71
3 81 79 72
3 83 77 60
3 62 80 72
3 59 82 60
3 61 84 62
3 65 85 59
3 63 86 61
3 64 87 65
3 67 88 63
3 69 75 64
3 66 76 67
3 84 89 80
3 85 91 82
3 86 93 84
3 95 91 87
3 88 94 86
3 98 95 75
3 76 96 88
3 74 97 75
3 100 96 78
3 77 99 78
3 81 101 79
3 103 99 83
3 80 90 81
3 92 103 82
3 106 104 100
3 99 105 100
3 101 107 102
3 111 105 103
3 90 109 101
3 92 110 103
3 89 112 90
3 91 113 92
3 115 112 93
3 116 113 95
3 94 114 93
3 118 116 98
3 96 104 94
3 97 117 98
3 113 119 110
3 123 121 115
3 124 119 116
3 114 122 115
3 127 124 118
3 104 125 114
3 117 126 118
3 129 125 106
3 105 128 106
3 107 130 108
3 133 128 111
3 109 132 107
3 110 120 111
3 112 121 109
3 128 134 129
3 130 136 131
3 140 134 133
3 132 138 130
3 120 139 133
3 121 141 132
3 119 142 120
3 144 141 123
3 145 142 124
3 122 143 123
3 148 145 127
3 125 146 122
3 126 147 127
3 135 146 129
3 152 149 144
3 153 150 145
3 143 151 144
3 156 153 148
3 146 154 143
3 147 155 148
3 158 154 135
3 134 157 135
3 136 159 137
3 163 157 140
3 138 161 136
3 139 162 140
3 141 149 138
3 142 150 139
3 157 164 158
3 159 166 160
3 168 164 163
3 170 166 161
3 172 168 162
3 149 169 161
3 150 171 162
3 174 169 152
3 175 171 153
3 151 173 152
3 178 175 156
3 154 176 151
3 155 177 156
3 165 176 158
3 182 179 175
3 173 180 174
3 185 182 178
3 176 183 173
3 177 184 178
3 187 183 165
3 164 186 165
3 166 188 167
3 191 186 168
3 170 190 166
3 193 191 172
3 169 192 170
3 171 179 172
3 181 192 174
3 201 195 194
3 203 198 197
3 204 200 194
3 207 202 197
3 209 205 204
3 211 202 206
3 213 205 208
3 214 210 206
3 217 213 212
3 219 215 214
3 267 216 212
3 220 215 218
3 196 195 218
3 199 198 221
3 227 223 217
3 215 224 210
3 216 226 217
3 229 224 220
3 195 228 220
3 198 230 222
3 233 228 201
3 203 232 198
3 236 233 200
3 202 234 203
3 205 235 200
3 237 234 211
3 223 235 213
3 210 225 211
3 232 238 230
3 243 240 236
3 234 241 232
3 235 242 236
3 245 241 237
3 247 242 223
3 225 244 237
3 227 246 223
3 224 248 225
3 226 249 227
3 251 248 229
3 228 250 229
3 230 239 231
3 240 250 233
3 248 18 244
3 249 16 246
3 20 18 251
3 250 25 251
3 27 22 239
3 240 28 250
3 0 27 238
3 243 3 240
3 241 6 0
3 242 8 243
3 10 6 245
3 247 13 242
3 244 14 245
3 246 12 247
3 268 253 216
3 259 254 74
3 275 255 249
3 282 256 231
3 274 257 41
3 276 258 102
3 280 259 68
3 255 260 16
3 272 262 155
3 278 263 117
3 285 264 52
3 266 265 22
3 279 266 24
3 287 268 267
3 286 269 167
3 283 270 131
3 258 271 79
3 284 272 147
3 256 273 222
3 260 274 261
3 253 275 226
3 270 276 108
3 269 277 160
3 254 278 97
3 264 279 43
3 257 280 47
3 262 281 177
3 265 282 252
3 277 283 137
3 263 284 126
3 271 285 73
3 288 286 189
