ply
format ascii 1.0
comment Created by Blender 2.79 (sub 0) - www.blender.org, source file: ''
element vertex 411
property float x
property float y
property float z
property float nx
property float ny
property float nz
property float s
property float t
element face 788
property list uchar uint vertex_indices
end_header
0.000204 -0.059000 0.035415 0.045320 -0.300912 0.952544 0.499084 1.000000
0.005853 -0.060000 0.034707 0.197333 0.067904 0.977966 0.473411 1.000000
0.005981 -0.057643 0.034725 0.301340 -0.187109 0.934965 0.472853 1.000000
0.011480 -0.060000 0.033000 0.380840 0.116794 0.917203 0.446715 1.000000
0.010387 -0.055522 0.033037 0.460372 -0.032228 0.887112 0.451517 1.000000
0.016667 -0.057299 0.030227 0.701621 0.011200 0.712424 0.419800 1.000000
0.016667 -0.060000 0.030227 0.706839 0.105106 0.699484 0.419800 1.000000
0.021213 -0.057299 0.021213 0.838008 0.000000 0.545640 0.375000 1.000000
0.021213 -0.060000 0.021213 0.819178 0.144566 0.554979 0.375000 1.000000
0.024944 -0.057299 0.016667 0.831446 0.000000 0.555559 0.343750 1.000000
0.024944 -0.060000 0.016667 0.819178 0.171087 0.547349 0.343750 1.000000
0.027716 -0.057299 0.011480 0.923856 0.000000 0.382672 0.312500 1.000000
0.027716 -0.060000 0.011480 0.910245 0.171117 0.377026 0.312500 1.000000
0.029424 -0.057299 0.005853 0.980773 0.000000 0.195074 0.281250 1.000000
0.029424 -0.060000 0.005853 0.966308 0.171087 0.192206 0.281250 1.000000
0.030000 -0.057299 -0.000000 0.999969 0.000000 0.000000 0.250000 1.000000
0.030000 -0.060000 -0.000000 0.985229 0.171087 0.000000 0.250000 1.000000
0.029424 -0.057299 -0.005853 0.980773 0.000000 -0.195074 0.218750 1.000000
0.029424 -0.060000 -0.005853 0.966308 0.171087 -0.192206 0.218750 1.000000
0.027716 -0.057299 -0.011480 0.923856 0.000000 -0.382672 0.187500 1.000000
0.027716 -0.060000 -0.011480 0.910245 0.171117 -0.377026 0.187500 1.000000
0.024944 -0.057299 -0.016667 0.831446 0.000000 -0.555559 0.156250 1.000000
0.024944 -0.060000 -0.016667 0.819178 0.171117 -0.547349 0.156250 1.000000
0.021213 -0.057299 -0.021213 0.707083 0.000000 -0.707083 0.125000 1.000000
0.021213 -0.060000 -0.021213 0.696677 0.171117 -0.696677 0.125000 1.000000
0.016667 -0.057299 -0.024944 0.555559 0.000000 -0.831446 0.093750 1.000000
0.016667 -0.060000 -0.024944 0.547349 0.171087 -0.819178 0.093750 1.000000
0.011480 -0.057299 -0.027716 0.382672 0.000000 -0.923856 0.062500 1.000000
0.011480 -0.060000 -0.027716 0.377026 0.171117 -0.910245 0.062500 1.000000
0.005853 -0.057299 -0.029424 0.195074 0.000000 -0.980773 0.031250 1.000000
0.005853 -0.060000 -0.029424 0.192206 0.171117 -0.966308 0.031250 1.000000
0.000000 -0.057299 -0.030000 0.000000 0.000000 -0.999969 0.000000 1.000000
0.000000 -0.060000 -0.030000 0.000000 0.171117 -0.985229 1.000000 1.000000
-0.005853 -0.057299 -0.029424 -0.195074 0.000000 -0.980773 0.968750 1.000000
0.000000 -0.057299 -0.030000 0.000000 0.000000 -0.999969 1.000000 1.000000
-0.005853 -0.060000 -0.029424 -0.192206 0.171117 -0.966308 0.968750 1.000000
-0.011481 -0.057299 -0.027716 -0.382672 0.000000 -0.923856 0.937500 1.000000
-0.011481 -0.060000 -0.027716 -0.377026 0.171117 -0.910245 0.937500 1.000000
-0.016667 -0.057299 -0.024944 -0.555559 0.000000 -0.831446 0.906250 1.000000
-0.016667 -0.060000 -0.024944 -0.547349 0.171117 -0.819178 0.906250 1.000000
-0.021213 -0.057299 -0.021213 -0.707083 0.000000 -0.707083 0.875000 1.000000
-0.021213 -0.060000 -0.021213 -0.696677 0.171117 -0.696677 0.875000 1.000000
-0.024944 -0.057299 -0.016667 -0.831446 0.000000 -0.555559 0.843750 1.000000
-0.024944 -0.060000 -0.016667 -0.819178 0.171117 -0.547349 0.843750 1.000000
-0.027716 -0.057299 -0.011480 -0.923856 0.000000 -0.382672 0.812500 1.000000
-0.027716 -0.060000 -0.011480 -0.910245 0.171117 -0.377026 0.812500 1.000000
-0.029424 -0.057299 -0.005853 -0.980773 0.000000 -0.195074 0.781250 1.000000
-0.029424 -0.060000 -0.005853 -0.966308 0.171117 -0.192206 0.781250 1.000000
-0.030000 -0.057299 0.000000 -0.999969 0.000000 0.000000 0.750000 1.000000
-0.030000 -0.060000 0.000000 -0.985229 0.171117 0.000000 0.750000 1.000000
-0.029424 -0.057299 0.005853 -0.980773 0.000000 0.195074 0.718750 1.000000
-0.029424 -0.060000 0.005853 -0.966308 0.171117 0.192206 0.718750 1.000000
-0.027716 -0.057299 0.011481 -0.923856 0.000000 0.382672 0.687500 1.000000
-0.027716 -0.060000 0.011481 -0.910245 0.171117 0.377026 0.687500 1.000000
-0.024944 -0.057299 0.016667 -0.910276 0.000000 0.413953 0.656250 1.000000
-0.024944 -0.060000 0.016667 -0.894162 0.150487 0.421644 0.656250 1.000000
-0.021213 -0.057299 0.026496 -0.800409 0.011048 0.599322 0.607447 1.000000
-0.016667 -0.060000 0.030227 -0.551012 0.125370 0.825007 0.580200 1.000000
-0.015602 -0.055522 0.030477 -0.624622 -0.032228 0.780236 0.575303 1.000000
-0.011610 -0.057643 0.032992 -0.477950 -0.187109 0.858180 0.553852 1.000000
0.038839 -0.087113 -0.007726 0.955321 0.226325 -0.190008 0.218750 1.000000
0.036586 -0.087113 -0.015154 0.899899 0.226325 -0.372723 0.187500 1.000000
-0.005853 -0.060000 0.034707 -0.187689 0.016602 0.982055 0.526588 1.000000
-0.006078 -0.059000 0.034796 -0.230262 -0.300912 0.925413 0.527524 1.000000
-0.011480 -0.060000 0.033000 -0.383129 0.073214 0.920774 0.553285 1.000000
0.021213 0.150000 -0.021213 0.514664 0.685690 -0.514695 0.125000 0.000000
0.022450 0.150000 -0.015000 0.000000 1.000000 0.000000 0.156250 0.000000
0.024944 0.150000 -0.016667 0.605213 0.685690 -0.404370 0.156250 0.000000
0.022001 -0.087113 -0.032926 0.541124 0.226325 -0.809870 0.093750 1.000000
0.016670 -0.120113 -0.040244 0.382000 0.059450 -0.922239 0.062500 1.000000
0.015154 -0.087113 -0.036586 0.372753 0.226325 -0.899899 0.062500 1.000000
-0.022001 -0.087113 -0.032926 -0.541154 0.226325 -0.809870 0.906250 1.000000
-0.028001 -0.087113 0.028001 -0.708853 0.191748 0.678762 0.625000 1.000000
-0.021213 -0.060000 0.026496 -0.801477 0.116855 0.586474 0.607447 1.000000
0.036586 -0.087113 0.015154 0.899899 0.226325 0.372723 0.312500 1.000000
0.007726 -0.087113 -0.038839 0.190008 0.226325 -0.955321 0.031250 1.000000
-0.039600 -0.087113 0.000000 -0.974029 0.226325 0.000000 0.750000 1.000000
0.007726 -0.087113 0.038839 0.194250 0.139866 0.970916 0.468750 1.000000
0.015154 -0.087113 0.036586 0.380627 0.145268 0.913205 0.437500 1.000000
0.032926 -0.087113 -0.022001 0.809870 0.226325 -0.541124 0.156250 1.000000
-0.028001 -0.087113 -0.028001 -0.688742 0.226325 -0.688742 0.875000 1.000000
-0.022001 -0.087113 0.032926 -0.551561 0.153966 0.819788 0.593750 1.000000
0.038839 -0.087113 0.007726 0.955321 0.226325 0.190008 0.281250 1.000000
0.007726 -0.087113 -0.038839 0.190008 0.226325 -0.955321 1.000000 1.000000
-0.000000 -0.087113 -0.039600 0.000000 0.226325 -0.974029 1.000000 1.000000
-0.038839 -0.087113 0.007726 -0.955321 0.226325 0.190008 0.718750 1.000000
0.022001 -0.087113 0.032926 0.566057 0.185614 0.803156 0.406250 1.000000
0.028001 -0.087113 -0.028001 0.688742 0.226325 -0.688742 0.125000 1.000000
-0.032926 -0.087113 -0.022001 -0.809870 0.226325 -0.541124 0.843750 1.000000
-0.015154 -0.087113 0.036586 -0.380627 0.145268 0.913205 0.562500 1.000000
0.039600 -0.087113 -0.000000 0.974029 0.226325 0.000000 0.250000 1.000000
-0.007726 -0.087113 -0.038839 -0.190008 0.226325 -0.955321 0.968750 1.000000
-0.036586 -0.087113 0.015154 -0.899899 0.226325 0.372753 0.687500 1.000000
0.028001 -0.087113 0.028001 0.688742 0.226325 0.688742 0.375000 1.000000
-0.036586 -0.087113 -0.015154 -0.899899 0.226325 -0.372723 0.812500 1.000000
-0.007726 -0.087113 0.038839 -0.194250 0.139866 0.970916 0.531250 1.000000
-0.015154 -0.087113 -0.036586 -0.372723 0.226325 -0.899899 0.937500 1.000000
-0.032926 -0.087113 0.022001 -0.809870 0.226325 0.541154 0.656250 1.000000
0.032926 -0.087113 0.022001 0.809870 0.226325 0.541124 0.343750 1.000000
-0.038839 -0.087113 -0.007726 -0.955321 0.226325 -0.190008 0.781250 1.000000
0.000000 -0.087113 0.039600 0.000000 0.138035 0.990417 0.500000 1.000000
0.000000 -0.060000 0.035283 -0.006287 0.014771 0.999847 0.500000 1.000000
0.000000 -0.120113 -0.043560 0.000000 0.059450 -0.998230 1.000000 1.000000
-0.008498 -0.149367 -0.042723 -0.142003 -0.685690 -0.713889 0.968750 1.000000
-0.008498 -0.120113 -0.042723 -0.194739 0.059450 -0.979034 0.968750 1.000000
0.000000 -0.120113 0.043560 0.000000 0.059450 0.998230 0.500000 1.000000
0.008498 -0.120113 0.042723 0.194739 0.059450 0.979034 0.468750 1.000000
-0.036219 -0.120113 0.024201 -0.829981 0.059450 0.554582 0.656250 1.000000
-0.030802 -0.120113 0.030802 -0.705832 0.059450 0.705832 0.625000 1.000000
0.008498 -0.120113 -0.042723 0.194739 0.059450 -0.979034 0.031250 1.000000
0.016670 -0.120113 0.040244 0.382000 0.059450 0.922239 0.437500 1.000000
-0.024201 -0.120113 0.036219 -0.554582 0.059450 0.829981 0.593750 1.000000
0.024201 -0.120113 0.036219 0.554582 0.059450 0.829981 0.406250 1.000000
-0.016670 -0.120113 0.040244 -0.382000 0.059450 0.922239 0.562500 1.000000
0.030802 -0.120113 0.030802 0.705832 0.059450 0.705832 0.375000 1.000000
-0.008498 -0.120113 0.042723 -0.194739 0.059450 0.979034 0.531250 1.000000
-0.016670 -0.120113 -0.040244 -0.382000 0.059450 -0.922239 0.937500 1.000000
0.036219 -0.120113 0.024201 0.829981 0.059450 0.554582 0.343750 1.000000
-0.024201 -0.120113 -0.036219 -0.554582 0.059450 -0.829981 0.906250 1.000000
0.040244 -0.120113 0.016670 0.922239 0.059450 0.382000 0.312500 1.000000
-0.030802 -0.120113 -0.030802 -0.705832 0.059450 -0.705832 0.875000 1.000000
0.042723 -0.120113 0.008498 0.979034 0.059450 0.194739 0.281250 1.000000
-0.036219 -0.120113 -0.024201 -0.829981 0.059450 -0.554582 0.843750 1.000000
0.043560 -0.120113 -0.000000 0.998230 0.059450 0.000000 0.250000 1.000000
-0.040244 -0.120113 -0.016670 -0.922239 0.059450 -0.382000 0.812500 1.000000
0.042723 -0.120113 -0.008498 0.979034 0.059450 -0.194739 0.218750 1.000000
-0.042723 -0.120113 -0.008498 -0.979034 0.059450 -0.194739 0.781250 1.000000
0.040244 -0.120113 -0.016670 0.922239 0.059450 -0.382000 0.187500 1.000000
-0.043560 -0.120113 0.000000 -0.998230 0.059450 0.000000 0.750000 1.000000
0.036219 -0.120113 -0.024201 0.829981 0.059450 -0.554582 0.156250 1.000000
-0.042723 -0.120113 0.008498 -0.979034 0.059450 0.194739 0.718750 1.000000
0.030802 -0.120113 -0.030802 0.705832 0.059450 -0.705832 0.125000 1.000000
-0.040244 -0.120113 0.016670 -0.922239 0.059450 0.382000 0.687500 1.000000
0.024201 -0.120113 -0.036219 0.554582 0.059450 -0.829981 0.093750 1.000000
0.040244 -0.149367 0.016670 0.672475 -0.685690 0.278542 0.312500 1.000000
0.032597 -0.149367 0.021781 -0.410382 -0.869686 -0.274209 0.343750 1.000000
0.036220 -0.149367 0.015003 -0.456008 -0.869686 -0.188879 0.312500 1.000000
0.030802 -0.149367 0.030802 0.514664 -0.685690 0.514664 0.375000 1.000000
-0.008498 -0.149367 0.042723 -0.142003 -0.685690 0.713889 0.531250 1.000000
-0.016670 -0.149367 -0.040244 -0.278542 -0.685690 -0.672475 0.937500 1.000000
0.036219 -0.149367 0.024201 0.605213 -0.685690 0.404370 0.343750 1.000000
0.000000 -0.149367 0.043560 0.000000 -0.685690 0.727866 0.500000 1.000000
-0.024201 -0.149367 -0.036219 -0.404370 -0.685690 -0.605213 0.906250 1.000000
-0.030802 -0.149367 -0.030802 -0.514695 -0.685690 -0.514664 0.875000 1.000000
0.042723 -0.149367 0.008498 0.713889 -0.685690 0.142003 0.281250 1.000000
-0.036219 -0.149367 -0.024201 -0.605213 -0.685690 -0.404370 0.843750 1.000000
0.043560 -0.149367 -0.000000 0.727866 -0.685690 0.000000 0.250000 1.000000
-0.040244 -0.149367 -0.016670 -0.672475 -0.685690 -0.278542 0.812500 1.000000
0.042723 -0.149367 -0.008498 0.713889 -0.685690 -0.142003 0.218750 1.000000
-0.042723 -0.149367 -0.008498 -0.713889 -0.685690 -0.141972 0.781250 1.000000
0.040244 -0.149367 -0.016670 0.672475 -0.685690 -0.278542 0.187500 1.000000
-0.043560 -0.149367 0.000000 -0.727866 -0.685690 0.000000 0.750000 1.000000
0.036219 -0.149367 -0.024201 0.605213 -0.685690 -0.404370 0.156250 1.000000
-0.042723 -0.149367 0.008498 -0.713889 -0.685690 0.142003 0.718750 1.000000
0.030802 -0.149367 -0.030802 0.514664 -0.685690 -0.514664 0.125000 1.000000
-0.040244 -0.149367 0.016670 -0.672475 -0.685690 0.278542 0.687500 1.000000
0.024201 -0.149367 -0.036219 0.404370 -0.685690 -0.605213 0.093750 1.000000
-0.036219 -0.149367 0.024201 -0.605213 -0.685690 0.404370 0.656250 1.000000
0.016670 -0.149367 -0.040244 0.278542 -0.685690 -0.672475 0.062500 1.000000
0.008498 -0.149367 0.042723 0.142003 -0.685690 0.713889 0.468750 1.000000
-0.030802 -0.149367 0.030802 -0.514664 -0.685690 0.514695 0.625000 1.000000
0.008498 -0.149367 -0.042723 0.142003 -0.685690 -0.713889 0.031250 1.000000
0.016670 -0.149367 0.040244 0.278542 -0.685690 0.672475 0.437500 1.000000
-0.024201 -0.149367 0.036219 -0.404370 -0.685690 0.605213 0.593750 1.000000
0.000000 -0.149367 -0.043560 0.000000 -0.685690 -0.727866 0.000000 1.000000
0.000000 -0.120113 -0.043560 0.000000 0.059450 -0.998230 0.000000 1.000000
0.024201 -0.149367 0.036219 0.404370 -0.685690 0.605213 0.406250 1.000000
-0.016670 -0.149367 0.040244 -0.278542 -0.685690 0.672475 0.562500 1.000000
0.039204 -0.149367 -0.000000 -0.493576 -0.869686 0.000000 0.250000 1.000000
0.007690 -0.089367 -0.001530 -0.530534 -0.841029 0.105502 0.218750 1.000000
0.038451 -0.149367 -0.007648 -0.484085 -0.869686 0.096286 0.218750 1.000000
-0.027721 -0.149367 -0.027721 0.349010 -0.869686 0.349010 0.875000 1.000000
0.038451 -0.149367 0.007648 -0.484085 -0.869686 -0.096286 0.281250 1.000000
-0.032597 -0.149367 -0.021781 0.410382 -0.869686 0.274209 0.843750 1.000000
-0.036220 -0.149367 -0.015003 0.456008 -0.869686 0.188879 0.812500 1.000000
-0.038451 -0.149367 -0.007648 0.484085 -0.869686 0.096286 0.781250 1.000000
0.036220 -0.149367 -0.015003 -0.456008 -0.869686 0.188879 0.187500 1.000000
-0.039204 -0.149367 0.000000 0.493576 -0.869686 0.000000 0.750000 1.000000
0.032597 -0.149367 -0.021781 -0.410382 -0.869686 0.274209 0.156250 1.000000
-0.038451 -0.149367 0.007648 0.484085 -0.869686 -0.096286 0.718750 1.000000
0.027721 -0.149367 -0.027721 -0.349010 -0.869686 0.349010 0.125000 1.000000
-0.036220 -0.149367 0.015003 0.456008 -0.869686 -0.188879 0.687500 1.000000
0.021781 -0.149367 -0.032597 -0.274209 -0.869686 0.410382 0.093750 1.000000
-0.032597 -0.149367 0.021781 0.410382 -0.869686 -0.274209 0.656250 1.000000
0.015003 -0.149367 -0.036220 -0.188879 -0.869686 0.456008 0.062500 1.000000
0.007648 -0.149367 0.038451 -0.096286 -0.869686 -0.484085 0.468750 1.000000
-0.027721 -0.149367 0.027721 0.349010 -0.869686 -0.349010 0.625000 1.000000
0.007648 -0.149367 -0.038451 -0.096286 -0.869686 0.484085 0.031250 1.000000
0.015003 -0.149367 0.036220 -0.188879 -0.869686 -0.456008 0.437500 1.000000
-0.021781 -0.149367 0.032597 0.274209 -0.869686 -0.410382 0.593750 1.000000
0.000000 -0.149367 -0.039204 0.000000 -0.869686 0.493576 0.000000 1.000000
0.021781 -0.149367 0.032597 -0.274209 -0.869686 -0.410382 0.406250 1.000000
-0.015003 -0.149367 0.036220 0.188879 -0.869686 -0.456008 0.562500 1.000000
0.000000 -0.149367 -0.043560 0.000000 -0.685690 -0.727866 1.000000 1.000000
-0.007648 -0.149367 -0.038451 0.096286 -0.869686 0.484085 0.968750 1.000000
0.027721 -0.149367 0.027721 -0.349010 -0.869686 -0.349010 0.375000 1.000000
-0.007648 -0.149367 0.038451 0.096286 -0.869686 -0.484085 0.531250 1.000000
-0.015003 -0.149367 -0.036220 0.188879 -0.869686 0.456008 0.937500 1.000000
0.000000 -0.149367 0.039204 0.000000 -0.869686 -0.493576 0.500000 1.000000
-0.021781 -0.149367 -0.032597 0.274209 -0.869686 0.410382 0.906250 1.000000
-0.007244 -0.089367 0.003001 0.499771 -0.841029 -0.207007 0.687500 1.000000
-0.003001 -0.089367 -0.007244 0.207007 -0.841029 0.499771 0.937500 1.000000
0.007244 -0.089367 -0.003001 -0.499771 -0.841029 0.207007 1.000000 1.000000
-0.007244 -0.089367 -0.003001 0.499771 -0.841029 0.207007 0.812500 1.000000
-0.007690 -0.089367 -0.001530 0.530534 -0.841029 0.105533 0.781250 1.000000
0.007244 -0.089367 -0.003001 -0.499771 -0.841029 0.207007 0.187500 1.000000
-0.007841 -0.089367 0.000000 0.540941 -0.841029 0.000000 0.749999 1.000000
0.006519 -0.089367 -0.004356 -0.449782 -0.841029 0.300516 0.156250 1.000000
-0.007690 -0.089367 0.001530 0.530534 -0.841029 -0.105533 0.718749 1.000000
0.005544 -0.089367 -0.005544 -0.382488 -0.841029 0.382488 0.125000 1.000000
0.004356 -0.089367 -0.006519 -0.300516 -0.841029 0.449751 0.093750 1.000000
-0.006519 -0.089367 0.004356 0.449782 -0.841029 -0.300516 0.656250 1.000000
0.003001 -0.089367 -0.007244 -0.207007 -0.841029 0.499771 0.062500 1.000000
0.001530 -0.089367 0.007690 -0.105533 -0.841029 -0.530534 0.468750 1.000000
-0.005544 -0.089367 0.005544 0.382488 -0.841029 -0.382488 0.625000 1.000000
0.001530 -0.089367 -0.007690 -0.105533 -0.841029 0.530534 0.031250 1.000000
0.003001 -0.089367 0.007244 -0.207007 -0.841029 -0.499771 0.437500 1.000000
-0.004356 -0.089367 0.006519 0.300516 -0.841029 -0.449782 0.593749 1.000000
0.000000 -0.089367 -0.007841 0.000000 -0.841029 0.540941 0.000000 1.000000
0.004356 -0.089367 0.006519 -0.300516 -0.841029 -0.449751 0.406250 1.000000
-0.003001 -0.089367 0.007244 0.207007 -0.841029 -0.499771 0.562500 1.000000
0.000000 -0.149367 -0.039204 0.000000 -0.869686 0.493576 1.000000 1.000000
-0.001530 -0.089367 -0.007690 0.105533 -0.841029 0.530534 0.968750 1.000000
0.005544 -0.089367 0.005544 -0.382488 -0.841029 -0.382488 0.375000 1.000000
-0.001530 -0.089367 0.007690 0.105533 -0.841029 -0.530534 0.531249 1.000000
0.006519 -0.089367 0.004356 -0.449782 -0.841029 -0.300516 0.343750 1.000000
0.000000 -0.089367 0.007841 0.000000 -0.841060 -0.540910 0.500000 1.000000
-0.004356 -0.089367 -0.006519 0.300516 -0.841029 0.449782 0.906250 1.000000
0.007244 -0.089367 0.003001 -0.499771 -0.841029 -0.207007 0.312500 1.000000
-0.005544 -0.089367 -0.005544 0.382488 -0.841029 0.382488 0.875000 1.000000
0.007690 -0.089367 0.001530 -0.530534 -0.841029 -0.105533 0.281250 1.000000
-0.006519 -0.089367 -0.004356 0.449782 -0.841029 0.300516 0.843750 1.000000
0.007841 -0.089367 -0.000000 -0.540941 -0.841029 0.000000 0.250000 1.000000
-0.011480 -0.007592 0.032867 -0.378796 0.182440 0.907315 0.553484 0.626534
-0.005853 0.007604 0.029424 -0.194433 0.161229 0.967559 0.531250 0.373267
-0.011480 0.007604 0.027716 -0.381756 0.152104 0.911618 0.562500 0.373267
-0.005853 -0.007592 0.034574 -0.184576 0.234931 0.954314 0.526689 0.626534
0.000000 0.007604 0.030000 0.000000 0.164312 0.986389 0.500000 0.373267
-0.016667 -0.007592 0.030095 -0.549394 0.125034 0.826106 0.580496 0.626534
-0.016667 0.007604 0.024944 -0.554979 0.137059 0.820460 0.593750 0.373267
-0.021213 -0.007592 0.026364 -0.792444 0.108615 0.600146 0.607837 0.626534
-0.021213 0.007604 0.021213 -0.732841 0.070864 0.676656 0.625000 0.373267
-0.024944 -0.004581 0.016667 -0.895413 0.030122 0.444166 0.656250 0.576350
-0.027716 -0.009069 0.011481 -0.923856 0.000000 0.382672 0.687500 0.651147
-0.027716 -0.004581 0.011481 -0.923856 0.000000 0.382672 0.687500 0.576350
-0.029424 -0.009069 0.005853 -0.980773 0.000000 0.195074 0.718750 0.651147
-0.029424 -0.004581 0.005853 -0.980773 0.000000 0.195074 0.718750 0.576350
-0.030000 -0.009069 0.000000 -1.000000 0.000000 0.000000 0.750000 0.651147
-0.030000 -0.004581 0.000000 -1.000000 0.000000 0.000000 0.750000 0.576350
-0.029424 -0.009069 -0.005853 -0.980773 0.000000 -0.195074 0.781250 0.651147
-0.029424 -0.004581 -0.005853 -0.980773 0.000000 -0.195074 0.781250 0.576350
-0.027716 -0.009069 -0.011480 -0.923856 0.000000 -0.382672 0.812500 0.651147
-0.027716 -0.004581 -0.011480 -0.923856 0.000000 -0.382672 0.812500 0.576350
-0.024944 -0.009069 -0.016667 -0.831446 0.000000 -0.555559 0.843750 0.651147
-0.024944 -0.004581 -0.016667 -0.831446 0.000000 -0.555559 0.843750 0.576350
-0.021213 -0.009069 -0.021213 -0.707083 0.000000 -0.707083 0.875000 0.651147
-0.021213 -0.004581 -0.021213 -0.707083 0.000000 -0.707083 0.875000 0.576350
-0.016667 -0.009069 -0.024944 -0.555559 0.000000 -0.831446 0.906250 0.651147
-0.016667 -0.004581 -0.024944 -0.555559 0.000000 -0.831446 0.906250 0.576350
-0.011481 -0.009069 -0.027716 -0.382672 0.000000 -0.923856 0.937500 0.651147
-0.011481 -0.004581 -0.027716 -0.382672 0.000000 -0.923856 0.937500 0.576350
-0.005853 -0.009069 -0.029424 -0.195074 0.000000 -0.980773 0.968750 0.651147
-0.005853 -0.004581 -0.029424 -0.195074 0.000000 -0.980773 0.968750 0.576350
0.000000 -0.009069 -0.030000 0.000000 0.000000 -1.000000 1.000000 0.651147
0.000000 -0.004581 -0.030000 0.000000 0.000000 -0.999969 1.000000 0.576350
0.005853 -0.009069 -0.029424 0.195074 0.000000 -0.980773 0.031250 0.651147
0.000000 -0.004581 -0.030000 0.000000 0.000000 -0.999969 0.000000 0.576350
0.005853 -0.004581 -0.029424 0.195074 0.000000 -0.980773 0.031250 0.576350
0.011480 -0.009069 -0.027716 0.382672 0.000000 -0.923856 0.062500 0.651147
0.011480 -0.004581 -0.027716 0.382672 0.000000 -0.923856 0.062500 0.576350
0.016667 -0.009069 -0.024944 0.555559 0.000000 -0.831446 0.093750 0.651147
0.016667 -0.004581 -0.024944 0.555559 0.000000 -0.831446 0.093750 0.576350
0.021213 -0.009069 -0.021213 0.707083 0.000000 -0.707083 0.125000 0.651147
0.021213 -0.004581 -0.021213 0.707083 0.000000 -0.707083 0.125000 0.576350
0.024944 -0.009069 -0.016667 0.831446 0.000000 -0.555559 0.156250 0.651147
0.024944 -0.004581 -0.016667 0.831446 0.000000 -0.555559 0.156250 0.576350
0.027716 -0.009069 -0.011480 0.923856 0.000000 -0.382672 0.187500 0.651147
0.027716 -0.004581 -0.011480 0.923856 0.000000 -0.382672 0.187500 0.576350
0.029424 -0.009069 -0.005853 0.980773 0.000000 -0.195074 0.218750 0.651147
0.029424 -0.004581 -0.005853 0.980773 0.000000 -0.195074 0.218750 0.576350
0.030000 -0.009069 -0.000000 0.999969 0.000000 0.000000 0.250000 0.651147
0.030000 -0.004581 -0.000000 0.999969 0.000000 0.000000 0.250000 0.576350
0.029424 -0.009069 0.005853 0.980773 0.000000 0.195074 0.281250 0.651147
0.029424 -0.004581 0.005853 0.980773 0.000000 0.195074 0.281250 0.576350
0.027716 -0.009069 0.011480 0.923856 0.000000 0.382672 0.312500 0.651147
0.027716 -0.004581 0.011480 0.923856 0.000000 0.382672 0.312500 0.576350
0.024944 -0.009069 0.016667 0.831446 0.000000 0.555559 0.343750 0.651147
0.024944 -0.004581 0.016667 0.831446 0.000000 0.555559 0.343750 0.576350
0.021213 -0.009069 0.021213 0.837153 0.000946 0.546922 0.375000 0.651147
0.021213 -0.004581 0.021213 0.812830 0.038728 0.581195 0.375000 0.576350
0.016667 -0.007592 0.030094 0.690512 0.126102 0.712210 0.419503 0.626534
0.016667 0.007604 0.024944 0.590533 0.083834 0.802606 0.406250 0.373267
0.011480 0.007604 0.027716 0.381756 0.152104 0.911649 0.437500 0.373267
0.005853 0.007604 0.029424 0.194433 0.161229 0.967559 0.468750 0.373267
0.011480 -0.007592 0.032867 0.378399 0.139958 0.914975 0.446515 0.626534
0.005853 -0.007592 0.034574 0.195746 0.191870 0.961669 0.473311 0.626534
0.005853 0.150000 0.029424 0.142003 0.685690 0.713889 0.468750 0.000000
0.000000 0.150000 0.030000 0.000000 0.685690 0.727866 0.500000 0.000000
0.011480 0.150000 0.027716 0.278542 0.685690 0.672475 0.437500 0.000000
0.016667 0.150000 0.024944 0.404370 0.685690 0.605213 0.406250 0.000000
0.021213 0.150000 0.021213 0.514664 0.685690 0.514695 0.375000 0.000000
0.024944 0.150000 0.016667 0.605213 0.685690 0.404370 0.343750 0.000000
0.027716 0.150000 0.011480 0.672475 0.685690 0.278542 0.312500 0.000000
0.029424 0.150000 0.005853 0.713889 0.685690 0.141972 0.281250 0.000000
0.030000 0.150000 0.000000 0.727866 0.685690 0.000000 0.250000 0.000000
0.029424 0.150000 -0.005853 0.713889 0.685690 -0.141972 0.218750 0.000000
0.027716 0.150000 -0.011480 0.672475 0.685690 -0.278542 0.187500 0.000000
0.016667 0.150000 -0.024944 0.404370 0.685690 -0.605213 0.093750 0.000000
0.011480 0.150000 -0.027716 0.278542 0.685690 -0.672475 0.062500 0.000000
0.005853 0.150000 -0.029424 0.142003 0.685690 -0.713889 0.031250 0.000000
0.000000 0.150000 -0.030000 0.000000 0.685690 -0.727866 0.000000 0.000000
-0.005853 0.150000 -0.029424 -0.142003 0.685690 -0.713889 0.968750 0.000000
0.000000 0.150000 -0.030000 0.000000 0.685690 -0.727866 1.000000 0.000000
-0.011481 0.150000 -0.027716 -0.278542 0.685690 -0.672475 0.937500 0.000000
-0.016667 0.150000 -0.024944 -0.404370 0.685690 -0.605213 0.906250 0.000000
-0.021213 0.150000 -0.021213 -0.514664 0.685690 -0.514695 0.875000 0.000000
-0.024944 0.150000 -0.016667 -0.605213 0.685690 -0.404370 0.843750 0.000000
-0.027716 0.150000 -0.011480 -0.672475 0.685690 -0.278542 0.812500 0.000000
-0.029424 0.150000 -0.005853 -0.713889 0.685690 -0.141972 0.781250 0.000000
-0.030000 0.150000 0.000000 -0.727866 0.685690 0.000000 0.750000 0.000000
-0.029424 0.150000 0.005853 -0.713889 0.685690 0.142003 0.718750 0.000000
-0.027716 0.150000 0.011481 -0.672475 0.685690 0.278542 0.687500 0.000000
-0.024944 0.150000 0.016667 -0.605213 0.685690 0.404370 0.656250 0.000000
-0.021213 0.150000 0.021213 -0.514664 0.685690 0.514695 0.625000 0.000000
-0.016667 0.150000 0.024944 -0.404370 0.685690 0.605213 0.593750 0.000000
-0.011480 0.150000 0.027716 -0.278542 0.685690 0.672475 0.562500 0.000000
-0.005853 0.150000 0.029424 -0.142003 0.685690 0.713889 0.531250 0.000000
-0.010888 -0.055292 0.034675 -0.457778 -0.215064 0.862636 0.548421 1.000000
-0.006078 -0.009255 0.034796 -0.227821 0.312113 0.922300 0.527524 0.654254
-0.010888 -0.012963 0.034675 -0.457778 0.215064 0.862636 0.548421 0.716056
-0.005909 -0.011742 0.036299 -0.219855 0.267220 0.938200 0.525684 0.695708
0.008910 -0.053382 0.034715 0.557451 -0.100253 0.824122 0.460015 1.000000
0.004944 -0.055292 0.036234 0.280709 -0.215064 0.935362 0.478416 1.000000
-0.015602 -0.012733 0.030477 -0.625416 0.044618 0.778985 0.575303 0.712219
-0.021213 -0.010956 0.026496 -0.797449 0.000488 0.603351 0.607447 0.682606
-0.024944 -0.010956 0.016667 -0.910276 0.000000 0.413953 0.656250 0.682606
-0.027716 -0.010956 0.011481 -0.923856 0.000000 0.382672 0.687500 0.682606
-0.029424 -0.010956 0.005853 -0.980773 0.000000 0.195074 0.718750 0.682606
-0.030000 -0.010956 0.000000 -0.999969 0.000000 0.000000 0.750000 0.682606
-0.029424 -0.010956 -0.005853 -0.980773 0.000000 -0.195074 0.781250 0.682606
-0.027716 -0.010956 -0.011480 -0.923856 0.000000 -0.382672 0.812500 0.682606
-0.024944 -0.010956 -0.016667 -0.831446 0.000000 -0.555559 0.843750 0.682606
-0.021213 -0.010956 -0.021213 -0.707083 0.000000 -0.707083 0.875000 0.682606
-0.016667 -0.010956 -0.024944 -0.555559 0.000000 -0.831446 0.906250 0.682606
-0.011481 -0.010956 -0.027716 -0.382672 0.000000 -0.923856 0.937500 0.682606
-0.005853 -0.010956 -0.029424 -0.195074 0.000000 -0.980773 0.968750 0.682606
0.000000 -0.010956 -0.030000 0.000000 0.000000 -1.000000 1.000000 0.682606
0.000000 -0.010956 -0.030000 0.000000 0.000000 -1.000000 0.000000 0.682606
0.005853 -0.010956 -0.029424 0.195074 0.000000 -0.980773 0.031250 0.682606
0.011480 -0.010956 -0.027716 0.382672 0.000000 -0.923856 0.062500 0.682606
0.016667 -0.010956 -0.024944 0.555559 0.000000 -0.831446 0.093750 0.682606
0.021213 -0.010956 -0.021213 0.707083 0.000000 -0.707083 0.125000 0.682606
0.024944 -0.010956 -0.016667 0.831446 0.000000 -0.555559 0.156250 0.682606
0.027716 -0.010956 -0.011480 0.923856 0.000000 -0.382672 0.187500 0.682606
0.029424 -0.010956 -0.005853 0.980773 0.000000 -0.195074 0.218750 0.682606
0.030000 -0.010956 -0.000000 1.000000 0.000000 0.000000 0.250000 0.682606
0.029424 -0.010956 0.005853 0.980773 0.000000 0.195074 0.281250 0.682606
0.027716 -0.010956 0.011480 0.923856 0.000000 0.382672 0.312500 0.682606
0.024944 -0.010956 0.016667 0.831446 0.000000 0.555559 0.343750 0.682606
0.021213 -0.010956 0.021213 0.838008 0.000000 0.545640 0.375000 0.682606
0.016667 -0.010956 0.030227 0.697836 0.002472 0.716239 0.419800 0.682606
0.010387 -0.012733 0.033037 0.461501 0.045534 0.885952 0.451517 0.712219
0.000204 -0.009255 0.035415 0.044008 0.312906 0.948729 0.499084 0.654254
0.004944 -0.012963 0.036234 0.280709 0.215064 0.935362 0.478416 0.716056
0.005981 -0.010612 0.034725 0.304209 0.204901 0.930296 0.472853 0.676864
0.000000 -0.007592 0.035150 -0.003815 0.238227 0.971191 0.500000 0.626534
0.000000 -0.009069 -0.030000 0.000000 0.000000 -1.000000 0.000000 0.651147
-0.024944 -0.009069 0.016667 -0.909787 0.000702 0.415021 0.656250 0.651147
-0.011610 -0.010612 0.032992 -0.479568 0.203681 0.853511 0.553852 0.676864
-0.005909 -0.056513 0.036299 -0.219855 -0.267220 0.938200 0.525684 1.000000
-0.000255 -0.011742 0.036855 0.032594 0.267220 0.963073 0.501102 0.695708
-0.014480 -0.053382 0.032411 -0.707511 -0.100253 0.699515 0.566871 1.000000
-0.014480 -0.014873 0.032411 -0.707511 0.100253 0.699515 0.566871 0.747877
0.008910 -0.014873 0.034715 0.557451 0.100253 0.824122 0.460015 0.747877
-0.000255 -0.056513 0.036855 0.032594 -0.267220 0.963073 0.501102 1.000000
0.005267 0.150000 -0.026481 0.000000 1.000000 0.000000 1.000000 0.000000
-0.026481 0.150000 -0.005267 0.000000 1.000000 0.000000 0.781250 0.000000
-0.005267 0.150000 0.026481 0.000000 0.999969 0.000000 0.531250 0.000000
-0.022450 0.150000 -0.015000 0.000000 0.999969 0.000000 0.843750 0.000000
-0.019092 0.150000 -0.019092 0.000000 0.999969 0.000000 0.875000 0.000000
-0.010332 0.150000 0.024945 0.000000 1.000000 0.000000 0.562500 0.000000
-0.015000 0.150000 0.022450 0.000000 0.999969 0.000000 0.593750 0.000000
0.026481 0.150000 0.005267 0.000000 1.000000 0.000000 0.281250 0.000000
-0.005267 0.150000 -0.026481 0.000000 1.000000 0.000000 0.968750 0.000000
0.000000 0.150000 -0.027000 0.000000 1.000000 0.000000 1.000000 0.000000
-0.026481 0.150000 0.005267 0.000000 1.000000 0.000000 0.718750 0.000000
0.019092 0.150000 0.019092 0.000000 1.000000 0.000000 0.375000 0.000000
0.015000 0.150000 0.022450 0.000000 0.999969 0.000000 0.406250 0.000000
0.015000 0.150000 -0.022450 0.000000 0.999969 0.000000 0.093750 0.000000
0.019092 0.150000 -0.019092 0.000000 1.000000 0.000000 0.125000 0.000000
-0.024945 0.150000 -0.010332 0.000000 1.000000 0.000000 0.812500 0.000000
0.026481 0.150000 -0.005267 0.000000 1.000000 0.000000 0.218750 0.000000
0.027000 0.150000 0.000000 0.000000 1.000000 0.000000 0.250000 0.000000
-0.010332 0.150000 -0.024945 0.000000 1.000000 0.000000 0.937500 0.000000
-0.024945 0.150000 0.010332 0.000000 1.000000 0.000000 0.687500 0.000000
0.022450 0.150000 0.015000 0.000000 0.999969 0.000000 0.343750 0.000000
0.010332 0.150000 -0.024945 0.000000 1.000000 0.000000 0.062500 0.000000
0.005267 0.150000 0.026481 0.000000 0.999969 0.000000 0.468750 0.000000
0.000000 0.150000 0.027000 0.000000 1.000000 0.000000 0.500000 0.000000
0.024945 0.150000 -0.010332 0.000000 1.000000 0.000000 0.187500 0.000000
-0.015000 0.150000 -0.022450 0.000000 1.000000 0.000000 0.906250 0.000000
-0.022450 0.150000 0.015000 0.000000 1.000000 0.000000 0.656250 0.000000
0.024945 0.150000 0.010332 0.000000 1.000000 0.000000 0.312500 0.000000
-0.019092 0.150000 0.019092 0.000000 0.999969 0.000000 0.625000 0.000000
0.005267 0.150000 -0.026481 0.000000 1.000000 0.000000 0.031250 0.000000
-0.027000 0.150000 0.000000 0.000000 1.000000 0.000000 0.750000 0.000000
0.010332 0.150000 0.024945 0.000000 1.000000 0.000000 0.437500 0.000000
0.000000 -0.060000 -0.030000 0.000000 0.171117 -0.985229 0.000000 1.000000
0.003001 -0.089367 -0.007244 -0.207007 -0.841029 0.499771 1.000000 1.000000
0.000000 -0.089367 -0.007841 0.000000 -0.841029 0.540941 1.000000 1.000000
0.000000 0.150000 -0.027000 0.000000 1.000000 0.000000 0.000000 0.000000
3 0 1 2
3 2 3 4
3 3 5 4
3 6 7 5
3 8 9 7
3 10 11 9
3 12 13 11
3 14 15 13
3 16 17 15
3 18 19 17
3 20 21 19
3 22 23 21
3 24 25 23
3 26 27 25
3 28 29 27
3 30 31 29
3 32 33 34
3 35 36 33
3 37 38 36
3 39 40 38
3 41 42 40
3 43 44 42
3 45 46 44
3 47 48 46
3 49 50 48
3 51 52 50
3 53 54 52
3 55 56 54
3 56 57 58
3 57 59 58
3 20 60 61
3 62 0 63
3 64 63 59
3 65 66 67
3 68 69 70
3 37 71 39
3 55 72 73
3 10 74 12
3 28 75 30
3 47 76 49
3 3 77 78
3 22 61 79
3 39 80 41
3 73 81 57
3 12 82 14
3 32 83 84
3 49 85 51
3 6 78 86
3 22 87 24
3 43 80 88
3 57 89 64
3 16 82 90
3 32 91 35
3 53 85 92
3 8 86 93
3 24 68 26
3 45 88 94
3 64 95 62
3 16 60 18
3 37 91 96
3 53 97 55
3 10 93 98
3 28 68 70
3 45 99 47
3 1 100 77
3 62 100 101
3 102 103 104
3 77 105 106
3 72 107 108
3 70 109 75
3 77 110 78
3 72 111 81
3 83 102 84
3 78 112 86
3 81 113 89
3 84 104 91
3 93 112 114
3 95 113 115
3 91 116 96
3 93 117 98
3 95 105 100
3 96 118 71
3 98 119 74
3 80 118 120
3 74 121 82
3 80 122 88
3 82 123 90
3 88 124 94
3 60 123 125
3 94 126 99
3 60 127 61
3 99 128 76
3 61 129 79
3 76 130 85
3 79 131 87
3 85 132 92
3 87 133 68
3 92 107 97
3 134 135 136
3 112 137 114
3 113 138 115
3 104 139 116
3 114 140 117
3 115 141 105
3 116 142 118
3 117 134 119
3 118 143 120
3 119 144 121
3 120 145 122
3 121 146 123
3 122 147 124
3 123 148 125
3 124 149 126
3 125 150 127
3 128 149 151
3 127 152 129
3 130 151 153
3 129 154 131
3 130 155 132
3 131 156 133
3 132 157 107
3 133 158 69
3 105 159 106
3 107 160 108
3 69 161 109
3 106 162 110
3 108 163 111
3 109 164 165
3 110 166 112
3 111 167 113
3 168 169 170
3 142 171 143
3 144 136 172
3 145 171 173
3 144 168 146
3 145 174 147
3 148 168 170
3 147 175 149
3 148 176 150
3 149 177 151
3 150 178 152
3 153 177 179
3 154 178 180
3 155 179 181
3 154 182 156
3 155 183 157
3 156 184 158
3 141 185 159
3 157 186 160
3 158 187 161
3 162 185 188
3 163 186 189
3 161 190 164
3 162 191 166
3 163 192 167
3 193 194 103
3 166 195 137
3 167 196 138
3 103 197 139
3 137 135 140
3 141 196 198
3 139 199 142
3 200 201 202
3 175 203 204
3 170 205 176
3 175 206 177
3 176 207 178
3 177 208 179
3 178 209 180
3 179 200 181
3 182 209 210
3 181 211 183
3 184 210 212
3 198 213 185
3 183 214 186
3 184 215 187
3 188 213 216
3 186 217 189
3 190 215 218
3 188 219 191
3 189 220 192
3 221 222 194
3 191 223 195
3 196 220 224
3 194 201 197
3 195 225 135
3 198 224 226
3 197 227 199
3 135 228 136
3 199 229 171
3 136 230 172
3 171 231 173
3 168 230 232
3 173 203 174
3 233 234 235
3 236 237 234
3 238 235 239
3 240 239 241
3 242 240 241
3 243 242 244
3 245 244 246
3 247 246 248
3 249 248 250
3 251 250 252
3 253 252 254
3 255 254 256
3 257 256 258
3 259 258 260
3 261 260 262
3 263 262 264
3 265 266 267
3 268 267 269
3 270 269 271
3 272 271 273
3 274 273 275
3 276 275 277
3 278 277 279
3 280 279 281
3 282 281 283
3 284 283 285
3 286 285 287
3 288 287 289
3 290 289 291
3 292 290 291
3 293 294 292
3 237 295 293
3 237 296 297
3 293 298 296
3 292 299 298
3 291 300 299
3 289 301 300
3 287 302 301
3 285 303 302
3 283 304 303
3 281 305 304
3 279 306 305
3 277 67 306
3 275 65 67
3 273 307 65
3 271 308 307
3 269 309 308
3 267 310 309
3 264 311 312
3 262 313 311
3 260 314 313
3 258 315 314
3 256 316 315
3 254 317 316
3 252 318 317
3 250 319 318
3 248 320 319
3 246 321 320
3 244 322 321
3 322 241 323
3 241 324 323
3 239 325 324
3 234 297 326
3 235 326 325
3 63 327 59
3 328 329 330
3 2 331 332
3 56 333 334
3 54 334 335
3 336 54 335
3 50 336 337
3 48 337 338
3 46 338 339
3 44 339 340
3 42 340 341
3 40 341 342
3 38 342 343
3 36 343 344
3 33 344 345
3 34 345 346
3 29 347 348
3 27 348 349
3 25 349 350
3 23 350 351
3 21 351 352
3 19 352 353
3 17 353 354
3 15 354 355
3 13 355 356
3 11 356 357
3 9 357 358
3 7 358 359
3 5 359 360
3 4 360 361
3 362 363 364
3 361 331 4
3 362 295 365
3 364 294 295
3 294 360 290
3 360 288 290
3 359 286 288
3 358 284 286
3 357 282 284
3 356 280 282
3 355 278 280
3 354 276 278
3 353 274 276
3 352 272 274
3 351 270 272
3 350 268 270
3 349 265 268
3 348 366 265
3 346 261 263
3 345 259 261
3 344 257 259
3 343 255 257
3 342 253 255
3 341 251 253
3 340 249 251
3 339 247 249
3 338 245 247
3 337 243 245
3 336 367 243
3 367 334 240
3 334 238 240
3 238 368 233
3 328 365 236
3 233 328 236
3 327 330 329
3 369 370 330
3 371 329 372
3 332 373 363
3 374 363 370
3 0 332 374
3 364 373 361
3 0 369 63
3 368 372 329
3 59 371 58
3 328 370 362
3 58 372 333
3 375 376 377
3 315 378 379
3 324 380 381
3 304 382 303
3 312 383 384
3 321 385 320
3 299 386 387
3 65 388 389
3 316 390 378
3 326 380 325
3 304 391 392
3 311 393 383
3 322 394 321
3 300 395 386
3 307 396 388
3 318 390 317
3 297 397 398
3 326 398 377
3 305 399 391
3 313 400 393
3 323 401 322
3 301 402 395
3 309 396 308
3 319 376 318
3 298 397 296
3 67 399 306
3 314 379 400
3 324 403 323
3 303 402 302
3 310 404 309
3 320 405 319
3 298 387 406
3 0 101 1
3 2 1 3
3 3 6 5
3 6 8 7
3 8 10 9
3 10 12 11
3 12 14 13
3 14 16 15
3 16 18 17
3 18 20 19
3 20 22 21
3 22 24 23
3 24 26 25
3 26 28 27
3 28 30 29
3 30 407 31
3 32 35 33
3 35 37 36
3 37 39 38
3 39 41 40
3 41 43 42
3 43 45 44
3 45 47 46
3 47 49 48
3 49 51 50
3 51 53 52
3 53 55 54
3 55 73 56
3 56 73 57
3 57 64 59
3 20 18 60
3 62 101 0
3 64 62 63
3 65 389 66
3 68 133 69
3 37 96 71
3 55 97 72
3 10 98 74
3 28 70 75
3 47 99 76
3 3 1 77
3 22 20 61
3 39 71 80
3 73 72 81
3 12 74 82
3 407 30 75
3 49 76 85
3 6 3 78
3 22 79 87
3 43 41 80
3 57 81 89
3 16 14 82
3 32 84 91
3 53 51 85
3 8 6 86
3 24 87 68
3 45 43 88
3 64 89 95
3 16 90 60
3 37 35 91
3 53 92 97
3 10 8 93
3 28 26 68
3 45 94 99
3 1 101 100
3 62 95 100
3 102 193 103
3 77 100 105
3 72 97 107
3 70 69 109
3 77 106 110
3 72 108 111
3 75 109 165
3 78 110 112
3 81 111 113
3 84 102 104
3 93 86 112
3 95 89 113
3 91 104 116
3 93 114 117
3 95 115 105
3 96 116 118
3 98 117 119
3 80 71 118
3 74 119 121
3 80 120 122
3 82 121 123
3 88 122 124
3 60 90 123
3 94 124 126
3 60 125 127
3 99 126 128
3 61 127 129
3 76 128 130
3 79 129 131
3 85 130 132
3 87 131 133
3 92 132 107
3 134 140 135
3 112 166 137
3 113 167 138
3 104 103 139
3 114 137 140
3 115 138 141
3 116 139 142
3 117 140 134
3 118 142 143
3 119 134 144
3 120 143 145
3 121 144 146
3 122 145 147
3 123 146 148
3 124 147 149
3 125 148 150
3 128 126 149
3 127 150 152
3 130 128 151
3 129 152 154
3 130 153 155
3 131 154 156
3 132 155 157
3 133 156 158
3 105 141 159
3 107 157 160
3 69 158 161
3 106 159 162
3 108 160 163
3 109 161 164
3 110 162 166
3 111 163 167
3 168 232 169
3 142 199 171
3 144 134 136
3 145 143 171
3 144 172 168
3 145 173 174
3 148 146 168
3 147 174 175
3 148 170 176
3 149 175 177
3 150 176 178
3 153 151 177
3 154 152 178
3 155 153 179
3 154 180 182
3 155 181 183
3 156 182 184
3 141 198 185
3 157 183 186
3 158 184 187
3 162 159 185
3 163 160 186
3 161 187 190
3 162 188 191
3 163 189 192
3 193 221 194
3 166 191 195
3 167 192 196
3 103 194 197
3 137 195 135
3 141 138 196
3 139 197 199
3 216 213 226
3 226 224 216
3 224 220 216
3 220 217 214
3 214 211 200
3 200 208 206
3 206 204 200
3 204 203 200
3 203 231 229
3 229 227 201
3 201 222 408
3 222 409 408
3 218 215 212
3 212 210 205
3 210 209 205
3 209 207 205
3 205 169 232
3 232 230 205
3 230 228 205
3 228 225 223
3 223 219 228
3 219 216 228
3 220 214 216
3 214 200 216
3 203 229 200
3 229 201 200
3 201 408 202
3 205 228 216
3 216 200 205
3 175 174 203
3 170 169 205
3 175 204 206
3 176 205 207
3 177 206 208
3 178 207 209
3 179 208 200
3 182 180 209
3 181 200 211
3 184 182 210
3 198 226 213
3 183 211 214
3 184 212 215
3 188 185 213
3 186 214 217
3 190 187 215
3 188 216 219
3 189 217 220
3 221 409 222
3 191 219 223
3 196 192 220
3 194 222 201
3 195 223 225
3 198 196 224
3 197 201 227
3 135 225 228
3 199 227 229
3 136 228 230
3 171 229 231
3 168 172 230
3 173 231 203
3 233 236 234
3 236 365 237
3 238 233 235
3 240 238 239
3 242 367 240
3 243 367 242
3 245 243 244
3 247 245 246
3 249 247 248
3 251 249 250
3 253 251 252
3 255 253 254
3 257 255 256
3 259 257 258
3 261 259 260
3 263 261 262
3 265 366 266
3 268 265 267
3 270 268 269
3 272 270 271
3 274 272 273
3 276 274 275
3 278 276 277
3 280 278 279
3 282 280 281
3 284 282 283
3 286 284 285
3 288 286 287
3 290 288 289
3 292 294 290
3 293 295 294
3 237 365 295
3 237 293 296
3 293 292 298
3 292 291 299
3 291 289 300
3 289 287 301
3 287 285 302
3 285 283 303
3 283 281 304
3 281 279 305
3 279 277 306
3 277 275 67
3 275 273 65
3 273 271 307
3 271 269 308
3 269 267 309
3 267 266 310
3 264 262 311
3 262 260 313
3 260 258 314
3 258 256 315
3 256 254 316
3 254 252 317
3 252 250 318
3 250 248 319
3 248 246 320
3 246 244 321
3 244 242 322
3 322 242 241
3 241 239 324
3 239 235 325
3 234 237 297
3 235 234 326
3 63 369 327
3 328 368 329
3 2 4 331
3 56 58 333
3 54 56 334
3 336 52 54
3 50 52 336
3 48 50 337
3 46 48 338
3 44 46 339
3 42 44 340
3 40 42 341
3 38 40 342
3 36 38 343
3 33 36 344
3 34 33 345
3 29 31 347
3 27 29 348
3 25 27 349
3 23 25 350
3 21 23 351
3 19 21 352
3 17 19 353
3 15 17 354
3 13 15 355
3 11 13 356
3 9 11 357
3 7 9 358
3 5 7 359
3 4 5 360
3 362 370 363
3 361 373 331
3 362 364 295
3 364 361 294
3 294 361 360
3 360 359 288
3 359 358 286
3 358 357 284
3 357 356 282
3 356 355 280
3 355 354 278
3 354 353 276
3 353 352 274
3 352 351 272
3 351 350 270
3 350 349 268
3 349 348 265
3 348 347 366
3 346 345 261
3 345 344 259
3 344 343 257
3 343 342 255
3 342 341 253
3 341 340 251
3 340 339 249
3 339 338 247
3 338 337 245
3 337 336 243
3 336 335 367
3 367 335 334
3 334 333 238
3 238 333 368
3 328 362 365
3 233 368 328
3 327 369 330
3 369 374 370
3 371 327 329
3 332 331 373
3 374 332 363
3 0 2 332
3 364 363 373
3 0 374 369
3 368 333 372
3 59 327 371
3 328 330 370
3 58 371 372
3 377 398 397
3 397 406 377
3 406 387 377
3 387 386 382
3 386 395 382
3 395 402 382
3 382 392 66
3 392 391 66
3 391 399 66
3 66 389 404
3 389 388 404
3 388 396 404
3 375 384 400
3 384 383 400
3 383 393 400
3 400 379 376
3 379 378 376
3 378 390 376
3 376 405 385
3 385 394 401
3 401 403 381
3 381 380 377
3 376 385 377
3 385 401 377
3 401 381 377
3 377 387 382
3 382 66 404
3 375 400 376
3 377 382 404
3 315 316 378
3 324 325 380
3 304 392 382
3 312 311 383
3 321 394 385
3 299 300 386
3 65 307 388
3 316 317 390
3 326 377 380
3 304 305 391
3 311 313 393
3 322 401 394
3 300 301 395
3 307 308 396
3 318 376 390
3 297 296 397
3 326 297 398
3 305 306 399
3 313 314 400
3 323 403 401
3 301 302 402
3 309 404 396
3 319 405 376
3 298 406 397
3 67 66 399
3 314 315 379
3 324 381 403
3 303 382 402
3 310 410 404
3 320 385 405
3 298 299 387
