ply
format ascii 1.0
comment Created by Blender 2.76 (sub 0) - www.blender.org, source file: ''
element vertex 30
property float x
property float y
property float z
property float nx
property float ny
property float nz
property float s
property float t
element face 14
property list uchar uint vertex_indices
end_header
0.824436 0.521341 0.680000 1.000000 -0.000000 0.000001 0.968750 0.750000
0.824435 -0.000516 0.996486 1.000000 -0.000000 0.000001 0.812500 0.656250
0.824435 -0.522373 0.680000 1.000000 -0.000000 0.000001 0.656250 0.750000
-0.863586 -0.522373 0.680000 -1.000000 -0.000000 0.000000 0.031250 0.750000
-0.863586 -0.000516 0.996486 -1.000000 -0.000000 0.000000 0.187500 0.656250
-0.863586 0.521341 0.680000 -1.000000 -0.000000 0.000000 0.343750 0.750000
-0.863586 -0.522373 0.000000 -1.000000 -0.000000 -0.000000 0.031250 0.968750
-0.863586 0.521341 0.000000 -1.000000 -0.000000 0.000000 0.343750 0.968750
0.824436 0.521341 0.000000 1.000000 -0.000000 0.000000 0.968750 0.968750
0.824436 0.521341 0.680000 1.000000 -0.000000 0.000000 0.968750 0.750000
0.824436 -0.522373 0.000000 1.000000 -0.000000 0.000000 0.656250 0.968750
0.824436 -0.522373 0.000000 1.000000 -0.000000 0.000001 0.656250 0.968750
-0.863586 -0.000516 0.996486 -0.000000 -0.518552 0.855046 0.031250 0.156250
-0.863586 -0.522373 0.680000 -0.000000 -0.518552 0.855046 0.031250 0.281250
0.824435 -0.522373 0.680000 -0.000000 -0.518552 0.855046 0.468750 0.281250
0.824435 -0.000516 0.996486 -0.000000 -0.518552 0.855046 0.468750 0.156250
-0.863586 0.521341 0.680000 0.000000 0.518552 0.855046 0.031250 0.031250
-0.863586 -0.000516 0.996486 0.000000 0.518552 0.855046 0.031250 0.156250
0.824435 -0.000516 0.996486 0.000000 0.518552 0.855046 0.468750 0.156250
0.824436 0.521341 0.680000 0.000000 0.518552 0.855046 0.468750 0.031250
0.824436 -0.522373 0.000000 0.000000 -1.000000 -0.000000 0.968750 0.218750
0.824435 -0.522373 0.680000 0.000000 -1.000000 -0.000000 0.968750 0.031250
-0.863586 -0.522373 0.000000 0.000000 -1.000000 -0.000000 0.531250 0.218750
-0.863586 -0.522373 0.680000 -0.000000 -1.000000 0.000000 0.531250 0.031250
0.824436 0.521341 0.680000 0.000000 1.000000 0.000001 0.968750 0.250000
0.824436 0.521341 0.000000 0.000000 1.000000 0.000001 0.968750 0.437500
-0.863586 0.521341 0.680000 0.000000 1.000000 0.000001 0.531250 0.250000
0.824436 0.521341 0.000000 -0.000000 1.000000 0.000000 0.968750 0.437500
-0.863586 0.521341 0.000000 -0.000000 1.000000 0.000000 0.531250 0.437500
-0.863586 0.521341 0.680000 -0.000000 1.000000 0.000000 0.531250 0.250000
3 0 1 2
3 3 4 5
3 6 3 5
3 6 5 7
3 8 9 10
3 0 2 11
3 12 13 14
3 12 14 15
3 16 17 18
3 16 18 19
3 20 21 22
3 21 23 22
3 24 25 26
3 27 28 29
