ply
format ascii 1.0
comment Created by Blender 2.75 (sub 0) - www.blender.org, source file: 'xSphere.blend'
element vertex 256
property float x
property float y
property float z
property float nx
property float ny
property float nz
property float s
property float t
element face 450
property list uchar uint vertex_indices
end_header
-4.000000 -3.466667 -1.000000 0.076601 0.025544 -0.996704 0.000000 0.066667
-3.466667 -3.466667 -0.945273 0.050966 0.050966 -0.997375 0.066667 0.066667
-3.466667 -4.000000 -1.000000 0.025544 0.076601 -0.996704 0.066667 0.000000
-2.933333 -3.466667 -0.945246 0.049745 0.163244 -0.985321 0.133333 0.066667
-2.933333 -4.000000 -1.000000 0.000000 0.102084 -0.994751 0.133333 0.000000
-2.400000 -3.466667 -0.925440 0.057588 0.250252 -0.966460 0.200000 0.066667
-2.400000 -4.000000 -1.000000 0.011475 0.129337 -0.991516 0.200000 0.000000
-1.866667 -3.466667 -0.882862 0.080020 0.317270 -0.944914 0.266667 0.066667
-1.866667 -4.000000 -0.997511 0.032685 0.192083 -0.980804 0.266667 0.000000
-1.333333 -3.466667 -0.836649 0.072237 0.368236 -0.926908 0.333333 0.066667
-1.333333 -4.000000 -0.984286 0.039033 0.252266 -0.966857 0.333333 0.000000
-0.800000 -3.466667 -0.802215 0.043092 0.399701 -0.915616 0.400000 0.066667
-0.800000 -4.000000 -0.970695 0.026276 0.292306 -0.955931 0.400000 0.000000
-0.266666 -3.466667 -0.789575 0.012207 0.411420 -0.911344 0.466667 0.066667
-0.266666 -4.000000 -0.965195 0.007996 0.309763 -0.950743 0.466667 0.000000
0.266667 -3.466667 -0.789575 -0.012207 0.411420 -0.911344 0.533333 0.066667
0.266667 -4.000000 -0.965195 -0.007996 0.309763 -0.950743 0.533333 0.000000
0.800000 -3.466667 -0.802215 -0.043092 0.399701 -0.915616 0.600000 0.066667
0.800000 -4.000000 -0.970695 -0.026276 0.292306 -0.955931 0.600000 0.000000
1.333333 -3.466667 -0.836649 -0.072237 0.368236 -0.926908 0.666667 0.066667
1.333333 -4.000000 -0.984286 -0.039033 0.252266 -0.966857 0.666667 0.000000
1.866667 -3.466667 -0.882862 -0.080020 0.317270 -0.944914 0.733333 0.066667
1.866667 -4.000000 -0.997511 -0.032685 0.192083 -0.980804 0.733333 0.000000
2.400001 -3.466667 -0.925440 -0.057588 0.250252 -0.966460 0.800000 0.066667
2.400001 -4.000000 -1.000000 -0.011475 0.129337 -0.991516 0.800000 0.000000
2.933334 -3.466667 -0.945246 -0.049745 0.163213 -0.985321 0.866667 0.066667
3.466667 -3.466667 -0.945273 -0.038362 0.038362 -0.998505 0.933333 0.066667
3.466667 -4.000000 -1.000000 0.000000 0.102084 -0.994751 0.933333 0.000000
4.000000 -3.466667 -1.000000 -0.102084 0.000000 -0.994751 1.000000 0.066667
4.000000 -4.000000 -1.000000 -0.051149 0.051149 -0.997375 1.000000 0.000000
-4.000000 -2.933333 -1.000000 0.102084 0.000000 -0.994751 0.000000 0.133333
-3.466667 -2.933333 -0.945246 0.163244 0.049745 -0.985321 0.066667 0.133333
-2.933333 -2.933333 -0.786449 0.202887 0.202887 -0.957945 0.133333 0.133333
-2.400000 -2.933333 -0.717624 0.165593 0.369427 -0.914365 0.200000 0.133333
-1.866667 -2.933333 -0.632082 0.137577 0.456801 -0.878842 0.266667 0.133333
-1.333333 -2.933333 -0.551977 0.111789 0.499191 -0.859218 0.333333 0.133333
-0.800000 -2.933333 -0.495678 0.063265 0.526231 -0.847957 0.400000 0.133333
-0.266666 -2.933333 -0.475459 0.017273 0.536546 -0.843654 0.466667 0.133333
0.266667 -2.933333 -0.475459 -0.017273 0.536546 -0.843654 0.533333 0.133333
0.800000 -2.933333 -0.495678 -0.063265 0.526231 -0.847957 0.600000 0.133333
1.333333 -2.933333 -0.551977 -0.111789 0.499191 -0.859218 0.666667 0.133333
1.866667 -2.933333 -0.632082 -0.137577 0.456801 -0.878842 0.733333 0.133333
2.400001 -2.933333 -0.717624 -0.165593 0.369427 -0.914365 0.800000 0.133333
2.933334 -2.933333 -0.786449 -0.202887 0.202887 -0.957945 0.866667 0.133333
3.466667 -2.933333 -0.945246 -0.163213 0.049745 -0.985321 0.933333 0.133333
4.000000 -2.933333 -1.000000 -0.102115 0.000000 -0.994751 1.000000 0.133333
-4.000000 -2.400000 -1.000000 0.129337 0.011475 -0.991516 0.000000 0.200000
-3.466667 -2.400000 -0.925440 0.250252 0.057588 -0.966460 0.066667 0.200000
-2.933333 -2.400000 -0.717624 0.369427 0.165593 -0.914365 0.133333 0.200000
-2.400000 -2.400000 -0.451745 0.321451 0.321451 -0.890683 0.200000 0.200000
-1.866667 -2.400000 -0.325798 0.220099 0.446120 -0.867458 0.266667 0.200000
-1.333333 -2.400000 -0.213392 0.152287 0.507950 -0.847804 0.333333 0.200000
-0.800000 -2.400000 -0.135946 0.084933 0.533525 -0.841487 0.400000 0.200000
-0.266666 -2.400000 -0.108325 0.022858 0.543840 -0.838832 0.466667 0.200000
0.266667 -2.400000 -0.108325 -0.022858 0.543840 -0.838832 0.533333 0.200000
0.800000 -2.400000 -0.135946 -0.084933 0.533525 -0.841487 0.600000 0.200000
1.333333 -2.400000 -0.213392 -0.152287 0.507950 -0.847804 0.666667 0.200000
1.866667 -2.400000 -0.325798 -0.220099 0.446120 -0.867458 0.733333 0.200000
2.400001 -2.400000 -0.451745 -0.321451 0.321451 -0.890683 0.800000 0.200000
2.933334 -2.400000 -0.717624 -0.369427 0.165593 -0.914365 0.866667 0.200000
3.466667 -2.400000 -0.925440 -0.250252 0.057588 -0.966460 0.933333 0.200000
4.000000 -2.400000 -1.000000 -0.129337 0.011475 -0.991516 1.000000 0.200000
-4.000000 -1.866667 -0.997511 0.192083 0.032685 -0.980804 0.000000 0.266667
-3.466667 -1.866667 -0.882862 0.317270 0.080020 -0.944914 0.066667 0.266667
-2.933333 -1.866667 -0.632082 0.456801 0.137577 -0.878842 0.133333 0.266667
-2.400000 -1.866667 -0.325798 0.446120 0.220099 -0.867458 0.200000 0.266667
-1.866667 -1.866667 -0.049188 0.336680 0.336680 -0.879360 0.266667 0.266667
-1.333333 -1.866667 0.089845 0.203284 0.399182 -0.894040 0.333333 0.266667
-0.800000 -1.866667 0.185036 0.109928 0.430952 -0.895627 0.400000 0.266667
-0.266666 -1.866667 0.218972 0.029633 0.442396 -0.896298 0.466667 0.266667
0.266667 -1.866667 0.218972 -0.029633 0.442396 -0.896298 0.533333 0.266667
0.800000 -1.866667 0.185036 -0.109928 0.430952 -0.895627 0.600000 0.266667
1.333333 -1.866667 0.089845 -0.203284 0.399182 -0.894040 0.666667 0.266667
1.866667 -1.866667 -0.049188 -0.336680 0.336680 -0.879360 0.733333 0.266667
2.400001 -1.866667 -0.325798 -0.446120 0.220099 -0.867458 0.800000 0.266667
2.933334 -1.866667 -0.632082 -0.456801 0.137577 -0.878842 0.866667 0.266667
3.466667 -1.866667 -0.882862 -0.317270 0.080020 -0.944914 0.933333 0.266667
4.000000 -1.866667 -0.997511 -0.192083 0.032685 -0.980804 1.000000 0.266667
-4.000000 -1.333333 -0.984286 0.252266 0.039033 -0.966857 0.000000 0.333333
-3.466667 -1.333333 -0.836649 0.368236 0.072237 -0.926908 0.066667 0.333333
-2.933333 -1.333333 -0.551977 0.499191 0.111789 -0.859218 0.133333 0.333333
-2.400000 -1.333333 -0.213392 0.507950 0.152287 -0.847804 0.200000 0.333333
-1.866667 -1.333333 0.089845 0.399182 0.203284 -0.894040 0.266667 0.333333
-1.333333 -1.333333 0.277215 0.257485 0.257485 -0.931303 0.333333 0.333333
-0.800000 -1.333333 0.386740 0.133824 0.285318 -0.949034 0.400000 0.333333
-0.266666 -1.333333 0.426173 0.036592 0.298105 -0.953795 0.466667 0.333333
0.266667 -1.333333 0.426173 -0.036592 0.298105 -0.953795 0.533333 0.333333
0.800000 -1.333333 0.386740 -0.133824 0.285318 -0.949034 0.600000 0.333333
1.333333 -1.333333 0.277215 -0.257485 0.257485 -0.931303 0.666667 0.333333
1.866667 -1.333333 0.089845 -0.399182 0.203284 -0.894040 0.733333 0.333333
2.400001 -1.333333 -0.213393 -0.507950 0.152287 -0.847804 0.800000 0.333333
2.933334 -1.333333 -0.551977 -0.499191 0.111789 -0.859218 0.866667 0.333333
3.466667 -1.333333 -0.836649 -0.368236 0.072237 -0.926908 0.933333 0.333333
4.000000 -1.333333 -0.984286 -0.252266 0.039033 -0.966857 1.000000 0.333333
-4.000000 -0.800000 -0.970695 0.292306 0.026276 -0.955931 0.000000 0.400000
-3.466667 -0.800000 -0.802215 0.399701 0.043092 -0.915616 0.066667 0.400000
-2.933333 -0.800000 -0.495678 0.526231 0.063265 -0.847957 0.133333 0.400000
-2.400000 -0.800000 -0.135946 0.533525 0.084933 -0.841487 0.200000 0.400000
-1.866667 -0.800000 0.185036 0.430952 0.109928 -0.895627 0.266667 0.400000
-1.333333 -0.800000 0.386740 0.285318 0.133824 -0.949034 0.333333 0.400000
-0.800000 -0.800000 0.510510 0.153783 0.153783 -0.976043 0.400000 0.400000
-0.266666 -0.800000 0.556165 0.042909 0.163671 -0.985565 0.466667 0.400000
0.266667 -0.800000 0.556165 -0.042909 0.163671 -0.985565 0.533333 0.400000
0.800000 -0.800000 0.510510 -0.153783 0.153783 -0.976043 0.600000 0.400000
1.333333 -0.800000 0.386741 -0.285318 0.133824 -0.949034 0.666667 0.400000
1.866667 -0.800000 0.185036 -0.430952 0.109928 -0.895627 0.733333 0.400000
2.400001 -0.800000 -0.135946 -0.533525 0.084933 -0.841487 0.800000 0.400000
2.933334 -0.800000 -0.495678 -0.526231 0.063265 -0.847957 0.866667 0.400000
3.466667 -0.800000 -0.802215 -0.399701 0.043092 -0.915616 0.933333 0.400000
4.000000 -0.800000 -0.970695 -0.292306 0.026276 -0.955931 1.000000 0.400000
-4.000000 -0.266666 -0.965195 0.309763 0.007996 -0.950743 0.000000 0.466667
-3.466667 -0.266666 -0.789575 0.411420 0.012207 -0.911344 0.066667 0.466667
-2.933333 -0.266666 -0.475459 0.536546 0.017273 -0.843654 0.133333 0.466667
-2.400000 -0.266666 -0.108325 0.543840 0.022858 -0.838832 0.200000 0.466667
-1.866667 -0.266666 0.218972 0.442396 0.029633 -0.896298 0.266667 0.466667
-1.333333 -0.266666 0.426173 0.298105 0.036592 -0.953795 0.333333 0.466667
-0.800000 -0.266666 0.556165 0.163671 0.042909 -0.985565 0.400000 0.466667
-0.266666 -0.266666 0.605631 0.046113 0.046113 -0.997864 0.466667 0.466667
0.266667 -0.266666 0.605631 -0.046113 0.046113 -0.997864 0.533333 0.466667
0.800000 -0.266666 0.556165 -0.163671 0.042909 -0.985565 0.600000 0.466667
1.333333 -0.266666 0.426173 -0.298105 0.036592 -0.953795 0.666667 0.466667
1.866667 -0.266666 0.218971 -0.442396 0.029633 -0.896298 0.733333 0.466667
2.400001 -0.266666 -0.108326 -0.543840 0.022858 -0.838832 0.800000 0.466667
2.933334 -0.266666 -0.475459 -0.536546 0.017273 -0.843654 0.866667 0.466667
3.466667 -0.266666 -0.789575 -0.411420 0.012207 -0.911344 0.933333 0.466667
4.000000 -0.266666 -0.965195 -0.309763 0.007996 -0.950743 1.000000 0.466667
-4.000000 0.266667 -0.965195 0.309763 -0.007996 -0.950743 0.000000 0.533333
-3.466667 0.266667 -0.789575 0.411420 -0.012207 -0.911344 0.066667 0.533333
-2.933333 0.266667 -0.475459 0.536546 -0.017273 -0.843654 0.133333 0.533333
-2.400000 0.266667 -0.108325 0.543840 -0.022858 -0.838832 0.200000 0.533333
-1.866667 0.266667 0.218972 0.442396 -0.029633 -0.896298 0.266667 0.533333
-1.333333 0.266667 0.426173 0.298105 -0.036592 -0.953795 0.333333 0.533333
-0.800000 0.266667 0.556165 0.163671 -0.042909 -0.985565 0.400000 0.533333
-0.266666 0.266667 0.605631 0.046113 -0.046113 -0.997864 0.466667 0.533333
0.266667 0.266667 0.605631 -0.046113 -0.046113 -0.997864 0.533333 0.533333
0.800000 0.266667 0.556165 -0.163671 -0.042909 -0.985565 0.600000 0.533333
1.333333 0.266667 0.426173 -0.298105 -0.036592 -0.953795 0.666667 0.533333
1.866667 0.266667 0.218971 -0.442396 -0.029633 -0.896298 0.733333 0.533333
2.400001 0.266667 -0.108326 -0.543840 -0.022858 -0.838832 0.800000 0.533333
2.933334 0.266667 -0.475459 -0.536546 -0.017273 -0.843654 0.866667 0.533333
3.466667 0.266667 -0.789575 -0.411420 -0.012207 -0.911344 0.933333 0.533333
4.000000 0.266667 -0.965195 -0.309763 -0.007996 -0.950743 1.000000 0.533333
-4.000000 0.800000 -0.970695 0.292306 -0.026276 -0.955931 0.000000 0.600000
-3.466667 0.800000 -0.802215 0.399701 -0.043092 -0.915616 0.066667 0.600000
-2.933333 0.800000 -0.495678 0.526231 -0.063265 -0.847957 0.133333 0.600000
-2.400000 0.800000 -0.135946 0.533525 -0.084933 -0.841487 0.200000 0.600000
-1.866667 0.800000 0.185036 0.430952 -0.109928 -0.895627 0.266667 0.600000
-1.333333 0.800000 0.386740 0.285318 -0.133824 -0.949034 0.333333 0.600000
-0.800000 0.800000 0.510510 0.153783 -0.153783 -0.976043 0.400000 0.600000
-0.266666 0.800000 0.556165 0.042909 -0.163671 -0.985565 0.466667 0.600000
0.266667 0.800000 0.556165 -0.042909 -0.163671 -0.985565 0.533333 0.600000
0.800000 0.800000 0.510510 -0.153783 -0.153783 -0.976043 0.600000 0.600000
1.333333 0.800000 0.386741 -0.285318 -0.133824 -0.949034 0.666667 0.600000
1.866667 0.800000 0.185036 -0.430952 -0.109928 -0.895627 0.733333 0.600000
2.400001 0.800000 -0.135946 -0.533525 -0.084933 -0.841487 0.800000 0.600000
2.933334 0.800000 -0.495678 -0.526231 -0.063265 -0.847957 0.866667 0.600000
3.466667 0.800000 -0.802215 -0.399701 -0.043092 -0.915616 0.933333 0.600000
4.000000 0.800000 -0.970695 -0.292306 -0.026276 -0.955931 1.000000 0.600000
-4.000000 1.333333 -0.984286 0.252266 -0.039033 -0.966857 0.000000 0.666667
-3.466667 1.333333 -0.836649 0.368236 -0.072237 -0.926908 0.066667 0.666667
-2.933333 1.333333 -0.551977 0.499191 -0.111789 -0.859218 0.133333 0.666667
-2.400000 1.333333 -0.213392 0.507950 -0.152287 -0.847804 0.200000 0.666667
-1.866667 1.333333 0.089845 0.399182 -0.203284 -0.894040 0.266667 0.666667
-1.333333 1.333333 0.277215 0.257485 -0.257485 -0.931303 0.333333 0.666667
-0.800000 1.333333 0.386741 0.133824 -0.285318 -0.949034 0.400000 0.666667
-0.266666 1.333333 0.426173 0.036592 -0.298105 -0.953795 0.466667 0.666667
0.266667 1.333333 0.426173 -0.036592 -0.298105 -0.953795 0.533333 0.666667
0.800000 1.333333 0.386741 -0.133824 -0.285318 -0.949034 0.600000 0.666667
1.333333 1.333333 0.277215 -0.257485 -0.257485 -0.931303 0.666667 0.666667
1.866667 1.333333 0.089845 -0.399182 -0.203284 -0.894040 0.733333 0.666667
2.400001 1.333333 -0.213393 -0.507950 -0.152287 -0.847804 0.800000 0.666667
2.933334 1.333333 -0.551977 -0.499191 -0.111789 -0.859218 0.866667 0.666667
3.466667 1.333333 -0.836649 -0.368236 -0.072237 -0.926908 0.933333 0.666667
4.000000 1.333333 -0.984286 -0.252266 -0.039033 -0.966857 1.000000 0.666667
-4.000000 1.866667 -0.997511 0.192083 -0.032685 -0.980804 0.000000 0.733333
-3.466667 1.866667 -0.882862 0.317270 -0.080020 -0.944914 0.066667 0.733333
-2.933333 1.866667 -0.632082 0.456801 -0.137577 -0.878842 0.133333 0.733333
-2.400000 1.866667 -0.325798 0.446120 -0.220099 -0.867458 0.200000 0.733333
-1.866667 1.866667 -0.049188 0.336680 -0.336680 -0.879360 0.266667 0.733333
-1.333333 1.866667 0.089845 0.203284 -0.399182 -0.894040 0.333333 0.733333
-0.800000 1.866667 0.185036 0.109928 -0.430952 -0.895627 0.400000 0.733333
-0.266666 1.866667 0.218971 0.029633 -0.442396 -0.896298 0.466667 0.733333
0.266667 1.866667 0.218971 -0.029633 -0.442396 -0.896298 0.533333 0.733333
0.800000 1.866667 0.185036 -0.109928 -0.430952 -0.895627 0.600000 0.733333
1.333333 1.866667 0.089845 -0.203284 -0.399182 -0.894040 0.666667 0.733333
1.866667 1.866667 -0.049188 -0.336680 -0.336680 -0.879360 0.733333 0.733333
2.400001 1.866667 -0.325798 -0.446120 -0.220099 -0.867458 0.800000 0.733333
2.933334 1.866667 -0.632082 -0.456801 -0.137577 -0.878842 0.866667 0.733333
3.466667 1.866667 -0.882862 -0.317270 -0.080020 -0.944914 0.933333 0.733333
4.000000 1.866667 -0.997511 -0.192083 -0.032685 -0.980804 1.000000 0.733333
-4.000000 2.400001 -1.000000 0.129337 -0.011475 -0.991516 0.000000 0.800000
-3.466667 2.400001 -0.925440 0.250252 -0.057588 -0.966460 0.066667 0.800000
-2.933333 2.400001 -0.717624 0.369427 -0.165593 -0.914365 0.133333 0.800000
-2.400000 2.400001 -0.451745 0.321451 -0.321451 -0.890683 0.200000 0.800000
-1.866667 2.400001 -0.325798 0.220099 -0.446120 -0.867458 0.266667 0.800000
-1.333333 2.400001 -0.213393 0.152287 -0.507950 -0.847804 0.333333 0.800000
-0.800000 2.400001 -0.135946 0.084933 -0.533525 -0.841487 0.400000 0.800000
-0.266666 2.400001 -0.108326 0.022858 -0.543840 -0.838832 0.466667 0.800000
0.266667 2.400001 -0.108326 -0.022858 -0.543840 -0.838832 0.533333 0.800000
0.800000 2.400001 -0.135946 -0.084933 -0.533525 -0.841487 0.600000 0.800000
1.333333 2.400001 -0.213393 -0.152287 -0.507950 -0.847804 0.666667 0.800000
1.866667 2.400001 -0.325798 -0.220099 -0.446120 -0.867458 0.733333 0.800000
2.400001 2.400001 -0.451746 -0.321451 -0.321451 -0.890683 0.800000 0.800000
2.933334 2.400001 -0.717624 -0.369427 -0.165593 -0.914365 0.866667 0.800000
3.466667 2.400001 -0.925440 -0.250252 -0.057588 -0.966460 0.933333 0.800000
4.000000 2.400001 -1.000000 -0.129337 -0.011475 -0.991516 1.000000 0.800000
-4.000000 2.933334 -1.000000 0.102115 0.000000 -0.994751 0.000000 0.866667
-3.466667 2.933334 -0.945246 0.163213 -0.049745 -0.985321 0.066667 0.866667
-2.933333 2.933334 -0.786449 0.202887 -0.202887 -0.957945 0.133333 0.866667
-2.400000 2.933334 -0.717624 0.165593 -0.369427 -0.914365 0.200000 0.866667
-1.866667 2.933334 -0.632082 0.137577 -0.456801 -0.878842 0.266667 0.866667
-1.333333 2.933334 -0.551977 0.111789 -0.499191 -0.859218 0.333333 0.866667
-0.800000 2.933334 -0.495678 0.063265 -0.526231 -0.847957 0.400000 0.866667
-0.266666 2.933334 -0.475459 0.017273 -0.536546 -0.843654 0.466667 0.866667
0.266667 2.933334 -0.475459 -0.017273 -0.536546 -0.843654 0.533333 0.866667
0.800000 2.933334 -0.495678 -0.063265 -0.526231 -0.847957 0.600000 0.866667
1.333333 2.933334 -0.551977 -0.111789 -0.499191 -0.859218 0.666667 0.866667
1.866667 2.933334 -0.632082 -0.137577 -0.456801 -0.878842 0.733333 0.866667
2.400001 2.933334 -0.717624 -0.165593 -0.369427 -0.914365 0.800000 0.866667
2.933334 2.933334 -0.786449 -0.202887 -0.202887 -0.957945 0.866667 0.866667
3.466667 2.933334 -0.945246 -0.163244 -0.049745 -0.985321 0.933333 0.866667
4.000000 2.933334 -1.000000 -0.102084 0.000000 -0.994751 1.000000 0.866667
-4.000000 3.466667 -1.000000 0.102084 0.000000 -0.994751 0.000000 0.933333
-3.466667 3.466667 -0.945273 0.038362 -0.038362 -0.998505 0.066667 0.933333
-2.933333 3.466667 -0.945246 0.049745 -0.163213 -0.985321 0.133333 0.933333
-2.400000 3.466667 -0.925440 0.057588 -0.250252 -0.966460 0.200000 0.933333
-1.866667 3.466667 -0.882862 0.080020 -0.317270 -0.944914 0.266667 0.933333
-1.333333 3.466667 -0.836649 0.072237 -0.368236 -0.926908 0.333333 0.933333
-0.800000 3.466667 -0.802215 0.043092 -0.399701 -0.915616 0.400000 0.933333
-0.266666 3.466667 -0.789575 0.012207 -0.411420 -0.911344 0.466667 0.933333
0.266667 3.466667 -0.789575 -0.012207 -0.411420 -0.911344 0.533333 0.933333
0.800000 3.466667 -0.802215 -0.043092 -0.399701 -0.915616 0.600000 0.933333
1.333333 3.466667 -0.836649 -0.072237 -0.368236 -0.926908 0.666667 0.933333
1.866667 3.466667 -0.882862 -0.080020 -0.317270 -0.944914 0.733333 0.933333
2.400001 3.466667 -0.925440 -0.057588 -0.250252 -0.966460 0.800000 0.933333
2.933334 3.466667 -0.945246 -0.049745 -0.163244 -0.985321 0.866667 0.933333
3.466667 3.466667 -0.945273 -0.050966 -0.050966 -0.997375 0.933333 0.933333
4.000000 3.466667 -1.000000 -0.076601 -0.025544 -0.996704 1.000000 0.933333
-4.000000 4.000000 -1.000000 0.051149 -0.051149 -0.997375 0.000000 1.000000
-3.466667 4.000000 -1.000000 0.000000 -0.102084 -0.994751 0.066667 1.000000
-2.933333 4.000000 -1.000000 0.000000 -0.102115 -0.994751 0.133333 1.000000
-2.400000 4.000000 -1.000000 0.011475 -0.129337 -0.991516 0.200000 1.000000
-1.866667 4.000000 -0.997511 0.032685 -0.192083 -0.980804 0.266667 1.000000
-1.333333 4.000000 -0.984286 0.039033 -0.252266 -0.966857 0.333333 1.000000
-0.800000 4.000000 -0.970695 0.026276 -0.292306 -0.955931 0.400000 1.000000
-0.266666 4.000000 -0.965195 0.007996 -0.309763 -0.950743 0.466667 1.000000
0.266667 4.000000 -0.965195 -0.007996 -0.309763 -0.950743 0.533333 1.000000
0.800000 4.000000 -0.970695 -0.026276 -0.292306 -0.955931 0.600000 1.000000
1.333333 4.000000 -0.984286 -0.039033 -0.252266 -0.966857 0.666667 1.000000
1.866667 4.000000 -0.997511 -0.032685 -0.192083 -0.980804 0.733333 1.000000
2.400001 4.000000 -1.000000 -0.011475 -0.129337 -0.991516 0.800000 1.000000
2.933334 4.000000 -1.000000 0.000000 -0.102084 -0.994751 0.866667 1.000000
3.466667 4.000000 -1.000000 -0.025544 -0.076601 -0.996704 0.933333 1.000000
4.000000 4.000000 -1.000000 0.000000 0.000000 -1.000000 1.000000 1.000000
-4.000000 -4.000000 -1.000000 0.000000 0.000000 -1.000000 0.000000 0.000000
2.933334 -4.000000 -1.000000 0.000000 0.102115 -0.994751 0.866667 0.000000
3 0 1 2
3 1 3 4
3 3 5 6
3 5 7 8
3 7 9 10
3 9 11 12
3 11 13 14
3 13 15 16
3 16 15 17
3 18 17 19
3 20 19 21
3 22 21 23
3 24 23 25
3 25 26 27
3 26 28 29
3 30 31 1
3 31 32 3
3 32 33 5
3 33 34 7
3 34 35 9
3 35 36 11
3 36 37 13
3 37 38 15
3 15 38 39
3 17 39 40
3 19 40 41
3 21 41 42
3 23 42 43
3 25 43 44
3 44 45 28
3 46 47 31
3 47 48 32
3 48 49 33
3 49 50 34
3 50 51 35
3 51 52 36
3 52 53 37
3 53 54 38
3 38 54 55
3 39 55 56
3 40 56 57
3 41 57 58
3 42 58 59
3 43 59 60
3 44 60 61
3 62 63 47
3 63 64 48
3 64 65 49
3 65 66 50
3 66 67 51
3 67 68 52
3 68 69 53
3 69 70 54
3 54 70 71
3 55 71 72
3 56 72 73
3 57 73 74
3 58 74 75
3 59 75 76
3 60 76 77
3 78 79 63
3 79 80 64
3 80 81 65
3 81 82 66
3 82 83 67
3 83 84 68
3 84 85 69
3 85 86 70
3 70 86 87
3 71 87 88
3 72 88 89
3 73 89 90
3 74 90 91
3 75 91 92
3 76 92 93
3 94 95 79
3 95 96 80
3 96 97 81
3 97 98 82
3 98 99 83
3 99 100 84
3 100 101 85
3 101 102 86
3 86 102 103
3 87 103 104
3 88 104 105
3 89 105 106
3 90 106 107
3 91 107 108
3 92 108 109
3 110 111 95
3 111 112 96
3 112 113 97
3 113 114 98
3 114 115 99
3 115 116 100
3 116 117 101
3 117 118 102
3 102 118 119
3 103 119 120
3 104 120 121
3 105 121 122
3 106 122 123
3 107 123 124
3 108 124 125
3 126 127 111
3 127 128 112
3 128 129 113
3 129 130 114
3 130 131 115
3 131 132 116
3 132 133 117
3 133 134 118
3 134 135 119
3 135 136 120
3 136 137 121
3 137 138 122
3 138 139 123
3 139 140 124
3 140 141 125
3 126 142 143
3 127 143 144
3 128 144 145
3 129 145 146
3 130 146 147
3 131 147 148
3 132 148 149
3 149 150 134
3 150 151 135
3 151 152 136
3 152 153 137
3 153 154 138
3 154 155 139
3 155 156 140
3 156 157 141
3 142 158 159
3 143 159 160
3 144 160 161
3 145 161 162
3 146 162 163
3 147 163 164
3 148 164 165
3 165 166 150
3 166 167 151
3 167 168 152
3 168 169 153
3 169 170 154
3 170 171 155
3 171 172 156
3 172 173 157
3 158 174 175
3 159 175 176
3 160 176 177
3 161 177 178
3 162 178 179
3 163 179 180
3 164 180 181
3 181 182 166
3 182 183 167
3 183 184 168
3 184 185 169
3 185 186 170
3 186 187 171
3 187 188 172
3 188 189 173
3 174 190 191
3 175 191 192
3 176 192 193
3 177 193 194
3 178 194 195
3 179 195 196
3 180 196 197
3 197 198 182
3 198 199 183
3 199 200 184
3 200 201 185
3 201 202 186
3 202 203 187
3 203 204 188
3 204 205 189
3 190 206 207
3 191 207 208
3 192 208 209
3 193 209 210
3 194 210 211
3 195 211 212
3 196 212 213
3 213 214 198
3 214 215 199
3 215 216 200
3 216 217 201
3 217 218 202
3 218 219 203
3 219 220 204
3 220 221 205
3 222 223 207
3 207 223 224
3 208 224 225
3 209 225 226
3 210 226 227
3 211 227 228
3 212 228 229
3 229 230 214
3 230 231 215
3 231 232 216
3 232 233 217
3 233 234 218
3 234 235 219
3 235 236 220
3 236 237 221
3 238 239 223
3 239 240 224
3 224 240 241
3 225 241 242
3 226 242 243
3 227 243 244
3 228 244 245
3 245 246 230
3 246 247 231
3 247 248 232
3 248 249 233
3 249 250 234
3 250 251 235
3 251 252 236
3 252 253 237
3 254 0 2
3 2 1 4
3 4 3 6
3 6 5 8
3 8 7 10
3 10 9 12
3 12 11 14
3 14 13 16
3 18 16 17
3 20 18 19
3 22 20 21
3 24 22 23
3 255 24 25
3 255 25 27
3 27 26 29
3 0 30 1
3 1 31 3
3 3 32 5
3 5 33 7
3 7 34 9
3 9 35 11
3 11 36 13
3 13 37 15
3 17 15 39
3 19 17 40
3 21 19 41
3 23 21 42
3 25 23 43
3 26 25 44
3 26 44 28
3 30 46 31
3 31 47 32
3 32 48 33
3 33 49 34
3 34 50 35
3 35 51 36
3 36 52 37
3 37 53 38
3 39 38 55
3 40 39 56
3 41 40 57
3 42 41 58
3 43 42 59
3 44 43 60
3 45 44 61
3 46 62 47
3 47 63 48
3 48 64 49
3 49 65 50
3 50 66 51
3 51 67 52
3 52 68 53
3 53 69 54
3 55 54 71
3 56 55 72
3 57 56 73
3 58 57 74
3 59 58 75
3 60 59 76
3 61 60 77
3 62 78 63
3 63 79 64
3 64 80 65
3 65 81 66
3 66 82 67
3 67 83 68
3 68 84 69
3 69 85 70
3 71 70 87
3 72 71 88
3 73 72 89
3 74 73 90
3 75 74 91
3 76 75 92
3 77 76 93
3 78 94 79
3 79 95 80
3 80 96 81
3 81 97 82
3 82 98 83
3 83 99 84
3 84 100 85
3 85 101 86
3 87 86 103
3 88 87 104
3 89 88 105
3 90 89 106
3 91 90 107
3 92 91 108
3 93 92 109
3 94 110 95
3 95 111 96
3 96 112 97
3 97 113 98
3 98 114 99
3 99 115 100
3 100 116 101
3 101 117 102
3 103 102 119
3 104 103 120
3 105 104 121
3 106 105 122
3 107 106 123
3 108 107 124
3 109 108 125
3 110 126 111
3 111 127 112
3 112 128 113
3 113 129 114
3 114 130 115
3 115 131 116
3 116 132 117
3 117 133 118
3 118 134 119
3 119 135 120
3 120 136 121
3 121 137 122
3 122 138 123
3 123 139 124
3 124 140 125
3 127 126 143
3 128 127 144
3 129 128 145
3 130 129 146
3 131 130 147
3 132 131 148
3 133 132 149
3 133 149 134
3 134 150 135
3 135 151 136
3 136 152 137
3 137 153 138
3 138 154 139
3 139 155 140
3 140 156 141
3 143 142 159
3 144 143 160
3 145 144 161
3 146 145 162
3 147 146 163
3 148 147 164
3 149 148 165
3 149 165 150
3 150 166 151
3 151 167 152
3 152 168 153
3 153 169 154
3 154 170 155
3 155 171 156
3 156 172 157
3 159 158 175
3 160 159 176
3 161 160 177
3 162 161 178
3 163 162 179
3 164 163 180
3 165 164 181
3 165 181 166
3 166 182 167
3 167 183 168
3 168 184 169
3 169 185 170
3 170 186 171
3 171 187 172
3 172 188 173
3 175 174 191
3 176 175 192
3 177 176 193
3 178 177 194
3 179 178 195
3 180 179 196
3 181 180 197
3 181 197 182
3 182 198 183
3 183 199 184
3 184 200 185
3 185 201 186
3 186 202 187
3 187 203 188
3 188 204 189
3 191 190 207
3 192 191 208
3 193 192 209
3 194 193 210
3 195 194 211
3 196 195 212
3 197 196 213
3 197 213 198
3 198 214 199
3 199 215 200
3 200 216 201
3 201 217 202
3 202 218 203
3 203 219 204
3 204 220 205
3 206 222 207
3 208 207 224
3 209 208 225
3 210 209 226
3 211 210 227
3 212 211 228
3 213 212 229
3 213 229 214
3 214 230 215
3 215 231 216
3 216 232 217
3 217 233 218
3 218 234 219
3 219 235 220
3 220 236 221
3 222 238 223
3 223 239 224
3 225 224 241
3 226 225 242
3 227 226 243
3 228 227 244
3 229 228 245
3 229 245 230
3 230 246 231
3 231 247 232
3 232 248 233
3 233 249 234
3 234 250 235
3 235 251 236
3 236 252 237
