ply
format ascii 1.0
comment Created by Blender3D 249 - www.blender.org, source file: test_tree.blend
element vertex 430
property float x
property float y
property float z
property float nx
property float ny
property float nz
property float s
property float t
element face 176
property list uchar uint vertex_indices
end_header
-1.997432 -0.029943 2.627475 1.000000 -0.000000 0.000000 0.896739 0.590745 
-1.997432 -0.029943 2.728637 1.000000 -0.000000 0.000000 0.920052 0.590745 
-1.997432 -0.127131 2.728637 1.000000 -0.000000 0.000000 0.920052 0.639024 
-1.997432 -0.029943 2.627475 1.000000 -0.000000 0.000000 0.895738 0.591746 
-1.997432 -0.127131 2.728637 1.000000 -0.000000 0.000000 0.919051 0.640025 
-1.997432 -0.127131 2.627475 1.000000 -0.000000 0.000000 0.895738 0.640025 
-0.250000 0.109860 3.159727 -0.291374 0.000000 0.956609 0.528318 0.180488 
-1.997432 -0.029943 2.627475 -0.291374 0.000000 0.956609 0.630578 0.382613 
-0.250000 -0.109860 3.159727 -0.291374 0.000000 0.956609 0.630578 0.180488 
-1.997432 -0.029943 2.627475 -0.291374 0.000000 0.956609 0.314788 0.074921 
-1.997432 -0.127131 2.627475 -0.291374 0.000000 0.956609 0.314788 0.026642 
-0.250000 -0.109860 3.159727 -0.291374 0.000000 0.956609 0.107265 0.026642 
-0.250000 -0.109860 3.159727 -0.009883 0.999951 0.000000 0.998999 0.485177 
-1.997432 -0.127131 2.627475 -0.009883 0.999951 0.000000 0.975686 0.283052 
-1.997432 -0.127131 2.728637 -0.009883 0.999951 0.000000 0.998999 0.283052 
-0.250000 -0.109860 3.159727 -0.009883 0.999951 0.000000 0.525315 0.026642 
-1.997432 -0.127131 2.728637 -0.009883 0.999951 0.000000 0.317791 0.026642 
-0.250000 -0.109860 3.388431 -0.009883 0.999951 0.000000 0.525315 0.074921 
-0.250000 -0.109860 3.388431 0.353238 0.000000 -0.935534 0.313787 0.075922 
-1.997432 -0.127131 2.728637 0.353238 0.000000 -0.935534 0.106264 0.075922 
-1.997432 -0.029943 2.728637 0.353238 0.000000 -0.935534 0.106264 0.027643 
-0.250000 -0.109860 3.388431 0.353238 -0.000000 -0.935534 0.527317 0.383614 
-1.997432 -0.029943 2.728637 0.353238 -0.000000 -0.935534 0.527317 0.181489 
-0.250000 0.109860 3.388431 0.353238 -0.000000 -0.935534 0.629577 0.383614 
-0.250000 0.109860 3.388431 0.079750 -0.996815 -0.000000 0.316790 0.027643 
-1.997432 -0.029943 2.728637 0.079750 -0.996815 -0.000000 0.524314 0.075922 
-0.250000 0.109860 3.159727 0.079750 -0.996815 -0.000000 0.316790 0.075922 
-1.997432 -0.029943 2.728637 0.079750 -0.996815 -0.000000 0.974685 0.486178 
-1.997432 -0.029943 2.627475 0.079750 -0.996815 -0.000000 0.997998 0.486178 
-0.250000 0.109860 3.159727 0.079750 -0.996815 -0.000000 0.974685 0.284053 
1.310715 1.248726 1.996416 -0.707107 -0.707106 -0.000000 0.923055 0.590745 
1.310715 1.248726 2.097578 -0.707107 -0.707106 -0.000000 0.946367 0.590745 
1.248727 1.310714 2.097578 -0.707107 -0.707106 -0.000000 0.946367 0.639024 
1.310715 1.248726 1.996416 -0.707107 -0.707106 0.000000 0.922054 0.591746 
1.248727 1.310714 2.097578 -0.707107 -0.707106 0.000000 0.945366 0.640025 
1.248727 1.310714 1.996416 -0.707107 -0.707106 0.000000 0.922054 0.640025 
0.250000 0.109860 3.159727 0.423520 0.423519 0.800789 0.528318 0.026642 
1.310715 1.248726 1.996416 0.423520 0.423519 0.800789 0.735841 0.026642 
1.248727 1.310714 1.996416 0.423520 0.423519 0.800789 0.735841 0.074921 
0.250000 0.109860 3.159727 0.423520 0.423519 0.800789 0.002002 0.180488 
1.248727 1.310714 1.996416 0.423520 0.423519 0.800789 0.104262 0.382613 
0.109860 0.250000 3.159727 0.423520 0.423519 0.800789 0.104262 0.180488 
0.109860 0.250000 3.159727 0.681552 -0.731769 0.000000 0.998999 0.280049 
1.248727 1.310714 1.996416 0.681552 -0.731769 0.000000 0.975686 0.077924 
1.248727 1.310714 2.097578 0.681552 -0.731769 0.000000 0.998999 0.077924 
0.109860 0.250000 3.159727 0.681552 -0.731769 0.000000 0.946367 0.026642 
1.248727 1.310714 2.097578 0.681552 -0.731769 0.000000 0.738844 0.026642 
0.109860 0.250000 3.388431 0.681552 -0.731769 0.000000 0.946367 0.074921 
0.109860 0.250000 3.388431 -0.451592 -0.451591 -0.769500 0.734840 0.075922 
1.248727 1.310714 2.097578 -0.451592 -0.451591 -0.769500 0.527317 0.075922 
1.310715 1.248726 2.097578 -0.451592 -0.451591 -0.769500 0.527317 0.027643 
0.109860 0.250000 3.388431 -0.451591 -0.451591 -0.769500 0.103261 0.383614 
1.310715 1.248726 2.097578 -0.451591 -0.451591 -0.769500 0.001001 0.181489 
0.250000 0.109860 3.388431 -0.451591 -0.451591 -0.769500 0.001001 0.383614 
0.250000 0.109860 3.388431 -0.731769 0.681553 0.000000 0.737843 0.027643 
1.310715 1.248726 2.097578 -0.731769 0.681553 0.000000 0.945366 0.075922 
0.250000 0.109860 3.159727 -0.731769 0.681553 0.000000 0.737843 0.075922 
1.310715 1.248726 2.097578 -0.731769 0.681553 0.000000 0.974685 0.281050 
1.310715 1.248726 1.996416 -0.731769 0.681553 0.000000 0.997998 0.281050 
0.250000 0.109860 3.159727 -0.731769 0.681553 0.000000 0.974685 0.078925 
1.248726 -1.467790 2.615733 -0.707107 0.707107 0.000000 0.949370 0.898437 
1.248726 -1.467790 2.716894 -0.707107 0.707107 0.000000 0.972683 0.898437 
1.310714 -1.405802 2.716894 -0.707107 0.707107 0.000000 0.972683 0.946716 
1.248726 -1.467790 2.615733 -0.707107 0.707107 0.000000 0.948369 0.899438 
1.310714 -1.405802 2.716894 -0.707107 0.707107 0.000000 0.971682 0.947717 
1.310714 -1.405802 2.615733 -0.707107 0.707107 0.000000 0.948369 0.947717 
0.109860 -0.250000 3.159727 0.219437 -0.219437 0.950629 0.893736 0.690306 
1.248726 -1.467790 2.615733 0.219437 -0.219437 0.950629 0.844107 0.488180 
1.310714 -1.405802 2.615733 0.219437 -0.219437 0.950629 0.893736 0.488180 
0.109860 -0.250000 3.159727 0.219436 -0.219437 0.950629 0.420052 0.283052 
1.310714 -1.405802 2.615733 0.219436 -0.219437 0.950629 0.212528 0.283052 
0.250000 -0.109860 3.159727 0.219436 -0.219437 0.950629 0.420052 0.382613 
0.250000 -0.109860 3.159727 -0.773841 -0.633380 -0.000000 0.998999 0.895434 
1.310714 -1.405802 2.615733 -0.773841 -0.633380 -0.000000 0.975686 0.693309 
1.310714 -1.405802 2.716894 -0.773841 -0.633380 -0.000000 0.998999 0.693309 
0.250000 -0.109860 3.159727 -0.773841 -0.633380 0.000000 0.314788 0.077924 
1.310714 -1.405802 2.716894 -0.773841 -0.633380 0.000000 0.107265 0.077924 
0.250000 -0.109860 3.388431 -0.773841 -0.633380 0.000000 0.314788 0.126203 
0.250000 -0.109860 3.388431 -0.264299 0.264300 -0.927519 0.211527 0.284053 
1.310714 -1.405802 2.716894 -0.264299 0.264300 -0.927519 0.419051 0.383614 
0.109860 -0.250000 3.388431 -0.264299 0.264300 -0.927519 0.211527 0.383614 
1.310714 -1.405802 2.716894 -0.264299 0.264299 -0.927519 0.843106 0.691307 
1.248726 -1.467790 2.716894 -0.264299 0.264299 -0.927519 0.892735 0.691307 
0.109860 -0.250000 3.388431 -0.264299 0.264299 -0.927519 0.843106 0.489182 
0.109860 -0.250000 3.388431 0.730378 0.683043 0.000000 0.106264 0.078925 
1.248726 -1.467790 2.716894 0.730378 0.683043 0.000000 0.313787 0.127204 
0.109860 -0.250000 3.159727 0.730378 0.683043 0.000000 0.106264 0.127204 
1.248726 -1.467790 2.716894 0.730378 0.683043 -0.000000 0.974685 0.896435 
1.248726 -1.467790 2.615733 0.730378 0.683043 -0.000000 0.997998 0.896435 
0.109860 -0.250000 3.159727 0.730378 0.683043 -0.000000 0.974685 0.694310 
1.840357 -0.127132 4.227724 -1.000000 -0.000000 -0.000000 0.975686 0.898437 
1.840357 -0.127132 4.308578 -1.000000 -0.000000 -0.000000 0.998999 0.898437 
1.840357 -0.029944 4.308578 -1.000000 -0.000000 -0.000000 0.998999 0.946716 
1.840357 -0.127132 4.227724 -1.000000 -0.000000 0.000000 0.974685 0.899438 
1.840357 -0.029944 4.308578 -1.000000 -0.000000 0.000000 0.997998 0.947717 
1.840357 -0.029944 4.227724 -1.000000 -0.000000 0.000000 0.974685 0.947717 
0.250000 -0.109860 4.190610 -0.023330 0.000000 0.999728 0.317791 0.077924 
1.840357 -0.127132 4.227724 -0.023330 0.000000 0.999728 0.525315 0.077924 
1.840357 -0.029944 4.227724 -0.023330 0.000000 0.999728 0.525315 0.126203 
0.250000 -0.109860 4.190610 -0.023330 0.000000 0.999728 0.525315 0.180488 
1.840357 -0.029944 4.227724 -0.023330 0.000000 0.999728 0.525315 0.382613 
0.250000 0.109860 4.190610 -0.023330 0.000000 0.999728 0.423055 0.180488 
0.250000 0.109860 4.190610 -0.087569 -0.996158 -0.000000 0.972683 0.485177 
1.840357 -0.029944 4.227724 -0.087569 -0.996158 -0.000000 0.972683 0.283052 
1.840357 -0.029944 4.308578 -0.087569 -0.996158 -0.000000 0.949370 0.283052 
0.250000 0.109860 4.190610 -0.087569 -0.996158 0.000000 0.316790 0.078925 
1.840357 -0.029944 4.308578 -0.087569 -0.996158 0.000000 0.524314 0.127204 
0.250000 0.109860 4.373402 -0.087569 -0.996158 0.000000 0.316790 0.127204 
0.250000 0.109860 4.373402 -0.040727 0.000000 -0.999170 0.524314 0.383614 
1.840357 -0.029944 4.308578 -0.040727 0.000000 -0.999170 0.422054 0.181489 
0.250000 -0.109860 4.373402 -0.040727 0.000000 -0.999170 0.422054 0.383614 
1.840357 -0.029944 4.308578 -0.040727 0.000000 -0.999170 0.735841 0.126203 
1.840357 -0.127132 4.308578 -0.040727 0.000000 -0.999170 0.735841 0.077924 
0.250000 -0.109860 4.373402 -0.040727 0.000000 -0.999170 0.528318 0.077924 
0.250000 -0.109860 4.373402 0.010860 0.999941 0.000000 0.527317 0.127204 
1.840357 -0.127132 4.308578 0.010860 0.999941 0.000000 0.734840 0.127204 
0.250000 -0.109860 4.190610 0.010860 0.999941 0.000000 0.527317 0.078925 
1.840357 -0.127132 4.308578 0.010860 0.999941 -0.000000 0.971682 0.486178 
1.840357 -0.127132 4.227724 0.010860 0.999941 -0.000000 0.948369 0.486178 
0.250000 -0.109860 4.190610 0.010860 0.999941 -0.000000 0.948369 0.284053 
-1.467789 -1.405801 4.227724 0.707107 0.707106 0.000000 0.975686 0.949719 
-1.467789 -1.405801 4.308578 0.707107 0.707106 0.000000 0.998999 0.949719 
-1.405802 -1.467789 4.308578 0.707107 0.707106 0.000000 0.998999 0.997998 
-1.467789 -1.405801 4.227724 0.707107 0.707106 -0.000000 0.972683 0.997998 
-1.405802 -1.467789 4.308578 0.707107 0.707106 -0.000000 0.949370 0.949719 
-1.405802 -1.467789 4.227724 0.707107 0.707106 -0.000000 0.972683 0.949719 
-0.250000 -0.109860 4.190610 0.014761 0.014761 0.999782 0.735841 0.693309 
-1.467789 -1.405801 4.227724 0.014761 0.014761 0.999782 0.735841 0.895434 
-0.109860 -0.250000 4.190610 0.014761 0.014761 0.999782 0.633581 0.693309 
-1.467789 -1.405801 4.227724 0.014761 0.014761 0.999782 0.946367 0.126203 
-1.405802 -1.467789 4.227724 0.014761 0.014761 0.999782 0.946367 0.077924 
-0.109860 -0.250000 4.190610 0.014761 0.014761 0.999782 0.738844 0.077924 
-0.109860 -0.250000 4.190610 -0.684792 0.728739 0.000000 0.972683 0.280049 
-1.405802 -1.467789 4.227724 -0.684792 0.728739 0.000000 0.972683 0.077924 
-1.405802 -1.467789 4.308578 -0.684792 0.728739 0.000000 0.949370 0.077924 
-0.109860 -0.250000 4.190610 -0.684792 0.728739 0.000000 0.946367 0.177485 
-1.405802 -1.467789 4.308578 -0.684792 0.728739 0.000000 0.738844 0.129206 
-0.109860 -0.250000 4.373402 -0.684792 0.728739 0.000000 0.946367 0.129206 
-0.109860 -0.250000 4.373402 0.025771 0.025771 -0.999336 0.945366 0.127204 
-1.405802 -1.467789 4.308578 0.025771 0.025771 -0.999336 0.737843 0.127204 
-1.467789 -1.405801 4.308578 0.025771 0.025771 -0.999336 0.737843 0.078925 
-0.109860 -0.250000 4.373402 0.025771 0.025771 -0.999336 0.734840 0.896435 
-1.467789 -1.405801 4.308578 0.025771 0.025771 -0.999336 0.632580 0.694310 
-0.250000 -0.109860 4.373402 0.025771 0.025771 -0.999336 0.632580 0.896435 
-0.250000 -0.109860 4.373402 0.728739 -0.684792 -0.000000 0.737843 0.178486 
-1.467789 -1.405801 4.308578 0.728739 -0.684792 -0.000000 0.945366 0.178486 
-0.250000 -0.109860 4.190610 0.728739 -0.684792 -0.000000 0.737843 0.130207 
-1.467789 -1.405801 4.308578 0.728739 -0.684792 0.000000 0.971682 0.281050 
-1.467789 -1.405801 4.227724 0.728739 -0.684792 0.000000 0.948369 0.281050 
-0.250000 -0.109860 4.190610 0.728739 -0.684792 0.000000 0.948369 0.078925 
-1.405801 1.310714 4.227724 0.707106 -0.707107 0.000000 0.971682 0.998999 
-1.405801 1.310714 4.308578 0.707106 -0.707107 0.000000 0.948369 0.998999 
-1.467789 1.248727 4.308578 0.707106 -0.707107 0.000000 0.948369 0.950720 
-1.405801 1.310714 4.227724 0.707106 -0.707107 0.000000 0.974685 0.950720 
-1.467789 1.248727 4.308578 0.707106 -0.707107 0.000000 0.997998 0.998999 
-1.467789 1.248727 4.227724 0.707106 -0.707107 0.000000 0.974685 0.998999 
-0.109860 0.250000 4.190610 0.015745 -0.015745 0.999752 0.735841 0.997998 
-1.405801 1.310714 4.227724 0.015745 -0.015745 0.999752 0.528318 0.898437 
-0.250000 0.109860 4.190610 0.015745 -0.015745 0.999752 0.735841 0.898437 
-1.405801 1.310714 4.227724 0.015745 -0.015745 0.999752 0.841104 0.283052 
-1.467789 1.248727 4.227724 0.015745 -0.015745 0.999752 0.791476 0.283052 
-0.250000 0.109860 4.190610 0.015745 -0.015745 0.999752 0.841104 0.485177 
-0.250000 0.109860 4.190610 0.683044 0.730378 0.000000 0.107265 0.001001 
-1.467789 1.248727 4.227724 0.683044 0.730378 0.000000 0.314788 0.001001 
-1.467789 1.248727 4.308578 0.683044 0.730378 0.000000 0.314788 0.023639 
-0.250000 0.109860 4.190610 0.683044 0.730378 0.000000 0.844107 0.283052 
-1.467789 1.248727 4.308578 0.683044 0.730378 0.000000 0.893736 0.485177 
-0.250000 0.109860 4.373402 0.683044 0.730378 0.000000 0.893736 0.283052 
-0.250000 0.109860 4.373402 0.027486 -0.027486 -0.999244 0.107265 0.129206 
-1.467789 1.248727 4.308578 0.027486 -0.027486 -0.999244 0.314788 0.177485 
-1.405801 1.310714 4.308578 0.027486 -0.027486 -0.999244 0.314788 0.129206 
-0.250000 0.109860 4.373402 0.027486 -0.027486 -0.999244 0.527317 0.998999 
-1.405801 1.310714 4.308578 0.027486 -0.027486 -0.999244 0.734840 0.998999 
-0.109860 0.250000 4.373402 0.027486 -0.027486 -0.999244 0.527317 0.899438 
-0.109860 0.250000 4.373402 -0.633380 -0.773841 -0.000000 0.843106 0.486178 
-1.405801 1.310714 4.308578 -0.633380 -0.773841 -0.000000 0.843106 0.284053 
-0.109860 0.250000 4.190610 -0.633380 -0.773841 -0.000000 0.892735 0.486178 
-1.405801 1.310714 4.308578 -0.633380 -0.773841 0.000000 0.106264 0.002002 
-1.405801 1.310714 4.227724 -0.633380 -0.773841 0.000000 0.106264 0.024640 
-0.109860 0.250000 4.190610 -0.633380 -0.773841 0.000000 0.313787 0.024640 
-1.997432 -0.029944 4.646950 1.000000 -0.000000 0.000000 0.159897 0.180488 
-1.997432 -0.029944 4.715079 1.000000 -0.000000 0.000000 0.183210 0.180488 
-1.997432 -0.127131 4.715079 1.000000 -0.000000 0.000000 0.183210 0.228767 
-1.997432 -0.029944 4.646950 1.000000 -0.000000 0.000000 0.158896 0.181489 
-1.997432 -0.127131 4.715079 1.000000 -0.000000 0.000000 0.182209 0.229768 
-1.997432 -0.127131 4.646950 1.000000 -0.000000 0.000000 0.158896 0.229768 
-0.161759 0.071083 5.165568 -0.271880 0.000000 0.962331 0.946367 0.946716 
-1.997432 -0.029944 4.646950 -0.271880 0.000000 0.962331 0.738844 0.898437 
-0.161759 -0.071083 5.165568 -0.271880 0.000000 0.962331 0.946367 0.898437 
-1.997432 -0.029944 4.646950 -0.271880 0.000000 0.962331 0.841104 0.488180 
-1.997432 -0.127131 4.646950 -0.271880 0.000000 0.962331 0.791476 0.488180 
-0.161759 -0.071083 5.165568 -0.271880 0.000000 0.962331 0.841104 0.690306 
-0.161759 -0.071083 5.165568 -0.030518 0.999534 0.000000 0.317791 0.001001 
-1.997432 -0.127131 4.646950 -0.030518 0.999534 0.000000 0.525315 0.023639 
-1.997432 -0.127131 4.715079 -0.030518 0.999534 0.000000 0.525315 0.001001 
-0.161759 -0.071083 5.165568 -0.030518 0.999534 0.000000 0.972683 0.693309 
-1.997432 -0.127131 4.715079 -0.030518 0.999534 0.000000 0.972683 0.895434 
-0.161759 -0.071083 5.265228 -0.030518 0.999534 0.000000 0.949370 0.693309 
-0.161759 -0.071083 5.265228 0.287083 0.000000 -0.957906 0.738844 0.949719 
-1.997432 -0.127131 4.715079 0.287083 0.000000 -0.957906 0.946367 0.997998 
-1.997432 -0.029944 4.715079 0.287083 0.000000 -0.957906 0.946367 0.949719 
-0.161759 -0.071083 5.265228 0.287083 0.000000 -0.957906 0.841104 0.693309 
-1.997432 -0.029944 4.715079 0.287083 0.000000 -0.957906 0.841104 0.895434 
-0.161759 0.071083 5.265228 0.287083 0.000000 -0.957906 0.791476 0.693309 
-0.161759 0.071083 5.265228 0.054952 -0.998489 0.000000 0.735841 0.023639 
-1.997432 -0.029944 4.715079 0.054952 -0.998489 0.000000 0.528318 0.001001 
-0.161759 0.071083 5.165568 0.054952 -0.998489 0.000000 0.735841 0.001001 
-1.997432 -0.029944 4.715079 0.054952 -0.998489 0.000000 0.946367 0.693309 
-1.997432 -0.029944 4.646950 0.054952 -0.998489 0.000000 0.923055 0.693309 
-0.161759 0.071083 5.165568 0.054952 -0.998489 0.000000 0.946367 0.895434 
-0.029944 -1.997432 4.715079 0.000000 1.000000 0.000000 0.186213 0.180488 
-0.029944 -1.997432 4.646950 0.000000 1.000000 0.000000 0.209525 0.180488 
-0.127132 -1.997432 4.646950 0.000000 1.000000 0.000000 0.209525 0.228767 
-0.029944 -1.997432 4.715079 -0.000000 1.000000 0.000000 0.185212 0.181489 
-0.127132 -1.997432 4.646950 -0.000000 1.000000 0.000000 0.208524 0.229768 
-0.127132 -1.997432 4.715079 -0.000000 1.000000 0.000000 0.185212 0.229768 
0.071083 -0.161759 5.265228 0.000000 0.287083 -0.957906 0.840103 0.896435 
-0.029944 -1.997432 4.715079 0.000000 0.287083 -0.957906 0.790475 0.694310 
-0.071083 -0.161759 5.265228 0.000000 0.287083 -0.957906 0.790475 0.896435 
-0.029944 -1.997432 4.715079 0.000000 0.287083 -0.957906 0.737843 0.998999 
-0.127132 -1.997432 4.715079 0.000000 0.287083 -0.957906 0.737843 0.950720 
-0.071083 -0.161759 5.265228 0.000000 0.287083 -0.957906 0.945366 0.998999 
-0.071083 -0.161759 5.265228 0.999534 -0.030519 0.000000 0.971682 0.896435 
-0.127132 -1.997432 4.715079 0.999534 -0.030519 0.000000 0.948369 0.694310 
-0.071083 -0.161759 5.165568 0.999534 -0.030519 0.000000 0.948369 0.896435 
-0.127132 -1.997432 4.715079 0.999534 -0.030519 0.000000 0.316790 0.024640 
-0.127132 -1.997432 4.646950 0.999534 -0.030519 0.000000 0.316790 0.002002 
-0.071083 -0.161759 5.165568 0.999534 -0.030519 0.000000 0.524314 0.024640 
-0.071083 -0.161759 5.165568 0.000000 -0.271880 0.962331 0.790475 0.489182 
-0.127132 -1.997432 4.646950 0.000000 -0.271880 0.962331 0.840103 0.691307 
-0.029944 -1.997432 4.646950 0.000000 -0.271880 0.962331 0.790475 0.691307 
-0.071083 -0.161759 5.165568 -0.000000 -0.271880 0.962331 0.737843 0.947717 
-0.029944 -1.997432 4.646950 -0.000000 -0.271880 0.962331 0.945366 0.947717 
0.071083 -0.161759 5.165568 -0.000000 -0.271880 0.962331 0.737843 0.899438 
0.071083 -0.161759 5.165568 -0.998489 0.054953 0.000000 0.922054 0.694310 
-0.029944 -1.997432 4.646950 -0.998489 0.054953 0.000000 0.945366 0.896435 
-0.029944 -1.997432 4.715079 -0.998489 0.054953 0.000000 0.922054 0.896435 
0.071083 -0.161759 5.165568 -0.998489 0.054953 0.000000 0.527317 0.024640 
-0.029944 -1.997432 4.715079 -0.998489 0.054953 0.000000 0.734840 0.024640 
0.071083 -0.161759 5.265228 -0.998489 0.054953 0.000000 0.527317 0.002002 
1.310715 1.248726 4.646950 -0.707107 -0.707106 -0.000000 0.107265 0.180488 
1.310715 1.248726 4.715079 -0.707107 -0.707106 -0.000000 0.130578 0.180488 
1.248727 1.310714 4.715079 -0.707107 -0.707106 -0.000000 0.130578 0.228767 
1.310715 1.248726 4.646950 -0.707107 -0.707106 0.000000 0.106264 0.181489 
1.248727 1.310714 4.715079 -0.707107 -0.707106 0.000000 0.129577 0.229768 
1.248727 1.310714 4.646950 -0.707107 -0.707106 0.000000 0.106264 0.229768 
0.161759 0.071083 5.165568 0.212595 0.212595 0.953733 0.788473 0.693309 
1.310715 1.248726 4.646950 0.212595 0.212595 0.953733 0.788473 0.895434 
0.071083 0.161759 5.165568 0.212595 0.212595 0.953733 0.738844 0.693309 
1.310715 1.248726 4.646950 0.212595 0.212595 0.953733 0.840103 0.486178 
1.248727 1.310714 4.646950 0.212595 0.212595 0.953733 0.790475 0.486178 
0.071083 0.161759 5.165568 0.212595 0.212595 0.953733 0.790475 0.284053 
0.071083 0.161759 5.165568 0.698335 -0.715772 0.000000 0.920052 0.895434 
1.248727 1.310714 4.646950 0.698335 -0.715772 0.000000 0.896739 0.693309 
1.248727 1.310714 4.715079 0.698335 -0.715772 0.000000 0.920052 0.693309 
0.071083 0.161759 5.165568 0.698335 -0.715772 0.000000 0.946367 0.001001 
1.248727 1.310714 4.715079 0.698335 -0.715772 0.000000 0.738844 0.001001 
0.071083 0.161759 5.265228 0.698335 -0.715772 0.000000 0.946367 0.023639 
0.071083 0.161759 5.265228 -0.224254 -0.224254 -0.948378 0.313787 0.178486 
1.248727 1.310714 4.715079 -0.224254 -0.224254 -0.948378 0.106264 0.178486 
1.310715 1.248726 4.715079 -0.224254 -0.224254 -0.948378 0.106264 0.130207 
0.071083 0.161759 5.265228 -0.224254 -0.224254 -0.948378 0.787472 0.896435 
1.310715 1.248726 4.715079 -0.224254 -0.224254 -0.948378 0.737843 0.694310 
0.161759 0.071083 5.265228 -0.224254 -0.224254 -0.948378 0.737843 0.896435 
0.161759 0.071083 5.265228 -0.715771 0.698335 0.000000 0.737843 0.002002 
1.310715 1.248726 4.715079 -0.715771 0.698335 0.000000 0.945366 0.024640 
0.161759 0.071083 5.165568 -0.715771 0.698335 0.000000 0.737843 0.024640 
1.310715 1.248726 4.715079 -0.715771 0.698335 0.000000 0.895738 0.896435 
1.310715 1.248726 4.646950 -0.715771 0.698335 0.000000 0.919051 0.896435 
0.161759 0.071083 5.165568 -0.715771 0.698335 0.000000 0.895738 0.694310 
0.071083 -0.161759 5.265228 -0.697783 0.697783 -0.161859 0.184180 0.168114 
-0.000000 -0.000000 6.269022 -0.697783 0.697783 -0.161859 0.202421 0.020330 
0.161759 -0.071083 5.265228 -0.697783 0.697783 -0.161859 0.218987 0.168114 
0.071083 -0.161759 5.165568 -0.707107 0.707107 0.000000 0.184180 0.182786 
0.071083 -0.161759 5.265228 -0.707107 0.707107 0.000000 0.184180 0.168114 
0.161759 -0.071083 5.265228 -0.707107 0.707107 0.000000 0.218987 0.168114 
0.161759 -0.071083 5.165568 -0.707107 0.707107 0.000000 0.218987 0.182786 
0.161759 0.071083 5.265228 -0.697783 -0.697783 -0.161859 0.257793 0.168114 
-0.000000 -0.000000 6.269022 -0.697783 -0.697783 -0.161859 0.202421 0.020330 
0.071083 0.161759 5.265228 -0.697783 -0.697783 -0.161859 0.292599 0.168114 
-0.071083 0.161759 5.265228 0.697783 -0.697783 -0.161859 0.331406 0.168114 
-0.000000 -0.000000 6.269022 0.697783 -0.697783 -0.161859 0.202421 0.020330 
-0.161759 0.071083 5.265228 0.697783 -0.697783 -0.161859 0.071761 0.168114 
-0.071083 0.161759 5.165568 0.707107 -0.707107 0.000000 0.036955 0.182786 
-0.071083 0.161759 5.265228 0.707107 -0.707107 0.000000 0.036955 0.168114 
-0.161759 0.071083 5.265228 0.707107 -0.707107 0.000000 0.071761 0.168114 
-0.161759 0.071083 5.165568 0.707107 -0.707107 0.000000 0.071761 0.182786 
-0.161759 -0.071083 5.265228 0.697783 0.697783 -0.161859 0.110568 0.168114 
-0.000000 -0.000000 6.269022 0.697783 0.697783 -0.161859 0.202421 0.020330 
-0.071083 -0.161759 5.265228 0.697783 0.697783 -0.161859 0.145374 0.168114 
-0.161759 -0.071083 5.165568 0.707107 0.707107 0.000000 0.110568 0.182786 
-0.161759 -0.071083 5.265228 0.707107 0.707107 0.000000 0.110568 0.168114 
-0.071083 -0.161759 5.265228 0.707107 0.707107 0.000000 0.145374 0.168114 
-0.071083 -0.161759 5.165568 0.707107 0.707107 -0.000000 0.145374 0.182786 
-0.000000 -0.000000 6.269022 0.000000 0.987263 -0.159095 0.202421 0.020330 
0.071083 -0.161759 5.265228 0.000000 0.987263 -0.159095 0.184180 0.168114 
-0.071083 -0.161759 5.265228 0.000000 0.987263 -0.159095 0.145374 0.168114 
0.161759 -0.071083 5.265228 -0.987263 0.000000 -0.159095 0.218987 0.168114 
-0.000000 -0.000000 6.269022 -0.987263 0.000000 -0.159095 0.202421 0.020330 
0.161759 0.071083 5.265228 -0.987263 0.000000 -0.159095 0.257793 0.168114 
0.161759 -0.071083 5.165568 -1.000000 0.000000 0.000000 0.218987 0.182786 
0.161759 -0.071083 5.265228 -1.000000 0.000000 0.000000 0.218987 0.168114 
0.161759 0.071083 5.265228 -1.000000 0.000000 0.000000 0.257793 0.168114 
0.161759 0.071083 5.165568 -1.000000 0.000000 0.000000 0.257793 0.182786 
0.071083 0.161759 5.265228 0.000000 -0.987263 -0.159095 0.292599 0.168114 
-0.000000 -0.000000 6.269022 0.000000 -0.987263 -0.159095 0.202421 0.020330 
-0.071083 0.161759 5.265228 0.000000 -0.987263 -0.159095 0.331406 0.168114 
0.071083 0.161759 5.165568 0.000000 -1.000000 0.000000 0.292599 0.182786 
0.071083 0.161759 5.265228 0.000000 -1.000000 0.000000 0.292599 0.168114 
-0.071083 0.161759 5.265228 0.000000 -1.000000 0.000000 0.331406 0.168114 
-0.071083 0.161759 5.165568 0.000000 -1.000000 0.000000 0.331406 0.182786 
-0.161759 0.071083 5.265228 0.987263 0.000000 -0.159095 0.071761 0.168114 
-0.000000 -0.000000 6.269022 0.987263 0.000000 -0.159095 0.202421 0.020330 
-0.161759 -0.071083 5.265228 0.987263 0.000000 -0.159095 0.110568 0.168114 
0.109860 -0.250000 4.373402 -0.702605 0.702605 -0.112657 0.184180 0.299413 
0.071083 -0.161759 5.165568 -0.702605 0.702605 -0.112657 0.184180 0.182786 
0.161759 -0.071083 5.165568 -0.702605 0.702605 -0.112657 0.218987 0.182786 
0.250000 -0.109860 4.373402 -0.702605 0.702605 -0.112657 0.218987 0.299413 
0.250000 0.109860 4.373402 -0.702606 -0.702605 -0.112657 0.257793 0.299413 
0.161759 0.071083 5.165568 -0.702606 -0.702605 -0.112657 0.257793 0.182786 
0.071083 0.161759 5.165568 -0.702606 -0.702605 -0.112657 0.292599 0.182786 
0.250000 0.109860 4.373402 -0.702605 -0.702605 -0.112657 0.257793 0.299413 
0.071083 0.161759 5.165568 -0.702605 -0.702605 -0.112657 0.292599 0.182786 
0.109860 0.250000 4.373402 -0.702605 -0.702605 -0.112657 0.292599 0.299413 
-0.109860 0.250000 4.373402 0.702605 -0.702605 -0.112657 0.036955 0.299413 
-0.071083 0.161759 5.165568 0.702605 -0.702605 -0.112657 0.036955 0.182786 
-0.161759 0.071083 5.165568 0.702605 -0.702605 -0.112657 0.071761 0.182786 
-0.250000 0.109860 4.373402 0.702605 -0.702605 -0.112657 0.071761 0.299413 
-0.250000 -0.109860 4.373402 0.702605 0.702605 -0.112657 0.110567 0.299413 
-0.161759 -0.071083 5.165568 0.702605 0.702605 -0.112657 0.110568 0.182786 
-0.071083 -0.161759 5.165568 0.702605 0.702605 -0.112657 0.145374 0.182786 
-0.109860 -0.250000 4.373402 0.702605 0.702605 -0.112657 0.145374 0.299413 
0.071083 -0.161759 5.165568 0.000000 0.993853 -0.110707 0.184180 0.182786 
0.109860 -0.250000 4.373402 0.000000 0.993853 -0.110707 0.184180 0.299413 
-0.109860 -0.250000 4.373402 0.000000 0.993853 -0.110707 0.145374 0.299413 
-0.071083 -0.161759 5.165568 0.000000 0.993853 -0.110707 0.145374 0.182786 
0.250000 -0.109860 4.373402 -0.993853 0.000000 -0.110707 0.218987 0.299413 
0.161759 -0.071083 5.165568 -0.993853 0.000000 -0.110707 0.218987 0.182786 
0.161759 0.071083 5.165568 -0.993853 0.000000 -0.110707 0.257793 0.182786 
0.250000 0.109860 4.373402 -0.993853 0.000000 -0.110707 0.257793 0.299413 
0.109860 0.250000 4.373402 0.000000 -0.993853 -0.110707 0.292599 0.299413 
0.071083 0.161759 5.165568 0.000000 -0.993853 -0.110707 0.292599 0.182786 
-0.071083 0.161759 5.165568 0.000000 -0.993853 -0.110707 0.331406 0.182786 
-0.109860 0.250000 4.373402 -0.000000 -0.993853 -0.110707 0.331406 0.299413 
-0.250000 0.109860 4.373402 0.993853 0.000000 -0.110707 0.071761 0.299413 
-0.161759 0.071083 5.165568 0.993853 0.000000 -0.110707 0.071761 0.182786 
-0.161759 -0.071083 5.165568 0.993853 0.000000 -0.110707 0.110568 0.182786 
-0.250000 -0.109860 4.373402 0.993853 -0.000000 -0.110707 0.110567 0.299413 
0.109860 -0.250000 4.190610 -0.707107 0.707107 0.000000 0.184180 0.326325 
0.109860 -0.250000 4.373402 -0.707107 0.707107 0.000000 0.184180 0.299413 
0.250000 -0.109860 4.373402 -0.707107 0.707107 0.000000 0.218987 0.299413 
0.250000 -0.109860 4.190610 -0.707107 0.707107 0.000000 0.218987 0.326325 
0.250000 0.109860 4.190610 -0.707107 -0.707107 -0.000000 0.257793 0.326325 
0.250000 0.109860 4.373402 -0.707107 -0.707107 -0.000000 0.257793 0.299413 
0.109860 0.250000 4.373402 -0.707107 -0.707107 -0.000000 0.292599 0.299413 
0.109860 0.250000 4.190610 -0.707107 -0.707107 0.000000 0.292599 0.326325 
0.109860 -0.250000 4.373402 0.000000 1.000000 -0.000000 0.184180 0.299413 
0.109860 -0.250000 4.190610 0.000000 1.000000 -0.000000 0.184180 0.326325 
-0.109860 -0.250000 4.190610 0.000000 1.000000 -0.000000 0.145374 0.326325 
-0.109860 -0.250000 4.373402 0.000000 1.000000 -0.000000 0.145374 0.299413 
0.109860 0.250000 4.190610 -0.000000 -1.000000 -0.000000 0.292599 0.326325 
0.109860 0.250000 4.373402 -0.000000 -1.000000 -0.000000 0.292599 0.299413 
-0.109860 0.250000 4.373402 -0.000000 -1.000000 -0.000000 0.331406 0.299413 
-0.109860 0.250000 4.190610 -0.000000 -1.000000 -0.000000 0.331406 0.326325 
-0.250000 0.109860 4.190610 1.000000 -0.000000 -0.000000 0.071761 0.326325 
-0.250000 0.109860 4.373402 1.000000 -0.000000 -0.000000 0.071761 0.299413 
-0.250000 -0.109860 4.373402 1.000000 -0.000000 -0.000000 0.110567 0.299413 
-0.250000 -0.109860 4.190610 1.000000 -0.000000 -0.000000 0.110567 0.326325 
0.109860 -0.250000 3.388431 -0.707107 0.707107 0.000000 0.184180 0.444426 
0.250000 -0.109860 3.388431 -0.707107 0.707107 0.000000 0.218987 0.444426 
0.250000 0.109860 3.388431 -0.707107 -0.707107 -0.000000 0.257793 0.444426 
0.109860 0.250000 3.388431 -0.707107 -0.707107 -0.000000 0.292599 0.444426 
-0.109860 0.250000 3.388431 0.707107 -0.707107 -0.000000 0.036955 0.444426 
-0.109860 0.250000 4.190610 0.707107 -0.707107 -0.000000 0.036955 0.326325 
-0.250000 0.109860 4.190610 0.707107 -0.707107 -0.000000 0.071761 0.326325 
-0.250000 0.109860 3.388431 0.707107 -0.707107 -0.000000 0.071761 0.444426 
-0.250000 -0.109860 3.388431 0.707107 0.707107 0.000000 0.110567 0.444426 
-0.250000 -0.109860 4.190610 0.707107 0.707107 0.000000 0.110567 0.326325 
-0.109860 -0.250000 4.190610 0.707107 0.707107 0.000000 0.145374 0.326325 
-0.109860 -0.250000 3.388431 0.707107 0.707107 -0.000000 0.145374 0.444426 
0.109860 -0.250000 3.388431 0.000000 1.000000 0.000000 0.184180 0.444426 
-0.109860 -0.250000 3.388431 0.000000 1.000000 0.000000 0.145374 0.444426 
0.250000 -0.109860 3.388431 -1.000000 0.000000 -0.000000 0.218987 0.444426 
0.250000 -0.109860 4.190610 -1.000000 0.000000 -0.000000 0.218987 0.326325 
0.250000 0.109860 4.190610 -1.000000 0.000000 -0.000000 0.257793 0.326325 
0.250000 0.109860 3.388431 -1.000000 0.000000 -0.000000 0.257793 0.444426 
0.109860 0.250000 3.388431 -0.000000 -1.000000 -0.000000 0.292599 0.444426 
-0.109860 0.250000 3.388431 -0.000000 -1.000000 -0.000000 0.331406 0.444426 
-0.250000 0.109860 3.388431 1.000000 -0.000000 0.000000 0.071761 0.444426 
-0.250000 -0.109860 3.388431 1.000000 -0.000000 -0.000000 0.110567 0.444426 
-0.109860 0.250000 3.159727 0.707107 -0.707107 0.000000 0.036955 0.478097 
-0.250000 0.109860 3.159727 0.707107 -0.707107 -0.000000 0.071761 0.478097 
-0.250000 -0.109860 3.159727 0.707107 0.707107 0.000000 0.110567 0.478097 
-0.109860 -0.250000 3.159727 0.707107 0.707107 -0.000000 0.145374 0.478097 
0.109860 -0.250000 3.159727 0.000000 1.000000 -0.000000 0.184180 0.478097 
-0.109860 -0.250000 3.159727 0.000000 1.000000 -0.000000 0.145374 0.478097 
0.250000 -0.109860 3.159727 -1.000000 0.000000 0.000000 0.218987 0.478097 
0.250000 0.109860 3.159727 -1.000000 0.000000 0.000000 0.257793 0.478097 
0.109860 0.250000 3.159727 -0.000000 -1.000000 -0.000000 0.292599 0.478097 
-0.109860 0.250000 3.159727 -0.000000 -1.000000 -0.000000 0.331406 0.478097 
0.109860 -0.250000 0.000000 -0.707107 0.707107 -0.000000 0.184180 0.943289 
0.109860 -0.250000 3.159727 -0.707107 0.707107 -0.000000 0.184180 0.478097 
0.250000 -0.109860 3.159727 -0.707107 0.707107 -0.000000 0.218987 0.478097 
0.250000 -0.109860 0.000000 -0.707107 0.707107 0.000000 0.218987 0.943289 
0.250000 0.109860 0.000000 -0.707107 -0.707107 -0.000000 0.257793 0.943289 
0.250000 0.109860 3.159727 -0.707107 -0.707107 -0.000000 0.257793 0.478097 
0.109860 0.250000 3.159727 -0.707107 -0.707107 -0.000000 0.292599 0.478097 
0.109860 0.250000 0.000000 -0.707107 -0.707107 -0.000000 0.292599 0.943289 
-0.109859 0.250000 0.000000 0.707107 -0.707107 0.000000 0.036955 0.943289 
-0.109859 0.250000 0.000000 0.707106 -0.707107 -0.000000 0.036955 0.943289 
-0.250000 0.109860 3.159727 0.707106 -0.707107 -0.000000 0.071761 0.478097 
-0.250000 0.109860 0.000000 0.707106 -0.707107 -0.000000 0.071761 0.943289 
-0.250000 -0.109860 0.000000 0.707107 0.707107 0.000000 0.110567 0.943289 
-0.250000 -0.109860 0.000000 0.707107 0.707106 -0.000000 0.110567 0.943289 
-0.109860 -0.250000 3.159727 0.707107 0.707106 -0.000000 0.145374 0.478097 
-0.109860 -0.250000 0.000000 0.707107 0.707106 -0.000000 0.145374 0.943289 
0.109860 -0.250000 0.000000 0.000000 1.000000 0.000000 0.184180 0.943289 
-0.109860 -0.250000 0.000000 0.000000 1.000000 0.000000 0.145374 0.943289 
0.250000 -0.109860 0.000000 -1.000000 0.000000 -0.000000 0.218987 0.943289 
0.250000 0.109860 0.000000 -1.000000 0.000000 -0.000000 0.257793 0.943289 
0.109860 0.250000 0.000000 -0.000000 -1.000000 -0.000000 0.292599 0.943289 
0.109860 0.250000 0.000000 -0.000001 -1.000000 -0.000000 0.292599 0.943289 
-0.109860 0.250000 3.159727 -0.000001 -1.000000 -0.000000 0.331406 0.478097 
-0.109859 0.250000 0.000000 -0.000001 -1.000000 -0.000000 0.331406 0.943289 
-0.250000 0.109860 0.000000 1.000000 -0.000000 0.000000 0.071761 0.943289 
-0.250000 0.109860 3.159727 1.000000 -0.000000 0.000000 0.071761 0.478097 
-0.250000 -0.109860 3.159727 1.000000 -0.000000 0.000000 0.110567 0.478097 
-0.250000 0.109860 0.000000 1.000000 -0.000001 -0.000000 0.071761 0.943289 
-0.250000 -0.109860 3.159727 1.000000 -0.000001 -0.000000 0.110567 0.478097 
-0.250000 -0.109860 0.000000 1.000000 -0.000001 -0.000000 0.110567 0.943289 
3 0 1 2 
3 3 4 5 
3 6 7 8 
3 9 10 11 
3 12 13 14 
3 15 16 17 
3 18 19 20 
3 21 22 23 
3 24 25 26 
3 27 28 29 
3 30 31 32 
3 33 34 35 
3 36 37 38 
3 39 40 41 
3 42 43 44 
3 45 46 47 
3 48 49 50 
3 51 52 53 
3 54 55 56 
3 57 58 59 
3 60 61 62 
3 63 64 65 
3 66 67 68 
3 69 70 71 
3 72 73 74 
3 75 76 77 
3 78 79 80 
3 81 82 83 
3 84 85 86 
3 87 88 89 
3 90 91 92 
3 93 94 95 
3 96 97 98 
3 99 100 101 
3 102 103 104 
3 105 106 107 
3 108 109 110 
3 111 112 113 
3 114 115 116 
3 117 118 119 
3 120 121 122 
3 123 124 125 
3 126 127 128 
3 129 130 131 
3 132 133 134 
3 135 136 137 
3 138 139 140 
3 141 142 143 
3 144 145 146 
3 147 148 149 
3 150 151 152 
3 153 154 155 
3 156 157 158 
3 159 160 161 
3 162 163 164 
3 165 166 167 
3 168 169 170 
3 171 172 173 
3 174 175 176 
3 177 178 179 
3 180 181 182 
3 183 184 185 
3 186 187 188 
3 189 190 191 
3 192 193 194 
3 195 196 197 
3 198 199 200 
3 201 202 203 
3 204 205 206 
3 207 208 209 
3 210 211 212 
3 213 214 215 
3 216 217 218 
3 219 220 221 
3 222 223 224 
3 225 226 227 
3 228 229 230 
3 231 232 233 
3 234 235 236 
3 237 238 239 
3 240 241 242 
3 243 244 245 
3 246 247 248 
3 249 250 251 
3 252 253 254 
3 255 256 257 
3 258 259 260 
3 261 262 263 
3 264 265 266 
3 267 268 269 
3 270 271 272 
3 273 274 275 
3 273 275 276 
3 277 278 279 
3 280 281 282 
3 283 284 285 
3 283 285 286 
3 287 288 289 
3 290 291 292 
3 290 292 293 
3 294 295 296 
3 297 298 299 
3 300 301 302 
3 300 302 303 
3 304 305 306 
3 307 308 309 
3 307 309 310 
3 311 312 313 
3 314 315 316 
3 314 316 317 
3 318 319 320 
3 321 322 323 
3 324 325 326 
3 324 326 327 
3 328 329 330 
3 328 330 331 
3 332 333 334 
3 332 334 335 
3 336 337 338 
3 336 338 339 
3 340 341 342 
3 340 342 343 
3 344 345 346 
3 344 346 347 
3 348 349 350 
3 348 350 351 
3 352 353 354 
3 352 354 355 
3 356 357 358 
3 356 358 359 
3 360 361 362 
3 360 362 363 
3 364 365 366 
3 364 366 367 
3 368 348 351 
3 368 351 369 
3 370 352 355 
3 370 355 371 
3 372 373 374 
3 372 374 375 
3 376 377 378 
3 376 378 379 
3 357 380 381 
3 357 381 358 
3 382 383 384 
3 382 384 385 
3 386 360 363 
3 386 363 387 
3 388 364 367 
3 388 367 389 
3 390 372 375 
3 390 375 391 
3 392 376 379 
3 392 379 393 
3 380 394 395 
3 380 395 381 
3 396 382 385 
3 396 385 397 
3 398 386 387 
3 398 387 399 
3 400 401 402 
3 400 402 403 
3 404 405 406 
3 404 406 407 
3 408 390 391 
3 409 410 411 
3 412 392 393 
3 413 414 415 
3 394 416 417 
3 394 417 395 
3 418 396 397 
3 418 397 419 
3 420 398 399 
3 421 422 423 
3 424 425 426 
3 427 428 429 
