ply
format ascii 1.0
comment Created by Blender 2.75 (sub 0) - www.blender.org, source file: ''
element vertex 153
property float x
property float y
property float z
property float nx
property float ny
property float nz
property float s
property float t
element face 256
property list uchar uint vertex_indices
end_header
-2.222281 0.000000 3.312622 0.600024 0.000000 -0.799951 0.749999 0.649150
-2.613126 1.082393 2.740463 0.707297 -0.292978 -0.643300 0.687499 0.519320
-2.053120 0.850431 3.312622 0.554338 -0.229621 -0.799951 0.687499 0.649150
-2.828427 0.000000 2.740463 0.765587 0.000000 -0.643300 0.749999 0.519320
-3.072711 1.272759 2.014056 0.808435 -0.334849 -0.483993 0.687499 0.389490
-3.325878 0.000000 2.014056 0.875057 0.000000 -0.483993 0.749999 0.389490
-3.414213 1.414214 1.187970 0.872127 -0.361248 -0.329905 0.687499 0.259660
-3.695518 0.000000 1.187970 0.943999 0.000000 -0.329905 0.749999 0.259660
-3.624509 1.501322 0.326603 0.909940 -0.376904 -0.172887 0.687499 0.129830
-3.923141 0.000000 0.326603 0.984924 0.000000 -0.172887 0.749999 0.129830
-3.695518 1.530734 -0.500000 0.919889 -0.381024 -0.092563 0.687499 -0.000000
-0.780361 0.000000 3.923141 0.207678 0.000000 -0.978179 0.749999 0.908810
-1.414213 0.585787 3.695518 0.370037 -0.153264 -0.916257 0.687499 0.778980
-0.720960 0.298632 3.923141 0.191870 -0.079470 -0.978179 0.687499 0.908810
-1.530734 0.000000 3.695518 0.400525 0.000000 -0.916257 0.749999 0.778980
-1.571389 1.571391 3.312622 0.424268 -0.424268 -0.799951 0.625000 0.649150
-1.082392 1.082393 3.695518 0.283212 -0.283212 -0.916257 0.624999 0.778980
-1.999999 2.000001 2.740463 0.541337 -0.541337 -0.643330 0.625000 0.519320
-2.351751 2.351752 2.014056 0.618763 -0.618763 -0.483993 0.625000 0.389490
-2.613125 2.613127 1.187970 0.667501 -0.667501 -0.329905 0.625000 0.259660
-2.774079 2.774081 0.326603 0.696432 -0.696432 -0.172887 0.625000 0.129830
-2.828427 2.828428 -0.500000 0.704062 -0.704062 -0.092563 0.625000 -0.000000
-0.551798 0.551800 3.923141 0.146855 -0.146855 -0.978179 0.624999 0.908810
-1.501320 3.624511 0.326603 0.376904 -0.909940 -0.172887 0.562499 0.129830
-1.414212 3.414215 1.187970 0.361248 -0.872127 -0.329905 0.562499 0.259660
-1.530733 3.695519 -0.500000 0.381024 -0.919889 -0.092563 0.562499 -0.000000
-0.585785 1.414215 3.695518 0.153264 -0.370037 -0.916257 0.562499 0.778980
-0.298630 0.720961 3.923141 0.079470 -0.191870 -0.978179 0.562499 0.908810
-0.850429 2.053121 3.312622 0.229621 -0.554338 -0.799951 0.562499 0.649150
-1.082391 2.613127 2.740463 0.292978 -0.707297 -0.643300 0.562499 0.519320
-1.272758 3.072712 2.014056 0.334849 -0.808435 -0.483993 0.562499 0.389490
0.000002 2.828428 2.740463 0.000000 -0.765587 -0.643300 0.500000 0.519320
0.000002 2.222282 3.312622 0.000000 -0.600024 -0.799951 0.500000 0.649150
0.000002 3.325879 2.014056 0.000000 -0.875057 -0.483993 0.500000 0.389490
0.000002 3.923142 0.326603 0.000000 -0.984924 -0.172887 0.500000 0.129830
0.000002 3.695519 1.187970 0.000000 -0.943999 -0.329905 0.500000 0.259660
0.000002 1.530735 3.695518 0.000000 -0.400525 -0.916257 0.499999 0.778979
0.000001 0.780362 3.923141 0.000000 -0.207678 -0.978179 0.499999 0.908810
0.000002 4.000001 -0.500000 0.000000 -0.995697 -0.092563 0.500000 -0.000000
1.501323 3.624511 0.326603 -0.376904 -0.909940 -0.172887 0.437500 0.129830
0.298633 0.720961 3.923141 -0.079470 -0.191870 -0.978179 0.437499 0.908810
0.850432 2.053121 3.312622 -0.229621 -0.554338 -0.799951 0.437500 0.649150
0.585788 1.414214 3.695518 -0.153264 -0.370037 -0.916257 0.437499 0.778979
1.082394 2.613126 2.740463 -0.292978 -0.707297 -0.643300 0.437500 0.519320
1.272761 3.072711 2.014056 -0.334849 -0.808435 -0.483993 0.437500 0.389490
1.414216 3.414214 1.187970 -0.361248 -0.872127 -0.329905 0.437500 0.259660
2.000002 2.000000 2.740463 -0.541337 -0.541337 -0.643300 0.375000 0.519320
1.571392 1.571390 3.312622 -0.424268 -0.424268 -0.799951 0.375000 0.649150
2.351753 2.351751 2.014056 -0.618763 -0.618763 -0.483993 0.375000 0.389490
2.613128 2.613126 1.187970 -0.667501 -0.667501 -0.329905 0.375000 0.259660
2.774082 2.774080 0.326603 -0.696432 -0.696432 -0.172887 0.375000 0.129830
1.530736 3.695519 -0.500000 -0.381024 -0.919889 -0.092563 0.437500 -0.000000
1.082394 1.082393 3.695518 -0.283212 -0.283212 -0.916257 0.375000 0.778979
0.551801 0.551799 3.923141 -0.146855 -0.146855 -0.978179 0.374999 0.908810
2.828429 2.828427 -0.500000 -0.704062 -0.704062 -0.092563 0.375000 -0.000000
3.624512 1.501321 0.326603 -0.909940 -0.376904 -0.172887 0.312500 0.129830
1.414216 0.585786 3.695518 -0.370037 -0.153264 -0.916257 0.312500 0.778979
0.720962 0.298632 3.923141 -0.191870 -0.079470 -0.978179 0.312500 0.908810
2.053122 0.850430 3.312622 -0.554338 -0.229621 -0.799951 0.312500 0.649150
2.613127 1.082392 2.740463 -0.707297 -0.292978 -0.643300 0.312500 0.519320
3.414216 1.414213 1.187970 -0.872127 -0.361248 -0.329905 0.312500 0.259660
3.072713 1.272758 2.014056 -0.808435 -0.334849 -0.483993 0.312500 0.389490
2.828429 0.000000 2.740463 -0.765587 0.000000 -0.643300 0.250000 0.519320
3.695520 -0.000001 1.187970 -0.943999 0.000000 -0.329905 0.250000 0.259660
3.325880 -0.000001 2.014056 -0.875057 0.000000 -0.483993 0.250000 0.389490
3.923143 -0.000001 0.326603 -0.984924 0.000000 -0.172887 0.250000 0.129830
3.695520 1.530733 -0.500000 -0.919889 -0.381024 -0.092563 0.312500 -0.000000
1.530736 0.000000 3.695518 -0.400525 0.000000 -0.916257 0.250000 0.778979
0.780364 0.000000 3.923141 -0.207678 0.000000 -0.978179 0.250000 0.908810
2.222283 -0.000001 3.312622 -0.600024 0.000000 -0.799951 0.250000 0.649150
1.414215 -0.585787 3.695518 -0.370037 0.153264 -0.916257 0.187500 0.778979
0.720962 -0.298632 3.923141 -0.191870 0.079470 -0.978179 0.187500 0.908810
2.053121 -0.850431 3.312622 -0.554338 0.229621 -0.799951 0.187500 0.649150
2.613127 -1.082393 2.740463 -0.707297 0.292978 -0.643300 0.187500 0.519320
3.414215 -1.414215 1.187970 -0.872127 0.361248 -0.329905 0.187500 0.259660
3.072712 -1.272760 2.014056 -0.808435 0.334849 -0.483993 0.187500 0.389490
3.624511 -1.501322 0.326603 -0.909940 0.376904 -0.172887 0.187500 0.129830
4.000001 -0.000001 -0.500000 -0.995697 0.000000 -0.092563 0.250000 -0.000000
2.000000 -2.000000 2.740463 -0.541337 0.541337 -0.643300 0.125000 0.519320
2.613127 -2.613127 1.187970 -0.667501 0.667501 -0.329905 0.125000 0.259660
2.351751 -2.351752 2.014056 -0.618763 0.618763 -0.483993 0.125000 0.389490
2.774080 -2.774080 0.326603 -0.696432 0.696432 -0.172887 0.125000 0.129830
3.695519 -1.530735 -0.500000 -0.919889 0.381024 -0.092563 0.187500 -0.000000
1.082394 -1.082393 3.695518 -0.283212 0.283212 -0.916257 0.125000 0.778979
0.551801 -0.551800 3.923141 -0.146855 0.146855 -0.978179 0.125000 0.908810
1.571391 -1.571391 3.312622 -0.424268 0.424268 -0.799951 0.125000 0.649150
0.585787 -1.414214 3.695518 -0.153264 0.370037 -0.916257 0.062500 0.778979
0.298633 -0.720961 3.923141 -0.079470 0.191870 -0.978179 0.062500 0.908810
1.082392 -2.613126 2.740463 -0.292978 0.707297 -0.643300 0.062500 0.519320
0.850431 -2.053121 3.312622 -0.229621 0.554338 -0.799951 0.062500 0.649150
1.414214 -3.414214 1.187970 -0.361248 0.872127 -0.329905 0.062500 0.259660
1.272758 -3.072711 2.014056 -0.334849 0.808435 -0.483993 0.062500 0.389490
1.501321 -3.624510 0.326603 -0.376904 0.909940 -0.172887 0.062500 0.129830
2.828428 -2.828428 -0.500000 -0.704062 0.704062 -0.092563 0.125000 -0.000000
0.000000 -3.695518 1.187970 -0.184545 0.927763 -0.324259 0.000000 0.259660
0.000000 -3.325878 2.014056 -0.171453 0.862087 -0.476821 0.000000 0.389490
0.000000 -3.923141 0.326603 -0.192236 0.966552 -0.169652 0.000000 0.129830
1.530734 -3.695519 -0.500000 -0.381024 0.919889 -0.092563 0.062500 -0.000000
0.000001 -1.530734 3.695518 -0.079409 0.399274 -0.913358 0.000000 0.778980
0.000001 -0.780362 3.923141 -0.041261 0.207526 -0.977325 0.000000 0.908810
0.000000 -2.222281 3.312622 -0.118503 0.595782 -0.794336 0.000000 0.649150
0.000000 -2.828427 2.740463 -0.150548 0.756859 -0.635975 0.000000 0.519320
0.000000 -2.222281 3.312622 0.118503 0.595782 -0.794336 0.999999 0.649150
-0.585786 -1.414214 3.695518 0.153264 0.370037 -0.916257 0.937499 0.778980
0.000001 -1.530734 3.695518 0.079409 0.399274 -0.913358 0.999999 0.778980
-1.082392 -2.613125 2.740463 0.292978 0.707297 -0.643300 0.937499 0.519320
-0.850430 -2.053120 3.312622 0.229621 0.554338 -0.799951 0.937499 0.649150
0.000000 -3.325878 2.014056 0.171484 0.862087 -0.476821 0.999999 0.389490
0.000000 -2.828427 2.740463 0.150548 0.756859 -0.635975 0.999999 0.519320
-1.414214 -3.414213 1.187970 0.361248 0.872127 -0.329905 0.937499 0.259660
-1.272759 -3.072710 2.014056 0.334849 0.808435 -0.483993 0.937499 0.389490
0.000000 -3.695518 1.187970 0.184545 0.927763 -0.324259 0.999999 0.259660
-1.501321 -3.624509 0.326603 0.376904 0.909940 -0.172887 0.937499 0.129830
0.000000 -4.000000 -0.500000 0.194281 0.976714 -0.090793 0.999999 -0.000000
0.000000 -3.923141 0.326603 0.192236 0.966552 -0.169652 0.999999 0.129830
0.000001 -0.780362 3.923141 0.041261 0.207495 -0.977355 1.000000 0.908810
-0.298631 -0.720961 3.923141 0.079470 0.191870 -0.978179 0.937499 0.908810
-2.774079 -2.774078 0.326603 0.696432 0.696432 -0.172887 0.874999 0.129830
-2.613126 -2.613125 1.187970 0.667501 0.667501 -0.329905 0.874999 0.259660
-1.530734 -3.695518 -0.500000 0.381024 0.919889 -0.092563 0.937499 -0.000000
-1.082392 -1.082392 3.695518 0.283212 0.283212 -0.916257 0.874999 0.778980
-0.551798 -0.551799 3.923141 0.146855 0.146855 -0.978179 0.875000 0.908810
-1.571390 -1.571389 3.312622 0.424268 0.424268 -0.799951 0.874999 0.649150
-1.999999 -1.999999 2.740463 0.541337 0.541337 -0.643300 0.874999 0.519320
-2.351751 -2.351749 2.014056 0.618763 0.618763 -0.483993 0.874999 0.389490
-2.053119 -0.850429 3.312622 0.554338 0.229621 -0.799951 0.812499 0.649150
-1.414213 -0.585786 3.695518 0.370037 0.153264 -0.916257 0.812499 0.778980
-2.613125 -1.082391 2.740463 0.707297 0.292978 -0.643300 0.812499 0.519320
-3.414213 -1.414212 1.187970 0.872127 0.361248 -0.329905 0.812499 0.259660
-3.072710 -1.272756 2.014056 0.808435 0.334849 -0.483993 0.812499 0.389490
-3.624508 -1.501319 0.326603 0.909940 0.376904 -0.172887 0.812499 0.129830
-2.828427 -2.828426 -0.500000 0.704062 0.704062 -0.092563 0.874999 -0.000000
-0.720960 -0.298631 3.923141 0.191870 0.079470 -0.978179 0.812499 0.908810
-3.695518 -1.530732 -0.500000 0.919889 0.381024 -0.092563 0.812499 -0.000000
0.000001 0.000000 4.001603 0.008026 0.012024 0.999878 0.937500 1.000000
0.000001 0.000000 4.001603 -0.008026 -0.012024 0.999878 0.437499 1.000000
0.000001 0.000000 4.001603 0.008026 -0.012024 0.999878 0.624999 1.000000
0.000001 0.000000 4.001603 0.014191 0.002808 0.999878 0.812500 1.000000
0.000001 0.000000 4.001603 0.014191 -0.002808 0.999878 0.749999 1.000000
0.000001 0.000000 4.001603 -0.008026 0.012024 0.999878 0.125000 1.000000
0.000001 0.000000 4.001603 -0.014191 -0.002808 0.999878 0.312499 1.000000
0.000001 0.000000 4.001603 -0.002808 -0.014191 0.999878 0.499999 1.000000
0.000001 0.000000 4.001603 0.006561 0.033021 0.999420 1.000000 1.000000
0.000001 0.000000 4.001603 -0.012024 -0.008026 0.999878 0.374999 1.000000
0.000001 0.000000 4.001603 -0.012024 0.008026 0.999878 0.187500 1.000000
0.000001 0.000000 4.001603 0.012024 -0.008026 0.999878 0.687499 1.000000
0.000001 0.000000 4.001603 0.012024 0.008026 0.999878 0.875000 1.000000
0.000001 0.000000 4.001603 -0.014191 0.002808 0.999878 0.250000 1.000000
0.000001 0.000000 4.001603 0.002808 -0.014191 0.999878 0.562499 1.000000
0.000001 0.000000 4.001603 -0.002808 0.014191 0.999878 0.062501 1.000000
-4.000000 0.000000 -0.500000 0.995697 0.000000 -0.092563 0.749999 -0.000000
0.000000 -4.000000 -0.500000 -0.194281 0.976714 -0.090793 0.000000 -0.000000
0.000001 0.000000 4.001603 0.000000 0.000000 1.000000 0.000001 1.000000
3 0 1 2
3 3 4 1
3 5 6 4
3 7 8 6
3 9 10 8
3 11 12 13
3 0 12 14
3 12 15 16
3 2 17 15
3 1 18 17
3 4 19 18
3 6 20 19
3 8 21 20
3 13 16 22
3 19 23 24
3 20 25 23
3 22 26 27
3 16 28 26
3 15 29 28
3 17 30 29
3 19 30 18
3 28 31 32
3 29 33 31
3 24 33 30
3 24 34 35
3 25 34 23
3 27 36 37
3 26 32 36
3 38 39 34
3 36 40 37
3 36 41 42
3 32 43 41
3 31 44 43
3 33 45 44
3 35 39 45
3 41 46 47
3 43 48 46
3 44 49 48
3 45 50 49
3 51 50 39
3 40 52 53
3 42 47 52
3 54 55 50
3 53 56 57
3 52 58 56
3 47 59 58
3 48 59 46
3 48 60 61
3 49 55 60
3 61 62 59
3 61 63 64
3 60 65 63
3 66 65 55
3 57 67 68
3 56 69 67
3 58 62 69
3 68 70 71
3 67 72 70
3 69 73 72
3 64 73 62
3 64 74 75
3 63 76 74
3 77 76 65
3 75 78 73
3 75 79 80
3 74 81 79
3 82 81 76
3 71 83 84
3 70 85 83
3 72 78 85
3 84 86 87
3 85 86 83
3 85 88 89
3 80 88 78
3 80 90 91
3 79 92 90
3 93 92 81
3 91 94 95
3 90 96 94
3 97 96 92
3 87 98 99
3 86 100 98
3 89 101 100
3 91 101 88
3 102 103 104
3 102 105 106
3 107 105 108
3 107 109 110
3 111 112 109
3 113 112 114
3 115 103 116
3 109 117 118
3 119 117 112
3 116 120 121
3 103 122 120
3 106 123 122
3 110 123 105
3 110 118 124
3 120 125 126
3 122 127 125
3 124 127 123
3 124 128 129
3 118 130 128
3 131 130 117
3 121 126 132
3 128 9 7
3 133 9 130
3 126 11 132
3 125 14 126
3 125 127 0
3 129 3 127
3 129 7 5
3 121 134 116
3 53 135 40
3 27 136 22
3 11 137 132
3 13 138 11
3 87 139 84
3 68 140 57
3 40 141 37
3 116 142 115
3 57 143 53
3 84 144 71
3 22 145 13
3 132 146 121
3 71 147 68
3 37 148 27
3 99 149 87
3 3 1 0
3 5 4 3
3 7 6 5
3 9 8 7
3 150 10 9
3 14 12 11
3 2 12 0
3 2 15 12
3 1 17 2
3 4 18 1
3 6 19 4
3 8 20 6
3 10 21 8
3 12 16 13
3 20 23 19
3 21 25 20
3 16 26 22
3 15 28 16
3 17 29 15
3 18 30 17
3 24 30 19
3 29 31 28
3 30 33 29
3 35 33 24
3 23 34 24
3 38 34 25
3 26 36 27
3 28 32 26
3 51 39 38
3 42 40 36
3 32 41 36
3 31 43 32
3 33 44 31
3 35 45 33
3 34 39 35
3 43 46 41
3 44 48 43
3 45 49 44
3 39 50 45
3 54 50 51
3 42 52 40
3 41 47 42
3 66 55 54
3 52 56 53
3 47 58 52
3 46 59 47
3 61 59 48
3 49 60 48
3 50 55 49
3 64 62 61
3 60 63 61
3 55 65 60
3 77 65 66
3 56 67 57
3 58 69 56
3 59 62 58
3 67 70 68
3 69 72 67
3 62 73 69
3 75 73 64
3 63 74 64
3 65 76 63
3 82 76 77
3 80 78 75
3 74 79 75
3 76 81 74
3 93 81 82
3 70 83 71
3 72 85 70
3 73 78 72
3 83 86 84
3 89 86 85
3 78 88 85
3 91 88 80
3 79 90 80
3 81 92 79
3 97 92 93
3 90 94 91
3 92 96 90
3 151 96 97
3 86 98 87
3 89 100 86
3 88 101 89
3 95 101 91
3 106 103 102
3 108 105 102
3 110 105 107
3 111 109 107
3 114 112 111
3 119 112 113
3 104 103 115
3 112 117 109
3 131 117 119
3 103 120 116
3 106 122 103
3 105 123 106
3 124 123 110
3 109 118 110
3 122 125 120
3 123 127 122
3 129 127 124
3 118 128 124
3 117 130 118
3 133 130 131
3 120 126 121
3 130 9 128
3 150 9 133
3 14 11 126
3 0 14 125
3 127 3 0
3 5 3 129
3 128 7 129
3 146 134 121
3 143 135 53
3 148 136 27
3 138 137 11
3 145 138 13
3 149 139 87
3 147 140 68
3 135 141 40
3 134 142 116
3 140 143 57
3 139 144 84
3 136 145 22
3 137 146 132
3 144 147 71
3 141 148 37
3 152 149 99
