ply
format ascii 1.0
comment Created by Blender 2.78 (sub 0) - www.blender.org, source file: ''
element vertex 551
property float x
property float y
property float z
property float nx
property float ny
property float nz
property float s
property float t
element face 185
property list uchar uint vertex_indices
end_header
-0.715532 -0.366720 4.068064 -0.000000 0.000000 1.000000 0.679838 0.925896
-0.403408 -0.040542 4.068064 -0.000000 0.000000 1.000000 0.717685 0.887058
-0.722117 -0.062137 4.068064 -0.000000 0.000000 1.000000 0.718054 0.926382
-0.552693 -0.446474 4.068064 0.000000 -0.000000 1.000000 0.668278 0.905901
-0.384595 -0.302788 4.068064 0.000000 -0.000000 1.000000 0.684655 0.885019
-0.384595 -0.302788 4.068064 0.637614 -0.745956 0.192349 0.654736 0.534174
-0.379916 -0.531429 3.165856 0.637614 -0.745956 0.192349 0.617791 0.422064
-0.207138 -0.616384 2.263648 0.637614 -0.745956 0.192349 0.608819 0.305066
-0.379916 -0.531429 3.165856 0.637626 -0.745946 0.192347 0.617791 0.422064
-0.384595 -0.302788 4.068064 0.637626 -0.745946 0.192347 0.654736 0.534174
-0.437655 -0.503040 3.467356 0.637626 -0.745946 0.192347 0.620789 0.461162
-0.437655 -0.503040 3.467356 0.637617 -0.745953 0.192350 0.620789 0.461162
-0.384595 -0.302788 4.068064 0.637617 -0.745953 0.192350 0.654736 0.534174
-0.552693 -0.446474 4.068064 0.637617 -0.745953 0.192350 0.626764 0.539062
-0.889140 0.388892 3.729170 0.757365 -0.201964 0.620974 0.549927 0.378267
-0.933382 0.330850 3.764252 0.757365 -0.201964 0.620974 0.541699 0.384615
-0.657862 0.326174 3.426696 0.757365 -0.201964 0.620974 0.550798 0.338720
-0.889140 0.388892 3.729170 0.370339 0.924379 0.091499 0.897967 0.490728
-0.657862 0.326174 3.426696 0.370339 0.924379 0.091499 0.880097 0.448719
-0.641742 0.335615 3.266069 0.370339 0.924379 0.091499 0.879912 0.427943
-0.399720 -0.124389 2.263648 -0.931041 -0.364438 0.018634 0.292602 0.237702
-0.252643 -0.615869 -0.000000 -0.931041 -0.364438 0.018634 0.238787 0.527392
-0.207138 -0.616384 2.263648 -0.931041 -0.364438 0.018634 0.224690 0.239804
-0.399720 -0.124389 2.263648 -0.994066 -0.099964 -0.042884 0.292602 0.237702
-0.289096 -0.362598 0.254594 -0.994066 -0.099964 -0.042884 0.269040 0.494980
-0.252643 -0.615869 -0.000000 -0.994066 -0.099964 -0.042884 0.238787 0.527392
-0.289096 -0.362598 0.254594 -0.994066 -0.099968 -0.042883 0.269040 0.494980
-0.399720 -0.124389 2.263648 -0.994066 -0.099968 -0.042883 0.292602 0.237702
-0.309725 -0.048245 -0.000000 -0.994066 -0.099968 -0.042883 0.308168 0.527879
-0.207138 -0.616384 2.263648 0.514692 -0.857310 -0.010542 0.608819 0.305066
-0.252643 -0.615869 -0.000000 0.514692 -0.857310 -0.010542 0.553040 0.019504
0.134906 -0.411035 2.263648 0.514692 -0.857310 -0.010542 0.659251 0.295950
-0.399720 -0.124389 2.263648 -0.336000 0.941684 0.018318 0.895140 0.296889
0.094324 0.095923 -0.000000 -0.336000 0.941684 0.018318 0.857200 0.000000
-0.309725 -0.048245 -0.000000 -0.336000 0.941684 0.018318 0.911446 0.006223
0.134906 -0.411035 2.263648 0.126417 -0.989650 0.067908 0.659251 0.295950
-0.252643 -0.615869 -0.000000 0.126417 -0.989650 0.067908 0.553040 0.019504
0.284525 -0.547251 -0.000000 0.126417 -0.989650 0.067908 0.613320 0.007608
-0.122256 0.084578 2.367603 -0.588826 0.806711 -0.049998 0.849629 0.305747
0.094324 0.095923 -0.000000 -0.588826 0.806711 -0.049998 0.857200 0.000000
-0.399720 -0.124389 2.263648 -0.588826 0.806711 -0.049998 0.895140 0.296889
0.507047 -0.237612 -0.000000 0.808873 -0.581294 0.088443 0.659251 0.000000
0.134906 -0.411035 2.263648 0.808873 -0.581294 0.088443 0.659251 0.295950
0.284525 -0.547251 -0.000000 0.808873 -0.581294 0.088443 0.613320 0.007608
-0.122256 0.084578 2.367603 0.888180 0.423426 0.178455 0.043940 0.243770
0.134906 -0.411035 2.263648 0.888180 0.423426 0.178455 0.116149 0.233300
0.507047 -0.237612 -0.000000 0.888180 0.423426 0.178455 0.173738 0.381536
-0.437655 -0.503040 3.467356 0.982141 0.035746 0.184720 0.620789 0.461162
-0.420447 -0.875208 3.447882 0.982141 0.035746 0.184720 0.594377 0.461885
-0.379916 -0.531429 3.165856 0.982141 0.035746 0.184720 0.617791 0.422064
-0.437655 -0.503040 3.467356 0.988382 0.038000 0.147161 0.620789 0.461162
-0.441544 -0.846272 3.582101 0.988382 0.038000 0.147161 0.597400 0.479038
-0.420447 -0.875208 3.447882 0.988382 0.038000 0.147161 0.594377 0.461885
-0.437655 -0.503040 3.467356 0.374028 0.290231 0.880834 0.742434 0.754974
-0.577002 -0.754065 3.609239 0.374028 0.290231 0.880834 0.739386 0.795814
-0.441544 -0.846272 3.582101 0.374028 0.290231 0.880834 0.718054 0.794537
-0.441544 -0.846272 3.582101 0.496082 0.525305 0.691344 0.718054 0.794537
-0.577002 -0.754065 3.609239 0.496082 0.525305 0.691344 0.739386 0.795814
-0.728542 -1.168047 4.032535 0.496082 0.525305 0.691344 0.728403 0.866393
-0.441544 -0.846272 3.582101 0.801510 0.108340 0.588085 0.718054 0.794537
-0.728542 -1.168047 4.032535 0.801510 0.108340 0.588085 0.728403 0.866393
-0.673291 -1.195298 3.962253 0.801510 0.108340 0.588085 0.719819 0.862167
-0.122256 0.084578 2.367603 0.627364 0.776325 0.061109 0.043940 0.243770
0.212999 -0.031903 0.405533 0.627364 0.776325 0.061109 0.126261 0.374313
0.094324 0.095923 -0.000000 0.627364 0.776325 0.061109 0.117799 0.417819
-0.122256 0.084578 2.367603 0.627375 0.776315 0.061112 0.043940 0.243770
0.507047 -0.237612 -0.000000 0.627375 0.776315 0.061112 0.173738 0.381536
0.212999 -0.031903 0.405533 0.627375 0.776315 0.061112 0.126261 0.374313
2.083460 -1.121392 4.004066 0.220396 -0.483860 0.846939 0.125427 0.544368
1.361388 -0.789089 4.381814 0.220396 -0.483860 0.846939 0.185269 0.635800
0.976401 -1.625651 4.004066 0.220396 -0.483860 0.846939 0.105164 0.689691
0.976401 -1.625651 4.004066 0.411003 -0.902323 0.129957 0.105164 0.738892
1.135303 -1.681800 3.111662 0.411003 -0.902323 0.129957 0.220734 0.751348
2.083460 -1.121392 4.004066 0.411003 -0.902323 0.129957 0.106166 0.892444
2.083460 -1.121392 4.004066 0.488523 0.073137 0.869481 0.125427 0.544368
1.868677 0.313263 4.004066 0.488523 0.073137 0.869481 0.308168 0.527879
1.361388 -0.789089 4.381814 0.488523 0.073137 0.869481 0.185269 0.635800
1.361388 -0.789089 4.381814 -0.298696 -0.275172 0.913817 0.185269 0.635800
0.406535 -1.007069 4.004066 -0.298696 -0.275172 0.913817 0.201702 0.738892
0.976401 -1.625651 4.004066 -0.298696 -0.275172 0.913817 0.105164 0.689691
0.976401 -1.625651 4.004066 -0.598730 -0.798967 -0.056340 0.101997 0.923947
0.462246 -1.177425 3.111662 -0.598730 -0.798967 -0.056340 0.007891 0.826268
1.135303 -1.681800 3.111662 -0.598730 -0.798967 -0.056340 0.101997 0.807117
2.083460 -1.121392 4.004066 0.570858 -0.815611 -0.094339 0.106166 0.892444
1.135303 -1.681800 3.111662 0.570858 -0.815611 -0.094339 0.220734 0.751348
2.131947 -0.984235 3.111662 0.570858 -0.815611 -0.094339 0.220734 0.907833
1.868677 0.313263 4.004066 -0.112321 0.367985 0.923023 0.308168 0.527879
0.879804 0.011427 4.004066 -0.112321 0.367985 0.923023 0.308168 0.653355
1.361388 -0.789089 4.381814 -0.112321 0.367985 0.923023 0.185269 0.635800
1.868677 0.313263 4.004066 0.986098 0.147630 0.076268 0.500713 0.770572
2.083460 -1.121392 4.004066 0.986098 0.147630 0.076268 0.324369 0.734703
2.131947 -0.984235 3.111662 0.986098 0.147630 0.076268 0.328619 0.666793
1.361388 -0.789089 4.381814 -0.397724 0.184812 0.898699 0.185269 0.635800
0.879804 0.011427 4.004066 -0.397724 0.184812 0.898699 0.308168 0.653355
0.406535 -1.007069 4.004066 -0.397724 0.184812 0.898699 0.201702 0.738892
0.406535 -1.007069 4.004066 -0.732928 -0.675207 0.083138 0.000000 0.941687
0.462246 -1.177425 3.111662 -0.732928 -0.675207 0.083138 0.007891 0.826268
0.976401 -1.625651 4.004066 -0.732928 -0.675207 0.083138 0.101997 0.923947
1.534133 -0.615132 2.857967 -0.135616 -0.180970 -0.974093 0.403740 0.606769
1.135303 -1.681800 3.111662 -0.135616 -0.180970 -0.974093 0.308168 0.553436
0.462246 -1.177425 3.111662 -0.135616 -0.180970 -0.974093 0.405598 0.513993
2.131947 -0.984235 3.111662 0.209834 -0.299800 -0.930639 0.328619 0.666793
1.135303 -1.681800 3.111662 0.209834 -0.299800 -0.930639 0.308168 0.553436
1.534133 -0.615132 2.857967 0.209834 -0.299800 -0.930639 0.403740 0.606769
1.868677 0.313263 4.004066 -0.288799 0.946161 0.146202 0.668278 0.905896
1.659303 0.387251 3.111662 -0.288799 0.946161 0.146202 0.554196 0.887945
0.879804 0.011427 4.004066 -0.288799 0.946161 0.146202 0.668278 0.775665
1.659303 0.387251 3.111662 0.927989 0.319806 -0.191208 0.513050 0.677797
1.868677 0.313263 4.004066 0.927989 0.319806 -0.191208 0.500713 0.770572
2.131947 -0.984235 3.111662 0.927989 0.319806 -0.191208 0.328619 0.666793
0.879804 0.011427 4.004066 -0.898475 0.417498 -0.135789 0.300022 0.738892
0.462246 -1.177425 3.111662 -0.898475 0.417498 -0.135789 0.300022 0.908806
0.406535 -1.007069 4.004066 -0.898475 0.417498 -0.135789 0.220734 0.824253
1.534133 -0.615132 2.857967 -0.263287 0.067711 -0.962338 0.403740 0.606769
0.462246 -1.177425 3.111662 -0.263287 0.067711 -0.962338 0.405598 0.513993
0.741972 -0.089741 3.111662 -0.263287 0.067711 -0.962338 0.513050 0.579740
2.131947 -0.984235 3.111662 0.468297 0.161385 -0.868708 0.328619 0.666793
1.534133 -0.615132 2.857967 0.468297 0.161385 -0.868708 0.403740 0.606769
1.659303 0.387251 3.111662 0.468297 0.161385 -0.868708 0.513050 0.677797
0.879804 0.011427 4.004066 -0.461139 0.886844 -0.029315 0.668278 0.775665
1.659303 0.387251 3.111662 -0.461139 0.886844 -0.029315 0.554196 0.887945
0.741972 -0.089741 3.111662 -0.461139 0.886844 -0.029315 0.553040 0.754974
0.879804 0.011427 4.004066 -0.961433 0.247257 0.120463 0.976103 0.853466
0.741972 -0.089741 3.111662 -0.961433 0.247257 0.120463 0.864894 0.853466
0.462246 -1.177425 3.111662 -0.961433 0.247257 0.120463 0.872937 0.741887
1.659303 0.387251 3.111662 -0.134616 0.258888 -0.956481 0.513050 0.677797
1.534133 -0.615132 2.857967 -0.134616 0.258888 -0.956481 0.403740 0.606769
0.741972 -0.089741 3.111662 -0.134616 0.258888 -0.956481 0.513050 0.579740
0.212999 -0.031903 0.405533 -0.136608 0.932640 0.333949 0.830320 0.445334
0.730579 0.189118 -0.000000 -0.136608 0.932640 0.333949 0.830320 0.534452
0.094324 0.095923 -0.000000 -0.136608 0.932640 0.333949 0.785688 0.470962
0.730579 0.189118 -0.000000 0.665767 -0.348746 0.659644 0.984465 0.415561
0.212999 -0.031903 0.405533 0.665767 -0.348746 0.659644 0.984465 0.501612
0.507047 -0.237612 -0.000000 0.665767 -0.348746 0.659644 0.948615 0.461671
-0.889140 0.388892 3.729170 0.118165 0.446141 0.887128 0.549927 0.378267
-1.015152 0.396414 3.742172 0.118165 0.446141 0.887128 0.550798 0.394349
-0.933382 0.330850 3.764252 0.118165 0.446141 0.887128 0.541699 0.384615
-1.015152 0.396414 3.742172 0.050353 0.994886 -0.087555 0.911446 0.494258
-0.889140 0.388892 3.729170 0.050353 0.994886 -0.087555 0.897967 0.490728
-0.641742 0.335615 3.266069 0.050353 0.994886 -0.087555 0.879912 0.427943
-0.933382 0.330850 3.764252 -0.628631 -0.777460 0.019489 0.976271 0.408861
-1.015152 0.396414 3.742172 -0.628631 -0.777460 0.019489 0.965954 0.415561
-0.810572 0.224665 3.489602 -0.628631 -0.777460 0.019489 0.965868 0.369326
-1.015152 0.396414 3.742172 -0.645972 0.506303 -0.571295 0.911446 0.494258
-0.641742 0.335615 3.266069 -0.645972 0.506303 -0.571295 0.879912 0.427943
-0.721348 0.217598 3.251489 -0.645972 0.506303 -0.571295 0.896367 0.427429
-1.015152 0.396414 3.742172 -0.797093 -0.533517 -0.282846 0.965954 0.415561
-0.721348 0.217598 3.251489 -0.797093 -0.533517 -0.282846 0.948615 0.342119
-0.810572 0.224665 3.489602 -0.797093 -0.533517 -0.282846 0.965868 0.369326
-0.933382 0.330850 3.764252 0.612096 -0.606031 0.508001 0.544821 0.472076
-0.810572 0.224665 3.489602 0.612096 -0.606031 0.508001 0.529378 0.439155
-0.657862 0.326174 3.426696 0.612096 -0.606031 0.508001 0.544821 0.419557
-0.401104 -0.092956 2.940139 -0.422528 0.386297 -0.819905 0.884041 0.383300
-0.721348 0.217598 3.251489 -0.422528 0.386297 -0.819905 0.896367 0.427429
-0.641742 0.335615 3.266069 -0.422528 0.386297 -0.819905 0.879912 0.427943
-0.810572 0.224665 3.489602 -0.870947 -0.376991 -0.315166 0.965868 0.369326
-0.721348 0.217598 3.251489 -0.870947 -0.376991 -0.315166 0.948615 0.342119
-0.565531 -0.092373 3.191672 -0.870947 -0.376991 -0.315166 0.976271 0.306214
-0.401517 -0.083558 3.142356 0.507760 -0.253670 0.823305 0.880732 0.662771
-0.657862 0.326174 3.426696 0.507760 -0.253670 0.823305 0.880732 0.724427
-0.810572 0.224665 3.489602 0.507760 -0.253670 0.823305 0.856213 0.729138
-0.641742 0.335615 3.266069 0.864660 0.501895 -0.021562 0.545205 0.333307
-0.401517 -0.083558 3.142356 0.864660 0.501895 -0.021562 0.529378 0.271940
-0.401104 -0.092956 2.940139 0.864660 0.501895 -0.021562 0.545205 0.263098
-0.721348 0.217598 3.251489 -0.887517 -0.403046 -0.223313 0.948615 0.342119
-0.519156 -0.097399 3.016433 -0.887517 -0.403046 -0.223313 0.962978 0.287139
-0.565531 -0.092373 3.191672 -0.887517 -0.403046 -0.223313 0.976271 0.306214
-0.401517 -0.083558 3.142356 0.268680 -0.541154 0.796846 0.880732 0.662771
-0.810572 0.224665 3.489602 0.268680 -0.541154 0.796846 0.856213 0.729138
-0.565531 -0.092373 3.191672 0.268680 -0.541154 0.796846 0.863793 0.676943
-0.641742 0.335615 3.266069 0.876136 0.468038 0.115436 0.545205 0.333307
-0.657862 0.326174 3.426696 0.876136 0.468038 0.115436 0.534205 0.338720
-0.401517 -0.083558 3.142356 0.876136 0.468038 0.115436 0.529378 0.271940
-0.469103 0.300672 4.198813 0.527566 -0.827087 -0.193909 0.998388 0.031578
-1.103069 0.021823 3.663371 0.527566 -0.827087 -0.193909 0.930664 0.119235
-0.424709 0.426303 3.783736 0.527566 -0.827087 -0.193909 0.945170 0.017890
-1.185362 0.050902 4.198813 0.327574 -0.939373 0.101359 1.000000 0.125186
-1.103069 0.021823 3.663371 0.327574 -0.939373 0.101359 0.930664 0.119235
-0.469103 0.300672 4.198813 0.327574 -0.939373 0.101359 0.998388 0.031578
-0.424709 0.426303 3.783736 0.461622 -0.572568 -0.677548 0.945170 0.017890
-1.103069 0.021823 3.663371 0.461622 -0.572568 -0.677548 0.930664 0.119235
-0.881607 0.380499 3.511153 0.461622 -0.572568 -0.677548 0.911446 0.069337
-0.505671 0.773110 4.198813 0.988699 0.076529 0.128908 1.000000 0.000000
-0.469103 0.300672 4.198813 0.988699 0.076529 0.128908 0.998388 0.031578
-0.424709 0.426303 3.783736 0.988699 0.076529 0.128908 0.945170 0.017890
-0.469103 0.300672 4.198813 0.181362 -0.520086 0.834636 0.875843 0.662771
-0.985979 0.484156 4.425462 0.181362 -0.520086 0.834636 0.933672 0.614939
-1.185362 0.050902 4.198813 0.181362 -0.520086 0.834636 0.967059 0.650454
-1.521608 0.619808 3.663371 -0.815610 -0.570858 -0.094351 0.746106 0.932330
-1.103069 0.021823 3.663371 -0.815610 -0.570858 -0.094351 0.837993 0.919758
-1.185362 0.050902 4.198813 -0.815610 -0.570858 -0.094351 0.837993 0.989537
-0.881607 0.380499 3.511153 -0.299804 -0.209838 -0.930637 0.805665 0.897826
-1.103069 0.021823 3.663371 -0.299804 -0.209838 -0.930637 0.837993 0.919758
-1.521608 0.619808 3.663371 -0.299804 -0.209838 -0.930637 0.746106 0.932330
-0.424709 0.426303 3.783736 0.516215 -0.068978 -0.853677 0.884908 0.983074
-0.881607 0.380499 3.511153 0.516215 -0.068978 -0.853677 0.864894 0.918127
-0.566370 0.855800 3.663371 0.516215 -0.068978 -0.853677 0.928217 0.946703
-0.566370 0.855800 3.663371 0.952892 0.296869 -0.062175 0.928217 0.946703
-0.505671 0.773110 4.198813 0.952892 0.296869 -0.062175 0.948491 0.991540
-0.424709 0.426303 3.783736 0.952892 0.296869 -0.062175 0.884908 0.983074
-0.469103 0.300672 4.198813 0.410829 0.031800 0.911158 0.875843 0.662771
-0.505671 0.773110 4.198813 0.410829 0.031800 0.911158 0.856213 0.606536
-0.985979 0.484156 4.425462 0.410829 0.031800 0.911158 0.933672 0.614939
-0.985979 0.484156 4.425462 -0.483857 -0.220391 0.846942 0.933672 0.614939
-1.487917 0.715147 4.198813 -0.483857 -0.220391 0.846942 0.967059 0.557032
-1.185362 0.050902 4.198813 -0.483857 -0.220391 0.846942 0.967059 0.650454
-1.487917 0.715147 4.198813 -0.902326 -0.410998 0.129957 0.744510 1.000000
-1.521608 0.619808 3.663371 -0.902326 -0.410998 0.129957 0.746106 0.932330
-1.185362 0.050902 4.198813 -0.902326 -0.410998 0.129957 0.837993 0.989537
-0.881607 0.380499 3.511153 -0.180968 0.135617 -0.974094 0.864894 0.918127
-1.521608 0.619808 3.663371 -0.180968 0.135617 -0.974094 0.901966 0.853466
-1.218981 1.023635 3.663371 -0.180968 0.135617 -0.974094 0.948491 0.872746
-0.566370 0.855800 3.663371 0.067711 0.263286 -0.962339 0.928217 0.946703
-0.881607 0.380499 3.511153 0.067711 0.263286 -0.962339 0.864894 0.918127
-1.218981 1.023635 3.663371 0.067711 0.263286 -0.962339 0.948491 0.872746
-0.505671 0.773110 4.198813 0.247257 0.961435 0.120447 0.847896 0.377127
-0.566370 0.855800 3.663371 0.247257 0.961435 0.120447 0.849134 0.445334
-1.218981 1.023635 3.663371 0.247257 0.961435 0.120447 0.785688 0.445334
-0.505671 0.773110 4.198813 0.184807 0.397727 0.898699 0.856213 0.606536
-1.116769 1.057062 4.198813 0.184807 0.397727 0.898699 0.909157 0.539062
-0.985979 0.484156 4.425462 0.184807 0.397727 0.898699 0.933672 0.614939
-0.985979 0.484156 4.425462 -0.275171 0.298698 0.913816 0.933672 0.614939
-1.116769 1.057062 4.198813 -0.275171 0.298698 0.913816 0.909157 0.539062
-1.487917 0.715147 4.198813 -0.275171 0.298698 0.913816 0.967059 0.557032
-1.218981 1.023635 3.663371 -0.798961 0.598738 -0.056337 0.091237 0.427255
-1.521608 0.619808 3.663371 -0.798961 0.598738 -0.056337 0.149703 0.417819
-1.487917 0.715147 4.198813 -0.798961 0.598738 -0.056337 0.149703 0.487704
-0.505671 0.773110 4.198813 0.417486 0.898480 -0.135786 0.553040 0.754974
-1.218981 1.023635 3.663371 0.417486 0.898480 -0.135786 0.553040 0.873768
-1.116769 1.057062 4.198813 0.417486 0.898480 -0.135786 0.519333 0.828179
-1.116769 1.057062 4.198813 -0.675203 0.732932 0.083136 0.087289 0.497164
-1.218981 1.023635 3.663371 -0.675203 0.732932 0.083136 0.091237 0.427255
-1.487917 0.715147 4.198813 -0.675203 0.732932 0.083136 0.149703 0.487704
-0.481417 -0.066462 3.625383 -0.324500 -0.104435 -0.940103 0.493991 0.065097
-1.044042 -1.058725 3.929817 -0.324500 -0.104435 -0.940103 0.421073 0.000000
-1.334888 -0.155014 3.929817 -0.324500 -0.104435 -0.940103 0.540567 0.016607
-0.089612 0.680045 3.929817 -0.336350 0.501580 -0.797049 0.711537 0.190693
-0.481417 -0.066462 3.625383 -0.336350 0.501580 -0.797049 0.659251 0.105876
-1.334888 -0.155014 3.929817 -0.336350 0.501580 -0.797049 0.688243 0.000000
0.281414 -1.302530 3.929817 -0.049180 -0.267368 -0.962339 0.308168 0.099271
-1.044042 -1.058725 3.929817 -0.049180 -0.267368 -0.962339 0.421073 0.000000
-0.481417 -0.066462 3.625383 -0.049180 -0.267368 -0.962339 0.493991 0.065097
-1.334888 -0.155014 3.929817 -0.949381 -0.305544 -0.072934 0.745206 0.761911
-1.044042 -1.058725 3.929817 -0.949381 -0.305544 -0.072934 0.864894 0.741887
-1.176682 -0.902212 5.000701 -0.949381 -0.305544 -0.072934 0.864894 0.881679
-1.258920 0.099698 5.000701 -0.550121 0.820365 -0.156100 0.829135 0.007931
-0.089612 0.680045 3.929817 -0.550121 0.820365 -0.156100 0.711537 0.190693
-1.334888 -0.155014 3.929817 -0.550121 0.820365 -0.156100 0.688243 0.000000
0.828852 -0.454622 3.929817 0.284436 0.230238 -0.930638 0.367216 0.183104
-0.481417 -0.066462 3.625383 0.284436 0.230238 -0.930638 0.493991 0.065097
-0.089612 0.680045 3.929817 0.284436 0.230238 -0.930638 0.553040 0.157921
0.828852 -0.454622 3.929817 0.189988 -0.122662 -0.974094 0.367216 0.183104
0.281414 -1.302530 3.929817 0.189988 -0.122662 -0.974094 0.308168 0.099271
-0.481417 -0.066462 3.625383 0.189988 -0.122662 -0.974094 0.493991 0.065097
-1.176682 -0.902212 5.000701 -0.179588 -0.976340 0.120451 0.088719 0.807117
-1.044042 -1.058725 3.929817 -0.179588 -0.976340 0.120451 0.000000 0.700473
0.281414 -1.302530 3.929817 -0.179588 -0.976340 0.120451 0.088719 0.618845
-1.258920 0.099698 5.000701 -0.992622 -0.081476 0.089795 0.744510 0.897826
-1.334888 -0.155014 3.929817 -0.992622 -0.081476 0.089795 0.745206 0.761911
-1.176682 -0.902212 5.000701 -0.992622 -0.081476 0.089795 0.864894 0.881679
0.078628 0.633506 5.000701 -0.368877 0.924285 0.098119 0.849629 0.190693
-0.089612 0.680045 3.929817 -0.368877 0.924285 0.098119 0.711537 0.190693
-1.258920 0.099698 5.000701 -0.368877 0.924285 0.098119 0.829135 0.007931
-0.089612 0.680045 3.929817 0.773803 0.626360 -0.094347 0.553040 0.157921
0.078628 0.633506 5.000701 0.773803 0.626360 -0.094347 0.541299 0.263098
0.828852 -0.454622 3.929817 0.773803 0.626360 -0.094347 0.367216 0.183104
0.828852 -0.454622 3.929817 0.838782 -0.541546 -0.056339 0.785688 0.377127
0.774939 -0.649533 5.000701 0.838782 -0.541546 -0.056339 0.785688 0.515716
0.281414 -1.302530 3.929817 0.838782 -0.541546 -0.056339 0.665740 0.393112
-1.176682 -0.902212 5.000701 -0.353799 -0.925412 -0.135789 0.087289 0.417819
0.281414 -1.302530 3.929817 -0.353799 -0.925412 -0.135789 0.087289 0.618845
0.082148 -1.383482 5.000701 -0.353799 -0.925412 -0.135789 0.000000 0.508978
-0.258718 -0.258709 5.454000 -0.422834 -0.034707 0.905542 0.421633 0.405802
-1.258920 0.099698 5.000701 -0.422834 -0.034707 0.905542 0.357044 0.513994
-1.176682 -0.902212 5.000701 -0.422834 -0.034707 0.905542 0.308168 0.397413
0.078628 0.633506 5.000701 -0.200745 0.503001 0.840649 0.529378 0.487384
-1.258920 0.099698 5.000701 -0.200745 0.503001 0.840649 0.357044 0.513994
-0.258718 -0.258709 5.454000 -0.200745 0.503001 0.840649 0.421633 0.405802
0.078628 0.633506 5.000701 0.871457 0.472943 0.129953 0.541299 0.263098
0.774939 -0.649533 5.000701 0.871457 0.472943 0.129953 0.353316 0.263098
0.828852 -0.454622 3.929817 0.871457 0.472943 0.129953 0.367216 0.183104
0.774939 -0.649533 5.000701 0.724685 -0.684046 0.083136 0.785688 0.515716
0.082148 -1.383482 5.000701 0.724685 -0.684046 0.083136 0.659251 0.533464
0.281414 -1.302530 3.929817 0.724685 -0.684046 0.083136 0.665740 0.393112
0.082148 -1.383482 5.000701 -0.156615 -0.409650 0.898698 0.413824 0.263098
-0.258718 -0.258709 5.454000 -0.156615 -0.409650 0.898698 0.421633 0.405802
-1.176682 -0.902212 5.000701 -0.156615 -0.409650 0.898698 0.308168 0.397413
0.774939 -0.649533 5.000701 0.467305 0.253609 0.846941 0.529378 0.300133
0.078628 0.633506 5.000701 0.467305 0.253609 0.846941 0.529378 0.487384
-0.258718 -0.258709 5.454000 0.467305 0.253609 0.846941 0.421633 0.405802
0.774939 -0.649533 5.000701 0.295338 -0.278776 0.913816 0.529378 0.300133
-0.258718 -0.258709 5.454000 0.295338 -0.278776 0.913816 0.421633 0.405802
0.082148 -1.383482 5.000701 0.295338 -0.278776 0.913816 0.413824 0.263098
-0.506087 -0.469574 3.324692 -0.733504 0.493316 0.467559 0.102439 0.497164
-0.527329 -0.650436 3.482193 -0.733504 0.493316 0.467559 0.102065 0.520796
-0.437655 -0.503040 3.467356 -0.733504 0.493316 0.467559 0.087289 0.508384
-0.437655 -0.503040 3.467356 -0.845920 0.524411 0.097012 0.087289 0.508384
-0.527329 -0.650436 3.482193 -0.845920 0.524411 0.097012 0.102065 0.520796
-0.577002 -0.754065 3.609239 -0.845920 0.524411 0.097012 0.102439 0.540736
-0.817642 -1.107554 4.051295 0.079148 0.757094 0.648494 0.742434 0.867290
-0.577002 -0.754065 3.609239 0.079148 0.757094 0.648494 0.739386 0.795814
-0.527329 -0.650436 3.482193 0.079148 0.757094 0.648494 0.740682 0.776395
-0.527329 -0.650436 3.482193 -0.927802 0.188201 -0.322125 0.231884 0.078825
-0.518658 -0.786054 3.377984 -0.927802 0.188201 -0.322125 0.216109 0.091898
-0.817642 -1.107554 4.051295 -0.927802 0.188201 -0.322125 0.191371 0.000000
-0.577002 -0.754065 3.609239 0.500240 0.522721 0.690306 0.739386 0.795814
-0.817642 -1.107554 4.051295 0.500240 0.522721 0.690306 0.742434 0.867290
-0.728542 -1.168047 4.032535 0.500240 0.522721 0.690306 0.728403 0.866393
-0.518658 -0.786054 3.377984 -0.924169 0.075058 -0.374537 0.216109 0.091898
-0.770215 -1.120574 3.931661 -0.924169 0.075058 -0.374537 0.187886 0.016043
-0.817642 -1.107554 4.051295 -0.924169 0.075058 -0.374537 0.191371 0.000000
-0.673291 -1.195298 3.962253 -0.576225 -0.805069 -0.140815 0.173738 0.013659
-0.817642 -1.107554 4.051295 -0.576225 -0.805069 -0.140815 0.191371 0.000000
-0.770215 -1.120574 3.931661 -0.576225 -0.805069 -0.140815 0.187886 0.016043
-0.817642 -1.107554 4.051295 -0.576237 -0.805055 -0.140847 0.191371 0.000000
-0.673291 -1.195298 3.962253 -0.576237 -0.805055 -0.140847 0.173738 0.013659
-0.728542 -1.168047 4.032535 -0.576237 -0.805055 -0.140847 0.179563 0.003802
-0.770215 -1.120574 3.931661 -0.275247 -0.762383 -0.585672 0.187886 0.016043
-0.518658 -0.786054 3.377984 -0.275247 -0.762383 -0.585672 0.216109 0.091898
-0.420447 -0.875208 3.447882 -0.275247 -0.762383 -0.585672 0.200007 0.084490
-0.673291 -1.195298 3.962253 -0.351810 -0.707338 -0.613109 0.173738 0.013659
-0.770215 -1.120574 3.931661 -0.351810 -0.707338 -0.613109 0.187886 0.016043
-0.420447 -0.875208 3.447882 -0.351810 -0.707338 -0.613109 0.200007 0.084490
-0.420447 -0.875208 3.447882 0.000601 -0.616583 -0.787289 0.552502 0.464014
-0.518658 -0.786054 3.377984 0.000601 -0.616583 -0.787289 0.544821 0.459041
-0.456639 -0.493857 3.149191 0.000601 -0.616583 -0.787289 0.552502 0.419557
-0.441544 -0.846272 3.582101 0.905945 -0.361544 0.220338 0.597400 0.479038
-0.673291 -1.195298 3.962253 0.905945 -0.361544 0.220338 0.556175 0.535331
-0.420447 -0.875208 3.447882 0.905945 -0.361544 0.220338 0.594377 0.461885
-0.379916 -0.531429 3.165856 -0.134999 -0.618883 -0.773795 0.239388 0.122039
-0.420447 -0.875208 3.447882 -0.134999 -0.618883 -0.773795 0.200007 0.084490
-0.456639 -0.493857 3.149191 -0.134999 -0.618883 -0.773795 0.248028 0.122908
-0.289096 -0.362598 0.254594 -0.062692 -0.712026 0.699349 0.173434 0.417819
-0.771768 -0.570161 -0.000000 -0.062692 -0.712026 0.699349 0.173434 0.491290
-0.252643 -0.615869 -0.000000 -0.062692 -0.712026 0.699349 0.149703 0.446249
-0.289096 -0.362598 0.254594 -0.562343 0.497833 0.660252 0.948491 0.870041
-0.309725 -0.048245 -0.000000 -0.562343 0.497833 0.660252 0.979838 0.853466
-0.771768 -0.570161 -0.000000 -0.562343 0.497833 0.660252 0.979838 0.937860
0.810625 -0.571086 3.065904 -0.362357 -0.849873 0.382639 0.934182 0.204294
-0.052020 -0.282384 2.890215 -0.362357 -0.849873 0.382639 0.958116 0.282427
0.881024 -0.663963 2.926283 -0.362357 -0.849873 0.382639 0.911446 0.198642
0.867384 -0.380693 3.081325 -0.205328 -0.018042 0.978527 0.513050 0.640495
-0.052020 -0.282384 2.890215 -0.205328 -0.018042 0.978527 0.541566 0.534704
0.810625 -0.571086 3.065904 -0.205328 -0.018042 0.978527 0.536254 0.645801
0.881024 -0.663963 2.926283 -0.379951 -0.921884 0.075937 0.911446 0.198642
-0.052020 -0.282384 2.890215 -0.379951 -0.921884 0.075937 0.958116 0.282427
0.024453 -0.335016 2.633891 -0.379951 -0.921884 0.075937 0.923333 0.287139
1.573377 -0.787862 3.474740 -0.422822 -0.838219 0.344399 0.944033 0.125802
0.810625 -0.571086 3.065904 -0.422822 -0.838219 0.344399 0.934182 0.204294
0.881024 -0.663963 2.926283 -0.422822 -0.838219 0.344399 0.911446 0.198642
1.508785 -0.647230 3.561004 -0.567865 0.103149 0.816633 0.529821 0.719922
0.867384 -0.380693 3.081325 -0.567865 0.103149 0.816633 0.513050 0.640495
0.810625 -0.571086 3.065904 -0.567865 0.103149 0.816633 0.536254 0.645801
0.867384 -0.380693 3.081325 -0.164913 0.290193 0.942652 0.513050 0.640495
-0.136612 -0.071471 2.810487 -0.164913 0.290193 0.942652 0.519323 0.513993
-0.052020 -0.282384 2.890215 -0.164913 0.290193 0.942652 0.541566 0.534704
0.881024 -0.663963 2.926283 -0.125751 -0.821637 -0.555967 0.934704 0.379133
0.024453 -0.335016 2.633891 -0.125751 -0.821637 -0.555967 0.948615 0.451172
0.909217 -0.556468 2.761044 -0.125751 -0.821637 -0.555967 0.911446 0.383605
1.573377 -0.787862 3.474740 0.468263 -0.526023 -0.709950 0.948615 0.287216
0.881024 -0.663963 2.926283 0.468263 -0.526023 -0.709950 0.934704 0.379133
1.573020 -0.694248 3.405144 0.468263 -0.526023 -0.709950 0.937518 0.287139
1.533373 -0.760738 3.573495 -0.331571 -0.935429 0.122611 0.958116 0.125186
0.810625 -0.571086 3.065904 -0.331571 -0.935429 0.122611 0.934182 0.204294
1.573377 -0.787862 3.474740 -0.331571 -0.935429 0.122611 0.944033 0.125802
1.533373 -0.760738 3.573495 -0.580710 -0.036288 0.813302 0.541566 0.729262
1.508785 -0.647230 3.561004 -0.580710 -0.036288 0.813302 0.529821 0.719922
0.810625 -0.571086 3.065904 -0.580710 -0.036288 0.813302 0.536254 0.645801
1.508785 -0.647230 3.561004 0.137044 0.932278 0.334779 0.541699 0.419557
1.534133 -0.615132 3.461243 0.137044 0.932278 0.334779 0.529378 0.413715
0.867384 -0.380693 3.081325 0.137044 0.932278 0.334779 0.541699 0.338720
0.867384 -0.380693 3.081325 0.344892 0.906496 -0.243545 0.117934 0.093732
0.879449 -0.465874 2.781358 0.344892 0.906496 -0.243545 0.137053 0.118360
-0.136612 -0.071471 2.810487 0.344892 0.906496 -0.243545 0.049551 0.210555
0.909217 -0.556468 2.761044 -0.130050 -0.830540 -0.541562 0.911446 0.383605
0.024453 -0.335016 2.633891 -0.130050 -0.830540 -0.541562 0.948615 0.451172
0.007457 -0.239563 2.491585 -0.130050 -0.830540 -0.541562 0.931245 0.458153
1.573020 -0.694248 3.405144 0.298942 -0.822415 -0.484011 0.937518 0.287139
0.881024 -0.663963 2.926283 0.298942 -0.822415 -0.484011 0.934704 0.379133
0.909217 -0.556468 2.761044 0.298942 -0.822415 -0.484011 0.911446 0.383605
1.573020 -0.694248 3.405144 0.921860 0.233462 0.309305 0.524963 0.732766
1.533373 -0.760738 3.573495 0.921860 0.233462 0.309305 0.541566 0.729262
1.573377 -0.787862 3.474740 0.921860 0.233462 0.309305 0.538231 0.737162
1.533373 -0.760738 3.573495 0.921768 0.233718 0.309385 0.541566 0.729262
1.573020 -0.694248 3.405144 0.921768 0.233718 0.309385 0.524963 0.732766
1.508785 -0.647230 3.561004 0.921768 0.233718 0.309385 0.529821 0.719922
1.508785 -0.647230 3.561004 0.921772 0.233692 0.309394 0.529821 0.719922
1.573020 -0.694248 3.405144 0.921772 0.233692 0.309394 0.524963 0.732766
1.534133 -0.615132 3.461243 0.921772 0.233692 0.309394 0.520690 0.722644
1.534133 -0.615132 3.461243 0.436616 0.869893 -0.229461 0.161181 0.000000
0.879449 -0.465874 2.781358 0.436616 0.869893 -0.229461 0.137053 0.118360
0.867384 -0.380693 3.081325 0.436616 0.869893 -0.229461 0.117934 0.093732
-0.136612 -0.071471 2.810487 0.358013 0.929136 -0.092374 0.519333 0.961525
0.879449 -0.465874 2.781358 0.358013 0.929136 -0.092374 0.542272 0.873768
-0.067044 -0.121056 2.581361 0.358013 0.929136 -0.092374 0.549676 0.961525
0.909217 -0.556468 2.761044 0.418834 0.700782 -0.577480 0.149619 0.118242
0.007457 -0.239563 2.491585 0.418834 0.700782 -0.577480 0.084254 0.224846
-0.067044 -0.121056 2.581361 0.418834 0.700782 -0.577480 0.064651 0.223266
1.534133 -0.615132 3.461243 0.600616 0.637437 -0.482633 0.161181 0.000000
1.573020 -0.694248 3.405144 0.600616 0.637437 -0.482633 0.173738 0.001801
0.909217 -0.556468 2.761044 0.600616 0.637437 -0.482633 0.149619 0.118242
0.879449 -0.465874 2.781358 0.708857 0.367879 -0.601820 0.137053 0.118360
1.534133 -0.615132 3.461243 0.708857 0.367879 -0.601820 0.161181 0.000000
0.909217 -0.556468 2.761044 0.708857 0.367879 -0.601820 0.149619 0.118242
0.909217 -0.556468 2.761044 0.301084 0.301779 -0.904587 0.149619 0.118242
-0.067044 -0.121056 2.581361 0.301084 0.301779 -0.904587 0.064651 0.223266
0.879449 -0.465874 2.781358 0.301084 0.301779 -0.904587 0.137053 0.118360
-0.557175 -1.962173 4.009656 -0.131208 -0.341611 -0.930638 0.744510 0.731647
-1.589563 -1.565646 4.009656 -0.131208 -0.341611 -0.930638 0.616422 0.754974
-0.582890 -1.323995 3.779025 -0.131208 -0.341611 -0.930638 0.679933 0.699574
-0.582890 -1.323995 3.779025 -0.225865 0.011235 -0.974094 0.679933 0.699574
-1.589563 -1.565646 4.009656 -0.225865 0.011235 -0.974094 0.616422 0.754974
-1.551577 -0.801987 4.009656 -0.225865 0.011235 -0.974094 0.553040 0.690052
-0.056488 -0.942615 4.009656 0.542077 -0.266204 -0.797050 0.700596 0.620577
-0.557175 -1.962173 4.009656 0.542077 -0.266204 -0.797050 0.744510 0.731647
-0.582890 -1.323995 3.779025 0.542077 -0.266204 -0.797050 0.679933 0.699574
-0.685186 -1.995368 4.820932 -0.356950 -0.929347 -0.094349 0.750536 0.734877
-1.589563 -1.565646 4.009656 -0.356950 -0.929347 -0.094349 0.846886 0.638683
-0.557175 -1.962173 4.009656 -0.356950 -0.929347 -0.094349 0.856213 0.741887
-1.551577 -0.801987 4.009656 -0.997179 0.049603 -0.056338 0.856213 0.552201
-1.589563 -1.565646 4.009656 -0.997179 0.049603 -0.056338 0.846886 0.638683
-1.628021 -1.417345 4.820932 -0.997179 0.049603 -0.056338 0.744510 0.615581
-0.582890 -1.323995 3.779025 -0.091093 0.256137 -0.962339 0.679933 0.699574
-1.551577 -0.801987 4.009656 -0.091093 0.256137 -0.962339 0.553040 0.690052
-0.589621 -0.459875 4.009656 -0.091093 0.256137 -0.962339 0.610129 0.609741
-0.056488 -0.942615 4.009656 0.886603 -0.435395 -0.156099 0.413164 0.913238
-0.009847 -1.138499 4.820932 0.886603 -0.435395 -0.156099 0.309339 0.905389
-0.557175 -1.962173 4.009656 0.886603 -0.435395 -0.156099 0.413164 0.784478
-0.056488 -0.942615 4.009656 0.228808 0.252694 -0.940102 0.700596 0.620577
-0.582890 -1.323995 3.779025 0.228808 0.252694 -0.940102 0.679933 0.699574
-0.589621 -0.459875 4.009656 0.228808 0.252694 -0.940102 0.610129 0.609741
-0.009847 -1.138499 4.820932 0.781599 -0.616015 0.098123 0.309339 0.905389
-0.685186 -1.995368 4.820932 0.781599 -0.616015 0.098123 0.308168 0.770572
-0.557175 -1.962173 4.009656 0.781599 -0.616015 0.098123 0.413164 0.784478
-1.628021 -1.417345 4.820932 -0.518232 -0.845309 0.129956 0.744510 0.615581
-1.589563 -1.565646 4.009656 -0.518232 -0.845309 0.129956 0.846886 0.638683
-0.685186 -1.995368 4.820932 -0.518232 -0.845309 0.129956 0.750536 0.734877
-1.451507 -0.673398 4.820932 -0.969619 0.230059 0.083136 0.755475 0.539062
-1.551577 -0.801987 4.009656 -0.969619 0.230059 0.083136 0.856213 0.552201
-1.628021 -1.417345 4.820932 -0.969619 0.230059 0.083136 0.744510 0.615581
-0.443314 -0.512315 4.820932 -0.332643 0.935329 0.120448 0.518310 0.911793
-0.589621 -0.459875 4.009656 -0.332643 0.935329 0.120448 0.414350 0.900247
-1.551577 -0.801987 4.009656 -0.332643 0.935329 0.120448 0.413164 0.770572
-0.443314 -0.512315 4.820932 0.818899 0.566870 0.089794 0.650508 0.539062
-0.009847 -1.138499 4.820932 0.818899 0.566870 0.089794 0.744510 0.567109
-0.056488 -0.942615 4.009656 0.818899 0.566870 0.089794 0.700596 0.620577
-0.443314 -0.512315 4.820932 0.669417 0.739298 -0.072937 0.650508 0.539062
-0.056488 -0.942615 4.009656 0.669417 0.739298 -0.072937 0.700596 0.620577
-0.589621 -0.459875 4.009656 0.669417 0.739298 -0.072937 0.610129 0.609741
-0.009847 -1.138499 4.820932 0.425352 -0.335240 0.840648 0.696402 0.377127
-0.801819 -1.282222 5.164340 0.425352 -0.335240 0.840648 0.776601 0.298463
-0.685186 -1.995368 4.820932 0.425352 -0.335240 0.840648 0.827396 0.366152
-0.685186 -1.995368 4.820932 -0.277894 -0.453284 0.846941 0.827396 0.366152
-0.801819 -1.282222 5.164340 -0.277894 -0.453284 0.846941 0.776601 0.298463
-1.628021 -1.417345 4.820932 -0.277894 -0.453284 0.846941 0.827396 0.224768
-0.443314 -0.512315 4.820932 -0.156311 0.978329 -0.135788 0.518310 0.911793
-1.551577 -0.801987 4.009656 -0.156311 0.978329 -0.135788 0.413164 0.770572
-1.451507 -0.673398 4.820932 -0.156311 0.978329 -0.135788 0.518310 0.788068
-0.801819 -1.282222 5.164340 -0.395158 0.093758 0.913816 0.776601 0.298463
-1.451507 -0.673398 4.820932 -0.395158 0.093758 0.913816 0.739562 0.190693
-1.628021 -1.417345 4.820932 -0.395158 0.093758 0.913816 0.827396 0.224768
-0.009847 -1.138499 4.820932 0.348832 0.241474 0.905542 0.696402 0.377127
-0.443314 -0.512315 4.820932 0.348832 0.241474 0.905542 0.659251 0.286518
-0.801819 -1.282222 5.164340 0.348832 0.241474 0.905542 0.776601 0.298463
-0.443314 -0.512315 4.820932 -0.069194 0.433074 0.898698 0.659251 0.286518
-1.451507 -0.673398 4.820932 -0.069194 0.433074 0.898698 0.739562 0.190693
-0.801819 -1.282222 5.164340 -0.069194 0.433074 0.898698 0.776601 0.298463
-0.456639 -0.493857 3.149191 -0.963065 -0.020826 -0.268461 0.248028 0.122908
-0.722117 -0.062137 4.068064 -0.963065 -0.020826 -0.268461 0.308168 0.002298
-0.207138 -0.616384 2.263648 -0.963065 -0.020826 -0.268461 0.224690 0.239804
-0.722117 -0.062137 4.068064 -0.963064 -0.020814 -0.268467 0.308168 0.002298
-0.456639 -0.493857 3.149191 -0.963064 -0.020814 -0.268467 0.248028 0.122908
-0.506087 -0.469574 3.324692 -0.963064 -0.020814 -0.268467 0.252654 0.099741
-0.722117 -0.062137 4.068064 -0.963065 -0.020823 -0.268462 0.308168 0.002298
-0.506087 -0.469574 3.324692 -0.963065 -0.020823 -0.268462 0.252654 0.099741
-0.715532 -0.366720 4.068064 -0.963065 -0.020823 -0.268462 0.272245 0.001613
-0.722117 -0.062137 4.068064 -0.920380 -0.360265 -0.152016 0.308168 0.002298
-0.399720 -0.124389 2.263648 -0.920380 -0.360265 -0.152016 0.292602 0.237702
-0.207138 -0.616384 2.263648 -0.920380 -0.360265 -0.152016 0.224690 0.239804
-0.399720 -0.124389 2.263648 0.921380 -0.346420 0.176217 0.553040 0.263098
-0.722117 -0.062137 4.068064 0.921380 -0.346420 0.176217 0.553040 0.497957
-0.565531 -0.092373 3.191672 0.921380 -0.346420 0.176217 0.553040 0.383888
-0.379916 -0.531429 3.165856 -0.439866 -0.898063 0.000328 0.239388 0.122039
-0.456639 -0.493857 3.149191 -0.439866 -0.898063 0.000328 0.248028 0.122908
-0.207138 -0.616384 2.263648 -0.439866 -0.898063 0.000328 0.224690 0.239804
-0.506087 -0.469574 3.324692 -0.960577 -0.109656 -0.255474 0.252654 0.099741
-0.456639 -0.493857 3.149191 -0.960577 -0.109656 -0.255474 0.248028 0.122908
-0.527329 -0.650436 3.482193 -0.960577 -0.109656 -0.255474 0.231884 0.078825
-0.437655 -0.503040 3.467356 -0.439865 -0.898064 0.000326 0.244299 0.082684
-0.715532 -0.366720 4.068064 -0.439865 -0.898064 0.000326 0.272245 0.001613
-0.506087 -0.469574 3.324692 -0.439865 -0.898064 0.000326 0.252654 0.099741
-0.715532 -0.366720 4.068064 -0.439849 -0.898072 0.000335 0.272245 0.001613
-0.437655 -0.503040 3.467356 -0.439849 -0.898072 0.000335 0.244299 0.082684
-0.552693 -0.446474 4.068064 -0.439849 -0.898072 0.000335 0.254086 0.004274
-0.565531 -0.092373 3.191672 -0.067526 0.996636 -0.046450 0.898978 0.417889
-0.403408 -0.040542 4.068064 -0.067526 0.996636 -0.046450 0.865535 0.527374
-0.401517 -0.083558 3.142356 -0.067526 0.996636 -0.046450 0.880723 0.409130
-0.403408 -0.040542 4.068064 -0.067527 0.996636 -0.046450 0.865535 0.527374
-0.565531 -0.092373 3.191672 -0.067527 0.996636 -0.046450 0.898978 0.417889
-0.722117 -0.062137 4.068064 -0.067527 0.996636 -0.046450 0.902602 0.532156
-0.399720 -0.124389 2.263648 -0.067521 0.996636 -0.046445 0.895140 0.296889
-0.519156 -0.097399 3.016433 -0.067521 0.996636 -0.046445 0.896501 0.394814
-0.401104 -0.092956 2.940139 -0.067521 0.996636 -0.046445 0.884041 0.383300
-0.519156 -0.097399 3.016433 -0.067448 0.996642 -0.046434 0.896501 0.394814
-0.399720 -0.124389 2.263648 -0.067448 0.996642 -0.046434 0.895140 0.296889
-0.565531 -0.092373 3.191672 -0.067448 0.996642 -0.046434 0.898978 0.417889
-0.456639 -0.493857 3.149191 -0.981998 0.071546 -0.174819 0.248028 0.122908
-0.518658 -0.786054 3.377984 -0.981998 0.071546 -0.174819 0.216109 0.091898
-0.527329 -0.650436 3.482193 -0.981998 0.071546 -0.174819 0.231884 0.078825
-0.401104 -0.092956 2.940139 -0.591878 0.805102 -0.038619 0.884041 0.383300
-0.122256 0.084578 2.367603 -0.591878 0.805102 -0.038619 0.849629 0.305747
-0.399720 -0.124389 2.263648 -0.591878 0.805102 -0.038619 0.895140 0.296889
-0.122256 0.084578 2.367603 -0.591884 0.805098 -0.038623 0.849629 0.305747
-0.401104 -0.092956 2.940139 -0.591884 0.805098 -0.038623 0.884041 0.383300
-0.401517 -0.083558 3.142356 -0.591884 0.805098 -0.038623 0.880723 0.409130
-0.122256 0.084578 2.367603 -0.591879 0.805101 -0.038621 0.849629 0.305747
-0.401517 -0.083558 3.142356 -0.591879 0.805101 -0.038621 0.880723 0.409130
-0.403408 -0.040542 4.068064 -0.591879 0.805101 -0.038621 0.865535 0.527374
-0.401104 -0.092956 2.940139 -0.530896 0.260887 -0.806280 0.884041 0.383300
-0.519156 -0.097399 3.016433 -0.530896 0.260887 -0.806280 0.896501 0.394814
-0.721348 0.217598 3.251489 -0.530896 0.260887 -0.806280 0.896367 0.427429
0.134906 -0.411035 2.263648 0.888213 0.423543 0.178015 0.116149 0.233300
0.007457 -0.239563 2.491585 0.888213 0.423543 0.178015 0.084254 0.224846
0.024453 -0.335016 2.633891 0.888213 0.423543 0.178015 0.092317 0.212619
0.007457 -0.239563 2.491585 0.888215 0.423535 0.178023 0.084254 0.224846
0.134906 -0.411035 2.263648 0.888215 0.423535 0.178023 0.116149 0.233300
-0.122256 0.084578 2.367603 0.888215 0.423535 0.178023 0.043940 0.243770
0.007457 -0.239563 2.491585 0.888218 0.423533 0.178015 0.084254 0.224846
-0.122256 0.084578 2.367603 0.888218 0.423533 0.178015 0.043940 0.243770
-0.067044 -0.121056 2.581361 0.888218 0.423533 0.178015 0.064651 0.223266
-0.067044 -0.121056 2.581361 0.888213 0.423540 0.178023 0.064651 0.223266
-0.122256 0.084578 2.367603 0.888213 0.423540 0.178023 0.043940 0.243770
-0.136612 -0.071471 2.810487 0.888213 0.423540 0.178023 0.049551 0.210555
-0.136612 -0.071471 2.810487 0.888218 0.423530 0.178020 0.049551 0.210555
-0.122256 0.084578 2.367603 0.888218 0.423530 0.178020 0.043940 0.243770
-0.403408 -0.040542 4.068064 0.888218 0.423530 0.178020 0.000000 0.132508
-0.403408 -0.040542 4.068064 0.888216 0.423534 0.178020 0.000000 0.132508
-0.052020 -0.282384 2.890215 0.888216 0.423534 0.178020 0.075817 0.198301
-0.136612 -0.071471 2.810487 0.888216 0.423534 0.178020 0.049551 0.210555
0.024453 -0.335016 2.633891 0.959777 0.068827 0.272196 0.717978 0.782076
-0.384595 -0.302788 4.068064 0.959777 0.068827 0.272196 0.684655 0.885019
0.134906 -0.411035 2.263648 0.959777 0.068827 0.272196 0.718054 0.754974
-0.384595 -0.302788 4.068064 0.959772 0.068909 0.272193 0.684655 0.885019
0.024453 -0.335016 2.633891 0.959772 0.068909 0.272193 0.717978 0.782076
-0.052020 -0.282384 2.890215 0.959772 0.068909 0.272193 0.717926 0.800839
-0.384595 -0.302788 4.068064 0.959776 0.068852 0.272193 0.684655 0.885019
-0.052020 -0.282384 2.890215 0.959776 0.068852 0.272193 0.717926 0.800839
-0.403408 -0.040542 4.068064 0.959776 0.068852 0.272193 0.717685 0.887058
-0.384595 -0.302788 4.068064 0.504762 -0.840769 0.195761 0.654736 0.534174
-0.207138 -0.616384 2.263648 0.504762 -0.840769 0.195761 0.608819 0.305066
0.134906 -0.411035 2.263648 0.504762 -0.840769 0.195761 0.659251 0.295950
3 0 1 2
3 1 0 3
3 1 3 4
3 5 6 7
3 8 9 10
3 11 12 13
3 14 15 16
3 17 18 19
3 20 21 22
3 23 24 25
3 26 27 28
3 29 30 31
3 32 33 34
3 35 36 37
3 38 39 40
3 41 42 43
3 44 45 46
3 47 48 49
3 50 51 52
3 53 54 55
3 56 57 58
3 59 60 61
3 62 63 64
3 65 66 67
3 68 69 70
3 71 72 73
3 74 75 76
3 77 78 79
3 80 81 82
3 83 84 85
3 86 87 88
3 89 90 91
3 92 93 94
3 95 96 97
3 98 99 100
3 101 102 103
3 104 105 106
3 107 108 109
3 110 111 112
3 113 114 115
3 116 117 118
3 119 120 121
3 122 123 124
3 125 126 127
3 128 129 130
3 131 132 133
3 134 135 136
3 137 138 139
3 140 141 142
3 143 144 145
3 146 147 148
3 149 150 151
3 152 153 154
3 155 156 157
3 158 159 160
3 161 162 163
3 164 165 166
3 167 168 169
3 170 171 172
3 173 174 175
3 176 177 178
3 179 180 181
3 182 183 184
3 185 186 187
3 188 189 190
3 191 192 193
3 194 195 196
3 197 198 199
3 200 201 202
3 203 204 205
3 206 207 208
3 209 210 211
3 212 213 214
3 215 216 217
3 218 219 220
3 221 222 223
3 224 225 226
3 227 228 229
3 230 231 232
3 233 234 235
3 236 237 238
3 239 240 241
3 242 243 244
3 245 246 247
3 248 249 250
3 251 252 253
3 254 255 256
3 257 258 259
3 260 261 262
3 263 264 265
3 266 267 268
3 269 270 271
3 272 273 274
3 275 276 277
3 278 279 280
3 281 282 283
3 284 285 286
3 287 288 289
3 290 291 292
3 293 294 295
3 296 297 298
3 299 300 301
3 302 303 304
3 305 306 307
3 308 309 310
3 311 312 313
3 314 315 316
3 317 318 319
3 320 321 322
3 323 324 325
3 326 327 328
3 329 330 331
3 332 333 334
3 335 336 337
3 338 339 340
3 341 342 343
3 344 345 346
3 347 348 349
3 350 351 352
3 353 354 355
3 356 357 358
3 359 360 361
3 362 363 364
3 365 366 367
3 368 369 370
3 371 372 373
3 374 375 376
3 377 378 379
3 380 381 382
3 383 384 385
3 386 387 388
3 389 390 391
3 392 393 394
3 395 396 397
3 398 399 400
3 401 402 403
3 404 405 406
3 407 408 409
3 410 411 412
3 413 414 415
3 416 417 418
3 419 420 421
3 422 423 424
3 425 426 427
3 428 429 430
3 431 432 433
3 434 435 436
3 437 438 439
3 440 441 442
3 443 444 445
3 446 447 448
3 449 450 451
3 452 453 454
3 455 456 457
3 458 459 460
3 461 462 463
3 464 465 466
3 467 468 469
3 470 471 472
3 473 474 475
3 476 477 478
3 479 480 481
3 482 483 484
3 485 486 487
3 488 489 490
3 491 492 493
3 494 495 496
3 497 498 499
3 500 501 502
3 503 504 505
3 506 507 508
3 509 510 511
3 512 513 514
3 515 516 517
3 518 519 520
3 521 522 523
3 524 525 526
3 527 528 529
3 530 531 532
3 533 534 535
3 536 537 538
3 539 540 541
3 542 543 544
3 545 546 547
3 548 549 550
