ply
format ascii 1.0
comment Created by Blender 2.75 (sub 0) - www.blender.org, source file: ''
element vertex 34
property float x
property float y
property float z
property float nx
property float ny
property float nz
property float s
property float t
element face 32
property list uchar uint vertex_indices
end_header
-0.461940 -0.191341 -0.500000 0.826319 0.342265 0.447188 0.750000 0.000000
-1.000000 0.000000 0.500000 0.894406 0.000000 0.447188 0.687500 1.000000
-0.923880 -0.382683 0.500000 0.826319 0.342265 0.447188 0.750000 1.000000
0.000000 -0.500000 -0.500000 0.000000 0.894406 0.447188 0.937500 0.000000
-0.382684 -0.923879 0.500000 0.342265 0.826319 0.447188 0.875000 1.000000
-0.000001 -1.000000 0.500000 0.000000 0.894406 0.447188 0.937500 1.000000
0.353553 0.353553 -0.500000 -0.632435 -0.632435 0.447188 0.312500 0.000000
0.923879 0.382683 0.500000 -0.826319 -0.342265 0.447188 0.250000 1.000000
0.707107 0.707106 0.500000 -0.632435 -0.632435 0.447188 0.312500 1.000000
-0.191342 0.461940 -0.500000 0.342265 -0.826319 0.447188 0.500000 0.000000
0.000000 1.000000 0.500000 0.000000 -0.894406 0.447188 0.437500 1.000000
-0.382683 0.923879 0.500000 0.342265 -0.826319 0.447188 0.500000 1.000000
-0.353554 0.353553 -0.500000 0.632435 -0.632435 0.447188 0.562500 0.000000
-0.707107 0.707107 0.500000 0.632435 -0.632435 0.447188 0.562500 1.000000
0.191341 -0.461940 -0.500000 -0.342265 0.826319 0.447188 1.000000 0.000000
0.382683 -0.923879 0.500000 -0.342265 0.826319 0.447188 1.000000 1.000000
0.461939 0.191342 -0.500000 -0.826319 -0.342265 0.447188 0.250000 0.000000
1.000000 0.000000 0.500000 -0.894406 0.000000 0.447188 0.187500 1.000000
0.353553 -0.353553 -0.500000 -0.632435 0.632435 0.447188 0.062500 0.000000
0.382683 -0.923879 0.500000 -0.342265 0.826319 0.447188 0.000000 1.000000
0.707106 -0.707107 0.500000 -0.632435 0.632435 0.447188 0.062500 1.000000
0.000000 0.500000 -0.500000 0.000000 -0.894406 0.447188 0.437500 0.000000
0.382683 0.923879 0.500000 -0.342265 -0.826319 0.447188 0.375000 1.000000
-0.461940 0.191342 -0.500000 0.826319 -0.342265 0.447188 0.625000 0.000000
-0.923880 0.382683 0.500000 0.826319 -0.342265 0.447188 0.625000 1.000000
0.191342 0.461940 -0.500000 -0.342265 -0.826319 0.447188 0.375000 0.000000
-0.500000 0.000000 -0.500000 0.894406 0.000000 0.447188 0.687500 0.000000
-0.353554 -0.353553 -0.500000 0.632435 0.632435 0.447188 0.812500 0.000000
-0.707107 -0.707106 0.500000 0.632435 0.632435 0.447188 0.812500 1.000000
-0.191342 -0.461939 -0.500000 0.342265 0.826319 0.447188 0.875000 0.000000
0.461939 -0.191342 -0.500000 -0.826319 0.342265 0.447188 0.125000 0.000000
0.923879 -0.382684 0.500000 -0.826319 0.342265 0.447188 0.125000 1.000000
0.500000 0.000000 -0.500000 -0.894406 0.000000 0.447188 0.187500 0.000000
0.191341 -0.461940 -0.500000 -0.342265 0.826319 0.447188 0.000000 0.000000
3 0 1 2
3 3 4 5
3 6 7 8
3 9 10 11
3 12 11 13
3 14 5 15
3 16 17 7
3 18 19 20
3 21 22 10
3 23 13 24
3 25 8 22
3 26 24 1
3 27 2 28
3 29 28 4
3 30 20 31
3 32 31 17
3 1 0 26
3 29 4 3
3 16 7 6
3 21 10 9
3 9 11 12
3 3 5 14
3 32 17 16
3 33 19 18
3 25 22 21
3 12 13 23
3 6 8 25
3 23 24 26
3 0 2 27
3 27 28 29
3 18 20 30
3 30 31 32
