<?xml version="1.0" encoding="UTF-8" standalone="no"?>
<!-- Created with Inkscape (http://www.inkscape.org/) -->

<svg
   xmlns:dc="http://purl.org/dc/elements/1.1/"
   xmlns:cc="http://creativecommons.org/ns#"
   xmlns:rdf="http://www.w3.org/1999/02/22-rdf-syntax-ns#"
   xmlns:svg="http://www.w3.org/2000/svg"
   xmlns="http://www.w3.org/2000/svg"
   xmlns:sodipodi="http://sodipodi.sourceforge.net/DTD/sodipodi-0.dtd"
   xmlns:inkscape="http://www.inkscape.org/namespaces/inkscape"
   width="320"
   height="320"
   viewBox="0 0 84.666662 84.666662"
   version="1.1"
   id="svg8"
   inkscape:version="0.92.3 (2405546, 2018-03-11)"
   sodipodi:docname="1800_icons_2.svg">
  <defs
     id="defs2" />
  <sodipodi:namedview
     id="base"
     pagecolor="#ffffff"
     bordercolor="#666666"
     borderopacity="1.0"
     inkscape:pageopacity="0.0"
     inkscape:pageshadow="2"
     inkscape:zoom="1.4142136"
     inkscape:cx="122.00683"
     inkscape:cy="150.0984"
     inkscape:document-units="px"
     inkscape:current-layer="layer1"
     showgrid="true"
     units="px"
     showguides="true"
     inkscape:guide-bbox="true"
     objecttolerance="5"
     inkscape:pagecheckerboard="true"
     inkscape:snap-global="false"
     inkscape:window-width="2560"
     inkscape:window-height="1539"
     inkscape:window-x="1084"
     inkscape:window-y="33"
     inkscape:window-maximized="1"
     fit-margin-top="0"
     fit-margin-left="0"
     fit-margin-right="0"
     fit-margin-bottom="0">
    <sodipodi:guide
       position="5.2916665,86.254166"
       orientation="1,0"
       id="guide1366"
       inkscape:locked="false" />
    <inkscape:grid
       type="xygrid"
       id="grid1368"
       originx="3.7599552e-15"
       originy="2.6e-06" />
    <sodipodi:guide
       position="3.1749999,5.2916691"
       orientation="0,1"
       id="guide5073"
       inkscape:locked="false" />
    <sodipodi:guide
       position="3.7041665,15.875002"
       orientation="0,1"
       id="guide5075"
       inkscape:locked="false" />
    <sodipodi:guide
       position="2.3812499,26.458335"
       orientation="0,1"
       id="guide5079"
       inkscape:locked="false" />
    <sodipodi:guide
       position="2.6458332,37.041668"
       orientation="0,1"
       id="guide5081"
       inkscape:locked="false" />
    <sodipodi:guide
       position="1.5874999,42.333334"
       orientation="0,1"
       id="guide5083"
       inkscape:locked="false" />
    <sodipodi:guide
       position="3.9687499,52.916667"
       orientation="0,1"
       id="guide5085"
       inkscape:locked="false" />
    <sodipodi:guide
       position="3.7041665,58.208333"
       orientation="0,1"
       id="guide5087"
       inkscape:locked="false" />
    <sodipodi:guide
       position="2.9104166,74.083333"
       orientation="0,1"
       id="guide5089"
       inkscape:locked="false" />
    <sodipodi:guide
       position="2.3812499,79.374999"
       orientation="0,1"
       id="guide5091"
       inkscape:locked="false" />
    <sodipodi:guide
       position="10.583333,81.756249"
       orientation="1,0"
       id="guide5093"
       inkscape:locked="false" />
    <sodipodi:guide
       position="15.874999,81.491666"
       orientation="1,0"
       id="guide5095"
       inkscape:locked="false" />
    <sodipodi:guide
       position="31.749999,82.549999"
       orientation="1,0"
       id="guide5097"
       inkscape:locked="false" />
    <sodipodi:guide
       position="42.333332,80.962499"
       orientation="1,0"
       id="guide5099"
       inkscape:locked="false" />
    <sodipodi:guide
       position="47.624998,82.020833"
       orientation="1,0"
       id="guide5101"
       inkscape:locked="false" />
    <sodipodi:guide
       position="52.916665,82.020833"
       orientation="1,0"
       id="guide5103"
       inkscape:locked="false" />
    <sodipodi:guide
       position="68.791664,83.343749"
       orientation="1,0"
       id="guide5105"
       inkscape:locked="false" />
    <sodipodi:guide
       position="74.083331,83.343749"
       orientation="1,0"
       id="guide5107"
       inkscape:locked="false" />
    <sodipodi:guide
       position="21.166666,83.608333"
       orientation="1,0"
       id="guide5128"
       inkscape:locked="false" />
    <sodipodi:guide
       position="26.458333,85.460416"
       orientation="1,0"
       id="guide5130"
       inkscape:locked="false" />
    <sodipodi:guide
       position="37.041666,83.079166"
       orientation="1,0"
       id="guide5132"
       inkscape:locked="false" />
    <sodipodi:guide
       position="58.208331,83.079166"
       orientation="1,0"
       id="guide5134"
       inkscape:locked="false" />
    <sodipodi:guide
       position="63.499998,83.872916"
       orientation="1,0"
       id="guide5136"
       inkscape:locked="false" />
    <sodipodi:guide
       position="79.374997,82.285416"
       orientation="1,0"
       id="guide5138"
       inkscape:locked="false" />
    <sodipodi:guide
       position="3.9687499,68.791666"
       orientation="0,1"
       id="guide5140"
       inkscape:locked="false" />
    <sodipodi:guide
       position="3.9687499,63.5"
       orientation="0,1"
       id="guide5142"
       inkscape:locked="false" />
    <sodipodi:guide
       position="3.4395832,47.625"
       orientation="0,1"
       id="guide5144"
       inkscape:locked="false" />
    <sodipodi:guide
       position="2.9104166,31.750002"
       orientation="0,1"
       id="guide5146"
       inkscape:locked="false" />
    <sodipodi:guide
       position="2.9104166,21.166669"
       orientation="0,1"
       id="guide5148"
       inkscape:locked="false" />
    <sodipodi:guide
       position="3.1749999,10.583336"
       orientation="0,1"
       id="guide5150"
       inkscape:locked="false" />
    <sodipodi:guide
       position="3.7599552e-15,82.549999"
       orientation="1,0"
       id="guide5389"
       inkscape:locked="false" />
    <sodipodi:guide
       position="0.79374997,84.666666"
       orientation="0,1"
       id="guide5391"
       inkscape:locked="false" />
  </sodipodi:namedview>
  <metadata
     id="metadata5">
    <rdf:RDF>
      <cc:Work
         rdf:about="">
        <dc:format>image/svg+xml</dc:format>
        <dc:type
           rdf:resource="http://purl.org/dc/dcmitype/StillImage" />
        <dc:title></dc:title>
      </cc:Work>
    </rdf:RDF>
  </metadata>
  <g
     inkscape:label="Layer 1"
     inkscape:groupmode="layer"
     id="layer1"
     transform="translate(0,-212.33334)">
    <g
       id="Page-1"
       transform="matrix(0.52916665,0,0,0.52916641,31.75,275.83335)"
       style="fill:none;fill-rule:evenodd;stroke:none;stroke-width:1">
      <g
         transform="translate(-220,-4399)"
         id="Dribbble-Dark-Preview"
         style="fill:#ffffff">
        <g
           transform="translate(56,160)"
           id="icons">
          <path
             id="alignment_bottom-[#856]"
             d="m 178,4253 h 2 v -12 h -2 z m -2,-14 h 2 2 2 v 2 12 2 h -2 -2 -2 v -2 -12 z m -8,14 h 2 v -4 h -2 z m 4,0 v 2 h -2 -2 -2 v -2 -4 -2 h 2 2 2 v 2 z m -8,6 h 20 v -2 h -20 z"
             inkscape:connector-curvature="0" />
        </g>
      </g>
    </g>
    <g
       id="Page-1-9"
       transform="matrix(0.52916665,0,0,0.52916641,21.166667,275.83335)"
       style="fill:none;fill-rule:evenodd;stroke:none;stroke-width:1">
      <g
         transform="translate(-340,-4399)"
         id="Dribbble-Dark-Preview-3"
         style="fill:#ffffff">
        <g
           transform="translate(56,160)"
           id="icons-6">
          <path
             id="alignment_left-[#853]"
             d="m 290,4255 h 4 v -2 h -4 z m 4,-4 h 2 v 2 2 2 h -2 -4 -2 v -2 -2 -2 h 2 z m -4,-6 h 12 v -2 h -12 z m 14,-4 v 2 2 2 h -2 -12 -2 v -2 -2 -2 h 2 12 z m -20,18 h 2 v -20 h -2 z"
             inkscape:connector-curvature="0" />
        </g>
      </g>
    </g>
    <g
       id="Page-1-0"
       transform="matrix(0.52916665,0,0,0.52916641,10.583334,275.83335)"
       style="fill:none;fill-rule:evenodd;stroke:none;stroke-width:1">
      <g
         transform="translate(-300,-4399)"
         id="Dribbble-Dark-Preview-6"
         style="fill:#ffffff">
        <g
           transform="translate(56,160)"
           id="icons-2">
          <path
             id="alignment_right-[#854]"
             d="m 246,4245 h 12 v -2 h -12 z m -2,2 v -2 -2 -2 h 2 12 2 v 2 2 2 h -2 -12 z m 10,8 h 4 v -2 h -4 z m 4,-4 h 2 v 2 2 2 h -2 -4 -2 v -2 -2 -2 h 2 z m 4,8 h 2 v -20 h -2 z"
             inkscape:connector-curvature="0" />
        </g>
      </g>
    </g>
    <g
       id="Page-1-6"
       transform="matrix(0.52916665,0,0,0.52916641,0,275.83335)"
       style="fill:none;fill-rule:evenodd;stroke:none;stroke-width:1">
      <g
         transform="translate(-260,-4399)"
         id="Dribbble-Dark-Preview-1"
         style="fill:#ffffff">
        <g
           transform="translate(56,160)"
           id="icons-8">
          <path
             id="alignment_top-[#855]"
             d="m 208,4257 h 2 v -12 h -2 z m 4,2 h -2 -2 -2 v -2 -12 -2 h 2 2 2 v 2 12 z m 6,-10 h 2 v -4 h -2 z m -2,-4 v -2 h 2 2 2 v 2 4 2 h -2 -2 -2 v -2 z m -12,-4 h 20 v -2 h -20 z"
             inkscape:connector-curvature="0" />
        </g>
      </g>
    </g>
    <g
       id="Page-1-73"
       transform="matrix(0.52916665,0,0,0.52916641,42.333331,244.08336)"
       style="fill:none;fill-rule:evenodd;stroke:none;stroke-width:1">
      <g
         transform="translate(-140,-6919)"
         id="Dribbble-Dark-Preview-61"
         style="fill:#ffffff">
        <g
           transform="translate(56,160)"
           id="icons-29">
          <path
             id="arrow_corner-[#280]"
             d="m 89,6771 c -0.552,0 -1,-0.448 -1,-1 v -5 c 0,-1.105 0.895,-2 2,-2 h 5 c 0.552,0 1,0.448 1,1 0,0.552 -0.448,1 -1,1 h -2.379 c -0.445,0 -0.668,0.539 -0.353,0.854 l 3.025,3.025 c 0.39,0.39 0.39,1.023 0,1.414 -0.391,0.39 -1.024,0.39 -1.414,0 l -3.025,-3.025 C 90.539,6766.953 90,6767.176 90,6767.621 V 6770 c 0,0.552 -0.448,1 -1,1 z m -2,6 c -0.552,0 -1,-0.448 -1,-1 v -14 c 0,-0.552 0.448,-1 1,-1 h 14 c 0.552,0 1,0.448 1,1 v 8 c 0,0.552 -0.448,1 -1,1 h -3 c -1.105,0 -2,0.895 -2,2 v 3 c 0,0.552 -0.448,1 -1,1 z m 17,-16 c 0,-1.105 -0.895,-2 -2,-2 H 86 c -1.105,0 -2,0.895 -2,2 v 16 c 0,1.105 0.895,2 2,2 h 16 c 1.105,0 2,-0.895 2,-2 z"
             inkscape:connector-curvature="0" />
        </g>
      </g>
    </g>
    <g
       id="Page-1-76"
       transform="matrix(0.52916659,0,0,0.52916641,53.974996,223.44586)"
       style="fill:none;fill-rule:evenodd;stroke:none;stroke-width:1">
      <g
         transform="translate(-342,-7080)"
         id="Dribbble-Dark-Preview-5"
         style="fill:#ffffff">
        <g
           transform="translate(56,160)"
           id="icons-69">
          <path
             id="arrow_repeat-[#235]"
             d="m 300.00292,6930.8589 c -0.4788,3.309 -3.67785,5.754 -7.25834,5.005 -2.27356,-0.476 -4.12152,-2.307 -4.59932,-4.571 -0.81607,-3.8709 1.86202,-7.2929 5.87714,-7.2929 v 2 l 5.0189,-3 -5.0189,-3 v 2 c -5.01891,0 -8.86238,4.483 -7.86362,9.6049 0.60829,3.119 3.13581,5.633 6.2666,6.239 4.74487,0.918 8.94469,-2.328 9.56503,-6.718 0.0843,-0.596 -0.39851,-1.1259 -1.00178,-1.1259 h 10e-4 c -0.49888,0 -0.91545,0.3669 -0.98672,0.8589"
             inkscape:connector-curvature="0" />
        </g>
      </g>
    </g>
    <g
       id="Page-1-37"
       transform="matrix(0.52916665,0,0,0.52916641,64.558334,223.44586)"
       style="fill:none;fill-rule:evenodd;stroke:none;stroke-width:1">
      <g
         transform="translate(-222,-7080)"
         id="Dribbble-Dark-Preview-45"
         style="fill:#ffffff">
        <g
           transform="translate(56,160)"
           id="icons-25">
          <path
             id="arrow_repeat-[#238]"
             d="m 174.03493,6927 c -0.5544,0 -1.00435,0.448 -1.00435,1 v 2.9999 h 5.02176 c 0.5544,0 1.00435,-0.5 1.00435,-1.052 v -0.027 c 0,-0.552 -0.44995,-0.9209 -1.00435,-0.9209 h -3.01306 v -1 c 0,-0.552 -0.44994,-1 -1.00435,-1 m 6.95313,3 c -0.50017,0 -0.91698,0.3669 -0.98828,0.8589 -0.47908,3.309 -3.67995,5.755 -7.26347,5.005 -2.27385,-0.476 -4.11282,-2.307 -4.59089,-4.571 -0.81654,-3.8699 2.14228,-7.2929 5.88951,-7.2929 v 2 l 5.02176,-3 -5.02176,-3 v 2 c -4.96451,0 -8.87746,4.483 -7.87813,9.6049 0.60864,3.119 3.13358,5.633 6.26615,6.239 4.74656,0.918 8.94676,-2.328 9.56745,-6.718 0.0844,-0.596 -0.39873,-1.1259 -1.00234,-1.1259"
             inkscape:connector-curvature="0" />
        </g>
      </g>
    </g>
    <g
       id="Page-1-4"
       transform="matrix(0.37797582,0,0,0.37797565,75.67083,222.91672)"
       style="fill:none;fill-rule:evenodd;stroke:none;stroke-width:1">
      <g
         transform="translate(-60,-7075)"
         id="Dribbble-Dark-Preview-7"
         style="fill:#ffffff">
        <g
           transform="translate(56,160)"
           id="icons-44">
          <path
             id="arrow_repeat-[#242]"
             d="m 24,6929.8711 v 6.94 c 0,1.0955 -0.895,1.9838 -2,1.9838 H 8.207 c -0.445,0 -0.668,0.5334 -0.353,0.8457 l 1.682,1.6675 c 0.39,0.3867 0.39,1.0143 0,1.4019 -0.391,0.3867 -1.024,0.3867 -1.415,0 -1.37,-1.3592 -2.384,-2.3635 -3.535,-3.5056 -0.781,-0.7743 -0.781,-2.0295 0,-2.8038 l 3.535,-3.5056 c 0.391,-0.3867 1.024,-0.3867 1.415,0 0.39,0.3876 0.39,1.0152 0,1.4028 l -1.682,1.6676 c -0.315,0.3123 -0.092,0.8467 0.353,0.8467 H 21 c 0.552,0 1,-0.4452 1,-0.9924 v -5.9486 c 0,-0.5472 0.448,-0.9914 1,-0.9914 0.552,0 1,0.4442 1,0.9914 m -20,-1.7419 v -6.9399 c 0,-1.0945 0.895,-2.2228 2,-2.2228 h 13.793 c 0.445,0 0.668,-0.4144 0.353,-0.7267 l -1.682,-1.5466 c -0.39,-0.3876 -0.39,-1.0152 0,-1.4028 0.391,-0.3867 1.024,-0.3877 1.415,0 0.552,0.5472 2.988,2.9623 3.535,3.5016 0.781,0.7743 0.781,2.0265 0,2.8008 l -3.535,3.4977 c -0.391,0.3867 -1.024,0.3718 -1.415,-0.015 -0.39,-0.3877 -0.39,-1.045 0,-1.4326 l 1.682,-1.7271 c 0.315,-0.3123 0.092,-0.9666 -0.353,-0.9666 H 7 c -0.552,0 -1,0.684 -1,1.2313 v 5.9485 c 0,0.5483 -0.448,0.9914 -1,0.9914 -0.552,0 -1,-0.4431 -1,-0.9914"
             inkscape:connector-curvature="0" />
        </g>
      </g>
    </g>
    <g
       id="Page-1-597"
       transform="matrix(0.52916665,0,0,0.52916641,43.920811,222.91672)"
       style="fill:none;fill-rule:evenodd;stroke:none;stroke-width:1">
      <g
         transform="translate(-263,-919)"
         id="Dribbble-Dark-Preview-76"
         style="fill:#ffffff">
        <g
           transform="translate(56,160)"
           id="icons-73">
          <path
             id="attachment-[#1574]"
             d="m 220.00802,763.03326 v 0 c 0.54922,0.002 0.99396,0.45182 0.99197,1.00481 l -0.0706,12.96433 c -0.003,1.10599 -0.89645,2.0006 -1.99587,1.99759 l -9.94954,-0.023 c -1.09842,-0.003 -1.98692,-0.90262 -1.98393,-2.00861 l 0.0796,-15.96974 c 0.003,-1.10699 0.89646,-2.0016 1.99488,-1.99859 l 5.96972,0.015 c 1.09943,0.003 1.98792,0.90263 1.98493,2.00862 l -0.0687,11.96252 c -0.003,1.10699 -0.89645,2.0016 -1.99488,1.9986 l -1.9899,-0.006 c -1.09943,-0.003 -1.98792,-0.90263 -1.98494,-2.00962 l 0.0597,-8.95712 c 0.002,-0.55299 0.44873,-0.99979 0.99794,-0.99879 0.54921,0.002 0.99396,0.45181 0.99197,1.00481 l -0.0567,7.95531 c -10e-4,0.55299 0.44275,1.0028 0.99196,1.00481 0.55021,10e-4 0.99695,-0.4458 0.99794,-0.9988 l 0.0627,-9.95892 c 0.001,-0.55299 -0.44275,-1.0038 -0.99296,-1.00481 l -3.97882,-0.009 c -0.55021,-10e-4 -0.99694,0.4458 -0.99793,0.99879 l -0.0736,13.96213 c -0.002,0.556 0.44474,1.00781 0.99595,1.00881 l 7.95166,0.017 c 0.55121,0.002 0.99993,-0.4478 1.00192,-1.0028 l 0.0677,-11.95852 c 0.002,-0.55299 0.44872,-1.0008 0.99793,-0.9988"
             inkscape:connector-curvature="0" />
        </g>
      </g>
    </g>
    <g
       id="Page-1-65"
       transform="matrix(0.52916665,0,0,0.5570155,31.75,222.91668)"
       style="fill:none;fill-rule:evenodd;stroke:none;stroke-width:1">
      <g
         transform="translate(-260,-2759)"
         id="Dribbble-Dark-Preview-63"
         style="fill:#ffffff">
        <g
           transform="translate(56,160)"
           id="icons-94">
          <path
             id="book-[#1207]"
             d="m 222,2612.4071 c 0,0.4386 -0.271,0.8288 -0.676,0.9716 l -6.324,2.2267 v -11.8904 -0.1818 l 5.676,-1.9987 c 0.649,-0.229 1.324,0.2661 1.324,0.9717 z m -9,-8.6921 v 11.8904 l -6.324,-2.2267 c -0.405,-0.1428 -0.676,-0.533 -0.676,-0.9716 v -9.9009 c 0,-0.7056 0.675,-1.2007 1.324,-0.9717 l 5.676,1.9987 z m 8.337,-4.5971 -7.006,2.5265 c -0.214,0.077 -0.448,0.077 -0.662,0 l -7.006,-2.5265 c -1.301,-0.4694 -2.663,0.5217 -2.663,1.938 v 12.0599 c 0,0.8812 0.547,1.6649 1.36,1.9463 l 8.32,2.884 c 0.208,0.072 0.432,0.072 0.64,0 l 8.32,-2.884 c 0.813,-0.2814 1.36,-1.0651 1.36,-1.9463 v -12.0599 c 0,-1.4163 -1.362,-2.4074 -2.663,-1.938 z"
             inkscape:connector-curvature="0" />
        </g>
      </g>
    </g>
    <g
       id="Page-1-81"
       transform="matrix(0.52916665,0,0,0.52916641,21.166665,222.91671)"
       style="fill:none;fill-rule:evenodd;stroke:none;stroke-width:1">
      <g
         transform="translate(-140,-2679)"
         id="Dribbble-Dark-Preview-29"
         style="fill:#ffffff">
        <g
           transform="translate(56,160)"
           id="icons-3">
          <path
             id="bookmark-[#1230]"
             d="m 101.286,2525.9182 -9.575581,9.65 0.02908,-2.2358 v 0 c 0.01404,-1.1189 -0.903413,-2.0298 -2.030424,-2.0158 l -2.252016,0.028 9.574578,-9.6499 c 0.392047,-0.3883 1.026743,-0.3883 1.41879,0 l 2.835573,2.8161 c 0.39205,0.3882 0.39205,1.0184 0,1.4076 m 2.12668,-2.1114 -4.25336,-4.2237 c -0.783091,-0.7775 -2.053485,-0.7775 -2.836577,0 l -12.027129,12.0838 c -0.635699,0.6322 -0.177475,1.7112 0.721928,1.6993 l 3.687852,-0.046 c 0.564508,-0.01 1.022732,0.448 1.015713,1.0074 l -0.04713,3.6623 c -0.01103,0.8929 1.075874,1.3479 1.711573,0.7157 l 12.02713,-12.0838 c 0.78309,-0.7775 0.78309,-2.0377 0,-2.8152"
             inkscape:connector-curvature="0" />
        </g>
      </g>
    </g>
    <g
       id="Page-1-38"
       transform="matrix(0.50396822,0,0,0.52916641,0,233.50003)"
       style="fill:none;fill-rule:evenodd;stroke:none;stroke-width:1">
      <g
         transform="translate(-139,-160)"
         id="Dribbble-Dark-Preview-60"
         style="fill:#ffffff">
        <g
           transform="translate(56,160)"
           id="icons-488">
          <path
             id="close-[#1538]"
             d="m 85.1,18 h 16.8 V 2 H 85.1 Z M 83,20 h 21 V 0 H 83 Z M 89.7872,11.856 92.01425,9.735 89.7872,7.613 91.2719,6.199 93.5,8.321 95.72705,6.199 97.21175,7.613 94.9847,9.735 97.21175,11.856 95.72705,13.27 93.5,11.149 91.2719,13.27 Z"
             inkscape:connector-curvature="0" />
        </g>
      </g>
    </g>
    <g
       id="Page-1-24"
       transform="matrix(0.52916665,0,0,0.52916641,74.083329,212.33338)"
       style="fill:none;fill-rule:evenodd;stroke:none;stroke-width:1">
      <g
         transform="translate(-180,-4199)"
         id="Dribbble-Dark-Preview-775"
         style="fill:#ffffff">
        <g
           transform="translate(56,160)"
           id="icons-481">
          <path
             id="contrast-[#907]"
             d="m 126,4049 c 0,-4.411 3.589,-8 8,-8 v 16 c -4.411,0 -8,-3.589 -8,-8 m 8,-10 c -5.523,0 -10,4.477 -10,10 0,5.523 4.477,10 10,10 5.523,0 10,-4.477 10,-10 0,-5.523 -4.477,-10 -10,-10"
             inkscape:connector-curvature="0" />
        </g>
      </g>
    </g>
    <g
       id="Page-1-21"
       transform="matrix(0.52916665,0,0,0.52916641,0,212.33338)"
       style="fill:none;fill-rule:evenodd;stroke:none;stroke-width:1">
      <g
         transform="translate(-340,-5199)"
         id="Dribbble-Dark-Preview-05"
         style="fill:#ffffff">
        <g
           transform="translate(56,160)"
           id="icons-110">
          <path
             id="dashboard-[#671]"
             d="m 294,5041 c 4.411,0 8,3.589 8,8 h -6.594 l 3.791,-3.622 -1.382,-1.446 -5.304,5.068 H 286 c 0,-4.411 3.589,-8 8,-8 m 0,-2 c -5.523,0 -10,4.477 -10,10 0,5.523 4.477,10 10,10 5.523,0 10,-4.477 10,-10 0,-5.523 -4.477,-10 -10,-10"
             inkscape:connector-curvature="0" />
        </g>
      </g>
    </g>
    <g
       id="Page-1-25"
       transform="matrix(0.52916665,0,0,0.52916641,10.583334,212.33338)"
       style="fill:none;fill-rule:evenodd;stroke:none;stroke-width:1">
      <g
         transform="translate(-179,-360)"
         id="Dribbble-Dark-Preview-86"
         style="fill:#ffffff">
        <g
           transform="translate(56,160)"
           id="icons-28">
          <path
             id="delete-[#1487]"
             d="m 130.35,216 h 2.1 v -8 h -2.1 z m 4.2,0 h 2.1 v -8 h -2.1 z m -6.3,2 h 10.5 v -12 h -10.5 z m 2.1,-14 h 6.3 v -2 h -6.3 z m 8.4,0 v -4 h -10.5 v 4 H 123 v 2 h 3.15 v 14 h 14.7 V 206 H 144 v -2 z"
             inkscape:connector-curvature="0" />
        </g>
      </g>
    </g>
    <g
       id="Page-1-47"
       transform="matrix(0.52916665,0,0,0.52935165,0,222.91672)"
       style="fill:none;fill-rule:evenodd;stroke:none;stroke-width:1">
      <g
         transform="translate(-140,-7159)"
         id="Dribbble-Dark-Preview-24"
         style="fill:#ffffff">
        <g
           transform="translate(56,160)"
           id="icons-06">
          <path
             id="desktop-[#231]"
             d="m 102,7002 c 0,-0.552 -0.448,-1 -1,-1 H 87 c -0.552,0 -1,0.448 -1,1 v 10 c 0,0.552 0.448,1 1,1 h 14 c 0.552,0 1,-0.448 1,-1 z m 2,-1.475 v 0 12 0 c 0,1.102 -0.672,2.468 -1.774,2.468 h -6.004 c -0.552,0 -1,0.448 -1,1 0,0.552 0.448,1 1,1 h 3 c 0.553,0 1,0.448 1,1 0,0.552 -0.447,1 -1,1 h -10 c -0.552,0 -1,-0.448 -1,-1 0,-0.552 0.448,-1 1,-1 h 3 c 0.553,0 1,-0.448 1,-1 0,-0.552 -0.447,-1 -1,-1 H 86.226 86.222 C 85.118,7015 84,7013.633 84,7012.528 v -12 c 0,-1.104 1.118,-1.528 2.222,-1.528 h 0.004 16 c 1.102,0 1.774,0.422 1.774,1.525 z m -8.056,6.43 -3.091,1.917 c -0.335,0.211 -0.853,-0.03 -0.853,-0.426 v -3.835 c 0,-0.396 0.518,-0.637 0.853,-0.426 l 3.132,1.917 c 0.314,0.198 0.273,0.655 -0.041,0.853 z"
             inkscape:connector-curvature="0" />
        </g>
      </g>
    </g>
    <g
       id="Page-1-29"
       transform="matrix(0.52916665,0,0,0.52916641,10.583334,222.91672)"
       style="fill:none;fill-rule:evenodd;stroke:none;stroke-width:1">
      <g
         transform="translate(-100,-7159)"
         id="Dribbble-Dark-Preview-90"
         style="fill:#ffffff">
        <g
           transform="translate(56,160)"
           id="icons-81">
          <path
             id="desktop-[#232]"
             d="m 62.0007,7012 c 0,0.552 -0.447844,1 -0.99965,1 H 47.005948 c -0.551807,0 -0.99965,-0.448 -0.99965,-1 v -10 c 0,-0.552 0.447843,-1 0.99965,-1 H 61.00105 c 0.551806,0 0.99965,0.448 0.99965,1 z m -0.01,-13 h -15.994402 -0.004 C 44.888689,6999 44,6999.915 44,7001.02 l 0.007,0.02 v 12 L 44,7013.02 c 0,1.105 0.888689,1.98 1.992303,1.98 h 0.004 5.993902 c 0.552807,0 1.013646,0.468 1.013646,1.02 v -0.01 c 0,0.552 -0.460839,0.99 -1.013646,0.99 h -2.99895 c -0.551807,0 -0.985655,0.468 -0.985655,1.02 v -0.01 c 0,0.552 0.433848,0.99 0.985655,0.99 h 9.996501 c 0.552807,0 1.013645,-0.428 1.013645,-0.98 v -0.01 c 0,-0.552 -0.460838,-1.01 -1.013645,-1.01 h -2.99895 c -0.551807,0 -0.985655,-0.428 -0.985655,-0.98 v -0.01 c 0,-0.552 0.433848,-1.01 0.985655,-1.01 h 6.001899 l 0.007,0.02 c 1.10161,0 2.002295,-0.874 2.002295,-1.977 v 0 -12 0 c 0,-1.103 -0.900685,-2.017 -2.002299,-2.017 z"
             inkscape:connector-curvature="0" />
        </g>
      </g>
    </g>
    <g
       id="Page-1-919"
       transform="matrix(0.52916665,0,0,0.52916641,63.5,212.33445)"
       style="fill:none;fill-rule:evenodd;stroke:none;stroke-width:1">
      <g
         transform="translate(-140,-4319)"
         id="Dribbble-Dark-Preview-69"
         style="fill:#ffffff">
        <g
           transform="translate(56,160)"
           id="icons-338">
          <path
             id="diamond_round-[#878]"
             d="m 98.106991,4176.9612 h -8.203865 c -0.453647,0 -0.854591,-0.3659 -0.987895,-0.7941 l -2.636108,-8.4924 c -0.128137,-0.4088 0.01757,-0.8716 0.362711,-1.1305 l 6.709622,-5.0276 c 0.373044,-0.2793 0.889725,-0.2814 1.258636,0 l 6.757158,5.1815 c 0.33998,0.261 0.48051,0.7014 0.35238,1.1071 l -2.626812,8.365 c -0.134337,0.4251 -0.534248,0.789 -0.985827,0.789 m -5.371419,-17.5517 -7.917623,5.9226 c -0.69132,0.5169 -0.981695,1.4058 -0.726454,2.2243 l 3.07322,9.9298 c 0.266607,0.8553 1.067464,1.5138 1.974756,1.5138 h 9.727041 c 0.904192,0 1.702978,-0.6544 1.972688,-1.5056 l 3.06702,-9.7178 c 0.25628,-0.8114 -0.0238,-1.7136 -0.70475,-2.2355 l -7.948627,-6.1071 c -0.738854,-0.5668 -1.772216,-0.5821 -2.517271,-0.025"
             inkscape:connector-curvature="0" />
        </g>
      </g>
    </g>
    <g
       id="Page-1-056"
       transform="matrix(0.52916665,0,0,0.52916641,52.916798,211.84447)"
       style="fill:none;fill-rule:evenodd;stroke:none;stroke-width:1">
      <g
         transform="translate(-60,-4318)"
         id="Dribbble-Dark-Preview-640"
         style="fill:#ffffff">
        <g
           transform="translate(56,160)"
           id="icons-046">
          <path
             id="diamond_round-[#880]"
             d="m 13.323835,4176.1783 -6.6017479,-6.5989 c -0.388514,-0.3885 -0.388514,-1.0181 0,-1.4067 l 6.5997559,-6.5999 c 0.388514,-0.3885 1.018106,-0.3885 1.40662,0 l 6.601748,6.599 c 0.388514,0.3875 0.388514,1.0181 0,1.4056 l -6.599756,6.6009 c -0.388514,0.3886 -1.018106,0.3886 -1.40662,0 m 10.092397,-8.6621 -8.008368,-8.0085 c -0.388514,-0.3895 -0.898563,-0.5838 -1.407616,-0.5838 -0.510049,0 -1.020098,0.1943 -1.408612,0.5838 l -8.008368,8.0085 c -0.778024,0.7771 -0.778024,2.0383 0,2.8163 l 8.008368,8.0086 c 0.388514,0.3885 0.898563,0.5828 1.408612,0.5828 0.509053,0 1.019102,-0.1943 1.407616,-0.5828 l 8.008368,-8.0086 c 0.778024,-0.778 0.778024,-2.0392 0,-2.8163"
             inkscape:connector-curvature="0" />
        </g>
      </g>
    </g>
    <g
       id="Page-1-58"
       transform="matrix(0.52916665,0,0,0.52916641,42.333331,276.89169)"
       style="fill:none;fill-rule:evenodd;stroke:none;stroke-width:1">
      <g
         transform="translate(-180,-4401)"
         id="Dribbble-Dark-Preview-796"
         style="fill:#ffffff">
        <g
           transform="translate(56,160)"
           id="icons-041">
          <path
             id="distribute_center_horizontal-[#857]"
             d="m 140,4243 v 5 2 5 h -2 v -5 -2 -5 z m -10,8 h -2 v -1 -2 -1 h 2 v 1 2 z m 12,-3 v -5 -2 h -2.243 -2 H 136 v 2 5 h -4 v -1 -2 h -2.243 -2 H 126 v 2 1 h -2 v 2 h 2 v 1 2 h 1.757 2 2.243 v -2 -1 h 4 v 5 2 h 1.757 2 2.243 v -2 -5 h 2 v -2 z"
             inkscape:connector-curvature="0" />
        </g>
      </g>
    </g>
    <g
       id="Page-1-048"
       transform="matrix(0.52916665,0,0,0.52916641,53.974996,275.83335)"
       style="fill:none;fill-rule:evenodd;stroke:none;stroke-width:1">
      <g
         transform="translate(-142,-4399)"
         id="Dribbble-Dark-Preview-70"
         style="fill:#ffffff">
        <g
           transform="translate(56,160)"
           id="icons-86">
          <path
             id="distribute_center_vertical-[#858]"
             d="m 88,4255 v -2 h 4.667 2 5.333 v 2 h -5.333 -2 z m 4,-10 v -2 h 0.667 2 H 96 v 2 h -1.333 -2 z m 3,12 H 99.667 102 v -2 -2 -2 H 99.667 95 v -4 H 95.667 98 v -2 -2 -2 H 95.667 95 v -2 h -2 v 2 H 91.667 90 v 2 2 2 H 91.667 93 v 4 H 87.667 86 v 2 2 2 H 87.667 93 v 2 h 2 z"
             inkscape:connector-curvature="0" />
        </g>
      </g>
    </g>
    <g
       id="Page-1-247"
       transform="matrix(0.50396822,0,0,0.52916641,10.583334,233.50003)"
       style="fill:none;fill-rule:evenodd;stroke:none;stroke-width:1">
      <g
         transform="translate(-179,-400)"
         id="Dribbble-Dark-Preview-939"
         style="fill:#ffffff">
        <g
           transform="translate(56,160)"
           id="icons-283">
          <path
             id="done-[#1477]"
             d="m 141.9,243 c 0,-0.552 -0.4704,-1 -1.05,-1 h -14.7 c -0.5796,0 -1.05,0.448 -1.05,1 v 14 c 0,0.552 0.4704,1 1.05,1 h 14.7 c 0.5796,0 1.05,-0.448 1.05,-1 z m 2.1,-1 v 16 c 0,1.105 -0.93975,2 -2.1,2 h -16.8 c -1.16025,0 -2.1,-0.895 -2.1,-2 v -16 c 0,-1.105 0.93975,-2 2.1,-2 h 16.8 c 1.16025,0 2.1,0.895 2.1,2 z m -6.27795,5.015 c 0.41055,0.39 0.41055,1.024 0,1.414 l -4.0824,3.888 c -0.61635,0.586 -1.61385,0.586 -2.2302,0 l -1.85535,-1.767 c -0.4095,-0.39 -0.4095,-1.023 0,-1.414 0.41055,-0.39 1.0752,-0.39 1.4847,0 l 0.7413,0.706 c 0.41055,0.391 1.0773,0.391 1.4889,0 l 2.96835,-2.827 c 0.4095,-0.391 1.0752,-0.391 1.4847,0 z"
             inkscape:connector-curvature="0" />
        </g>
      </g>
    </g>
    <g
       id="Page-1-01"
       transform="matrix(0.50396822,0,0,0.52916641,21.166667,233.50003)"
       style="fill:none;fill-rule:evenodd;stroke:none;stroke-width:1">
      <g
         transform="translate(-339,-480)"
         id="Dribbble-Dark-Preview-789"
         style="fill:#ffffff">
        <g
           transform="translate(56,160)"
           id="icons-15">
          <path
             id="download-[#1453]"
             d="m 297.92575,332.227 -2.98305,2.686 c -0.80955,0.728 -2.07585,0.728 -2.8854,0 l -2.98305,-2.686 c -0.4221,-0.379 -0.43995,-1.012 -0.042,-1.414 v 0 c 0.39795,-0.401 1.0626,-0.419 1.4847,-0.04 l 1.04685,0.943 c 0.33495,0.302 0.8862,0.076 0.8862,-0.363 V 326 c 0,-0.552 0.4704,-1 1.05,-1 0.5796,0 1.05,0.448 1.05,1 v 5.353 c 0,0.439 0.55125,0.665 0.88515,0.363 l 1.0479,-0.943 c 0.42105,-0.379 1.0857,-0.361 1.4847,0.04 v 0 c 0.39795,0.402 0.37905,1.035 -0.042,1.414 M 300.85,338 h -14.7 c -0.5796,0 -1.05,-0.447 -1.05,-1 v -14 c 0,-0.552 0.4704,-1 1.05,-1 h 14.7 c 0.5796,0 1.05,0.448 1.05,1 v 14 c 0,0.553 -0.4704,1 -1.05,1 M 283,322 v 16 c 0,1.105 0.93975,2 2.1,2 h 16.8 c 1.1592,0 2.1,-0.895 2.1,-2 v -16 c 0,-1.104 -0.9408,-2 -2.1,-2 h -16.8 c -1.16025,0 -2.1,0.896 -2.1,2"
             inkscape:connector-curvature="0" />
        </g>
      </g>
    </g>
    <g
       id="Page-1-080"
       transform="matrix(0.52916665,0,0,0.52916641,74.083329,254.66672)"
       style="fill:none;fill-rule:evenodd;stroke:none;stroke-width:1">
      <g
         transform="translate(-420,-4399)"
         id="Dribbble-Dark-Preview-411"
         style="fill:#ffffff">
        <g
           transform="translate(56,160)"
           id="icons-359">
          <path
             id="exit_focus_round-[#851]"
             d="m 376,4250 v -2 c 0,-0.552 -0.448,-1 -1,-1 h -2 c -0.552,0 -1,0.448 -1,1 v 2 c 0,0.552 0.448,1 1,1 h 2 c 0.552,0 1,-0.448 1,-1 z m 0,-5 v 0 c 1.105,0 2,0.895 2,2 v 4 c 0,1.105 -0.895,2 -2,2 h -4 c -1.105,0 -2,-0.895 -2,-2 v -4 c 0,-1.105 0.895,-2 2,-2 z m -12,9 v 2 h 2 c 0.552,0 1,0.448 1,1 v 2 h 2 v -3 c 0,-1.105 -0.895,-2 -2,-2 z m 2,-12 h -2 v 2 h 3 c 1.105,0 2,-0.895 2,-2 v -3 h -2 v 2 c 0,0.552 -0.448,1 -1,1 z m 15,-1 v -2 h -2 v 3 c 0,1.105 0.895,2 2,2 h 3 v -2 h -2 c -0.552,0 -1,-0.448 -1,-1 z m 0,13 h 3 v 2 h -2 c -0.552,0 -1,0.448 -1,1 v 2 h -2 v -3 c 0,-1.105 0.895,-2 2,-2 z"
             inkscape:connector-curvature="0" />
        </g>
      </g>
    </g>
    <g
       id="Page-1-14"
       transform="matrix(0.52916665,0,0,0.52916641,31.749998,244.08336)"
       style="fill:none;fill-rule:evenodd;stroke:none;stroke-width:1">
      <g
         transform="translate(-220,-3879)"
         id="Dribbble-Dark-Preview-03"
         style="fill:#ffffff">
        <g
           transform="translate(56,160)"
           id="icons-12">
          <path
             id="focus-[#976]"
             d="m 182,3733 h 2 v -8 h -2 z m 0,4 h -2 v 2 h 4 v -4 h -2 z m -2,-18 v 2 h 2 v 2 h 2 v -4 z m -16,14 h 2 v -8 h -2 z m 2,2 h -2 v 4 h 4 v -2 h -2 z m -2,-12 h 2 v -2 h 2 v -2 h -4 z m 6,16 h 8 v -2 h -8 z m 0,-18 h 8 v -2 h -8 z"
             inkscape:connector-curvature="0" />
        </g>
      </g>
    </g>
    <g
       id="Page-1-010"
       transform="matrix(0.52916665,0,0,0.52916641,74.083329,266.30836)"
       style="fill:none;fill-rule:evenodd;stroke:none;stroke-width:1">
      <g
         transform="translate(-60,-4481)"
         id="Dribbble-Dark-Preview-25"
         style="fill:#ffffff">
        <g
           transform="translate(56,160)"
           id="icons-197">
          <path
             id="focus_horizontal_round_round-[#840]"
             d="m 22,4335 v -2 c 0,-0.552 -0.448,-1 -1,-1 v 0 c -0.552,0 -1,0.448 -1,1 v 1 c 0,0.552 -0.448,1 -1,1 h -1 c -0.552,0 -1,0.448 -1,1 0,0.552 0.448,1 1,1 h 2 c 1.105,0 2,-0.895 2,-2 m -2,-14 h -2 c -0.552,0 -1,0.448 -1,1 0,0.552 0.448,1 1,1 h 1 c 0.552,0 1,0.448 1,1 v 1 c 0,0.552 0.448,1 1,1 v 0 c 0.552,0 1,-0.448 1,-1 v -2 c 0,-1.105 -0.895,-2 -2,-2 m -12,16 h 2 c 0.552,0 1,-0.448 1,-1 0,-0.552 -0.448,-1 -1,-1 H 9 c -0.552,0 -1,-0.448 -1,-1 v -1 c 0,-0.552 -0.448,-1 -1,-1 v 0 c -0.552,0 -1,0.448 -1,1 v 2 c 0,1.105 0.895,2 2,2 m -1,-11 v 0 c 0.552,0 1,-0.448 1,-1 v -1 c 0,-0.552 0.448,-1 1,-1 h 1 c 0.552,0 1,-0.448 1,-1 0,-0.552 -0.448,-1 -1,-1 H 8 c -1.105,0 -2,0.895 -2,2 v 2 c 0,0.552 0.448,1 1,1 m -3,3 v 0 c 0,-0.552 0.448,-1 1,-1 h 18 c 0.552,0 1,0.448 1,1 0,0.552 -0.448,1 -1,1 H 5 c -0.552,0 -1,-0.448 -1,-1"
             inkscape:connector-curvature="0" />
        </g>
      </g>
    </g>
    <g
       id="Page-1-131"
       transform="matrix(0.48106064,0,0,0.48095106,63.5,244.08576)"
       style="fill:none;fill-rule:evenodd;stroke:none;stroke-width:1">
      <g
         transform="translate(-260,-4239)"
         id="Dribbble-Dark-Preview-206"
         style="fill:#ffffff">
        <g
           transform="translate(56,160)"
           id="icons-87">
          <path
             id="focus_plus_round-[#895]"
             d="m 223,4093 v 0 c 0.552,0 1,-0.448 1,-1 v -6 c 0,-0.552 -0.448,-1 -1,-1 -0.552,0 -1,0.448 -1,1 v 6 c 0,0.552 0.448,1 1,1 z m 1,4 v -0.333 -0.667 c 0,-0.552 -0.448,-1 -1,-1 -0.552,0 -1,0.448 -1,1 v 1 H 221.667 221 c -0.552,0 -1,0.448 -1,1 0,0.552 0.448,1 1,1 h 1 v 0.333 0.667 c 0,0.552 0.448,1 1,1 0.552,0 1,-0.448 1,-1 v -1 h 0.333 0.667 c 0.552,0 1,-0.448 1,-1 0,-0.552 -0.448,-1 -1,-1 z m -2.011,-18 H 221 c -0.552,0 -1,0.448 -1,1 v 0 c 0,0.552 0.448,1 1,1 0.552,0 1,0.448 1,1 0,0.552 0.448,1 1,1 v 0 c 0.552,0 1,-0.448 1,-1 v -0.989 C 224,4079.9 223.1,4079 221.989,4079 Z M 205,4085 v 0 c -0.552,0 -1,0.448 -1,1 v 6 c 0,0.552 0.448,1 1,1 0.552,0 1,-0.448 1,-1 v -6 c 0,-0.552 -0.448,-1 -1,-1 z m 0,10 v 0 c -0.552,0 -1,0.448 -1,1 v 0.667 0.329 c 0,1.107 0.897,2.004 2.004,2.004 h 0.416 0.58 c 0.552,0 1,-0.448 1,-1 0,-0.552 -0.448,-1 -1,-1 -0.552,0 -1,-0.448 -1,-1 0,-0.552 -0.448,-1 -1,-1 z m -1,-14.016 V 4082 c 0,0.552 0.448,1 1,1 0.552,0 1,-0.448 1,-1 v -0.01 c 0,-0.549 0.446,-0.995 0.995,-0.995 H 207 c 0.552,0 1,-0.448 1,-1 0,-0.552 -0.448,-1 -1,-1 h -1.016 c -1.096,0 -1.984,0.888 -1.984,1.984 z m 7,18.016 h 6 c 0.552,0 1,-0.448 1,-1 0,-0.552 -0.448,-1 -1,-1 h -6 c -0.552,0 -1,0.448 -1,1 0,0.552 0.448,1 1,1 z m -1,-19 v 0 c 0,-0.552 0.448,-1 1,-1 h 6 c 0.552,0 1,0.448 1,1 0,0.552 -0.448,1 -1,1 h -6 c -0.552,0 -1,-0.448 -1,-1 z"
             inkscape:connector-curvature="0" />
        </g>
      </g>
    </g>
    <g
       id="Page-1-4924"
       transform="matrix(0.52916665,0,0,0.52916641,63.5,265.25023)"
       style="fill:none;fill-rule:evenodd;stroke:none;stroke-width:1">
      <g
         transform="translate(-180,-4439)"
         id="Dribbble-Dark-Preview-459"
         style="fill:#ffffff">
        <g
           transform="translate(56,160)"
           id="icons-128">
          <path
             id="focus_point-[#847]"
             d="m 136,4290.0016 v -2.003 c 0,-0.552 -0.447,-0.999 -0.998,-0.999 h -2.004 c -0.551,0 -0.998,0.447 -0.998,0.999 v 2.003 c 0,0.551 0.447,0.998 0.998,0.998 h 2.004 c 0.551,0 0.998,-0.447 0.998,-0.998 z m 0,2.998 h -1 v 1 c 0,0.553 -0.448,1 -1,1 -0.552,0 -1,-0.447 -1,-1 v -1 h -1 c -1.105,0 -2,-0.895 -2,-2 v -1 h -1 c -0.552,0 -1,-0.447 -1,-1 0,-0.552 0.448,-1 1,-1 h 1 v -1 c 0,-1.104 0.895,-2 2,-2 h 1 v -1 c 0,-0.552 0.448,-1 1,-1 0.552,0 1,0.448 1,1 v 1 h 1 c 1.105,0 2,0.896 2,2 v 1 h 1 c 0.552,0 1,0.448 1,1 0,0.553 -0.448,1 -1,1 h -1 v 1 c 0,1.105 -0.895,2 -2,2 z m 6,-14 h -5 c -0.552,0 -1,0.448 -1,1 0,0.553 0.448,1 1,1 h 4 c 0.552,0 1,0.448 1,1 v 4 c 0,0.553 0.448,1 1,1 0.552,0 1,-0.447 1,-1 v -5 c 0,-1.104 -0.895,-2 -2,-2 z m 1,12 c -0.552,0 -1,0.448 -1,1 v 4 c 0,0.553 -0.448,1 -1,1 h -4 c -0.552,0 -1,0.448 -1,1 0,0.553 0.448,1 1,1 h 5 c 1.105,0 2,-0.895 2,-2 v -5 c 0,-0.552 -0.448,-1 -1,-1 z m -12,6 h -4 c -0.552,0 -1,-0.447 -1,-1 v -4 c 0,-0.552 -0.448,-1 -1,-1 -0.552,0 -1,0.448 -1,1 v 5 c 0,1.105 0.895,2 2,2 h 5 c 0.552,0 1,-0.447 1,-1 0,-0.552 -0.448,-1 -1,-1 z m -6,-10 c 0.552,0 1,-0.447 1,-1 v -4 c 0,-0.552 0.448,-1 1,-1 h 4 c 0.552,0 1,-0.447 1,-1 0,-0.552 -0.448,-1 -1,-1 h -5 c -1.105,0 -2,0.896 -2,2 v 5 c 0,0.553 0.448,1 1,1 z m -0.99,2 -0.01,0.01 v -0.019 z"
             inkscape:connector-curvature="0" />
        </g>
      </g>
    </g>
    <g
       id="Page-1-960"
       transform="matrix(0.52916665,0,0,0.52916641,42.333331,265.25001)"
       style="fill:none;fill-rule:evenodd;stroke:none;stroke-width:1">
      <g
         transform="translate(-300,-4439)"
         id="Dribbble-Dark-Preview-6409"
         style="fill:#ffffff">
        <g
           transform="translate(56,160)"
           id="icons-45">
          <path
             id="focus_point_round-[#844]"
             d="m 264,4281 v 5 c 0,0.552 -0.448,1 -1,1 -0.552,0 -1,-0.448 -1,-1 v -4 c 0,-0.552 -0.448,-1 -1,-1 h -4 c -0.552,0 -1,-0.448 -1,-1 0,-0.552 0.448,-1 1,-1 h 5 c 1.105,0 2,0.895 2,2 z m -2,18 h -5 c -0.552,0 -1,-0.448 -1,-1 0,-0.552 0.448,-1 1,-1 h 4 c 0.552,0 1,-0.448 1,-1 v -4 c 0,-0.552 0.448,-1 1,-1 0.552,0 1,0.448 1,1 v 5 c 0,1.105 -0.895,2 -2,2 z m -18,-2 v -5 c 0,-0.552 0.448,-1 1,-1 0.552,0 1,0.448 1,1 v 4 c 0,0.552 0.448,1 1,1 h 4 c 0.552,0 1,0.448 1,1 0,0.552 -0.448,1 -1,1 h -5 c -1.105,0 -2,-0.895 -2,-2 z m 0,-11 v -5 c 0,-1.105 0.895,-2 2,-2 h 5 c 0.552,0 1,0.448 1,1 0,0.552 -0.448,1 -1,1 h -4 c -0.552,0 -1,0.448 -1,1 v 4 c 0,0.552 -0.448,1 -1,1 -0.552,0 -1,-0.448 -1,-1 z m 0.01,3 -0.01,0.01 v -0.02 z m 9.99,2 c -1.103,0 -2,-0.897 -2,-2 0,-1.103 0.897,-2 2,-2 1.103,0 2,0.897 2,2 0,1.103 -0.897,2 -2,2 z m 3.859,-1 H 259 c 0.552,0 1,-0.448 1,-1 0,-0.552 -0.448,-1 -1,-1 h -1.141 c -0.363,-1.401 -1.458,-2.496 -2.859,-2.859 V 4284 c 0,-0.552 -0.448,-1 -1,-1 -0.552,0 -1,0.448 -1,1 v 1.141 c -1.401,0.363 -2.496,1.458 -2.859,2.859 H 249 c -0.552,0 -1,0.448 -1,1 0,0.552 0.448,1 1,1 h 1.141 c 0.363,1.401 1.458,2.496 2.859,2.859 V 4294 c 0,0.552 0.448,1 1,1 0.552,0 1,-0.448 1,-1 v -1.141 c 1.401,-0.363 2.496,-1.458 2.859,-2.859 z"
             inkscape:connector-curvature="0" />
        </g>
      </g>
    </g>
    <g
       id="Page-1-466"
       transform="matrix(0.52916665,0,0,0.52916641,53.974996,265.25001)"
       style="fill:none;fill-rule:evenodd;stroke:none;stroke-width:1">
      <g
         transform="translate(-340,-4439)"
         id="Dribbble-Dark-Preview-39"
         style="fill:#ffffff">
        <g
           transform="translate(56,160)"
           id="icons-95">
          <path
             id="focus_vertical_round-[#843]"
             d="m 286,4297 h 2 c 0.552,0 1,-0.448 1,-1 0,-0.552 -0.448,-1 -1,-1 h -1 c -0.552,0 -1,-0.448 -1,-1 v -1 c 0,-0.552 -0.448,-1 -1,-1 -0.552,0 -1,0.448 -1,1 v 2 c 0,1.105 0.895,2 2,2 z m 14,-2 v -2 c 0,-0.552 -0.448,-1 -1,-1 -0.552,0 -1,0.448 -1,1 v 1 c 0,0.552 -0.448,1 -1,1 h -1 c -0.552,0 -1,0.448 -1,1 0,0.552 0.448,1 1,1 h 2 c 1.105,0 2,-0.895 2,-2 z m -16,-12 v 2 c 0,0.552 0.448,1 1,1 0.552,0 1,-0.448 1,-1 v -1 c 0,-0.552 0.448,-1 1,-1 h 1 c 0.552,0 1,-0.448 1,-1 0,-0.552 -0.448,-1 -1,-1 h -2 c -1.105,0 -2,0.895 -2,2 z m 11,-1 v 0 c 0,0.552 0.448,1 1,1 h 1 c 0.552,0 1,0.448 1,1 v 1 c 0,0.552 0.448,1 1,1 0.552,0 1,-0.448 1,-1 v -2 c 0,-1.105 -0.895,-2 -2,-2 h -2 c -0.552,0 -1,0.448 -1,1 z m -2,16 c 0,0.552 -0.448,1 -1,1 -0.552,0 -1,-0.448 -1,-1 v -18 c 0,-0.552 0.448,-1 1,-1 0.552,0 1,0.448 1,1 z"
             inkscape:connector-curvature="0" />
        </g>
      </g>
    </g>
    <g
       id="Page-1-00"
       transform="matrix(0.52916665,0,0,0.52916641,10.58307,244.08336)"
       style="fill:none;fill-rule:evenodd;stroke:none;stroke-width:1">
      <g
         transform="translate(-300,-4199)"
         id="Dribbble-Dark-Preview-454"
         style="fill:#ffffff">
        <g
           transform="translate(56,160)"
           id="icons-249">
          <path
             id="full_screen-[#904]"
             d="m 262.4445,4039 h -6.444 v 2 h 6 v 6 h 2 v -7.045 -0.955 z m -0.444,18 h -6 v 2 h 6.444 1.556 v -3.045 -4.955 h -2 z m -16,-6 h -2 v 4.955 3.045 h 2.444 5.556 v -2 h -6 z m 0,-4 h -2 v -7.045 -0.955 h 2.444 5.556 v 2 h -6 z"
             inkscape:connector-curvature="0" />
        </g>
      </g>
    </g>
    <g
       id="Page-1-229"
       transform="matrix(0.52916665,0,0,0.52924578,31.75,265.24844)"
       style="fill:none;fill-rule:evenodd;stroke:none;stroke-width:1">
      <g
         transform="translate(-260,-4719)"
         id="Dribbble-Dark-Preview-281"
         style="fill:#ffffff">
        <g
           transform="translate(56,160)"
           id="icons-247">
          <path
             id="game_controller-[#793]"
             d="m 217,4572 v 5 h -6 v -5 h -5 v -6 h 5 v -5 h 6 v 5 h 5 v 6 z m 2,7 v -4.997 0 h 5 v -10 h -5 v -5 h -10 v 5 h -5 v 10 h 5 v 0 4.997 z"
             inkscape:connector-curvature="0" />
        </g>
      </g>
    </g>
    <g
       id="Page-1-863"
       transform="matrix(0.52916665,0,0,0.52903415,21.166667,265.25001)"
       style="fill:none;fill-rule:evenodd;stroke:none;stroke-width:1">
      <g
         transform="translate(-220,-4719)"
         id="Dribbble-Dark-Preview-772"
         style="fill:#ffffff">
        <g
           transform="translate(56,160)"
           id="icons-372">
          <path
             id="game_controller-[#794]"
             d="M 168.169,4570 H 166 v -2 h 2.169 l 1,1 z m 2.419,-2.419 -0.005,0.01 -1.586,-1.586 h -3 H 164 v 6 h 1.997 3 L 172.003,4569 Z M 182,4570 h -2.169 l -1,-1 1,-1 H 182 Z m 0.003,-4 h -3 l -3.006,3.005 1.415,1.414 0.005,-0.01 1.586,1.586 h 3 1.997 v -6 z M 175,4574.834 V 4577 h -2 v -2.166 l 1,-1 z m -2.417,-2.42 0.004,0.01 -1.587,1.586 v 3 1.995 h 6 v -1.995 -3 L 173.996,4571 Z M 173,4563.172 V 4561 h 2 v 2.172 l -1,1 z m 2.422,2.419 -0.006,-0.01 L 177,4564 v -3 -2 h -6 v 2 3 l 3.006,3.005 z"
             inkscape:connector-curvature="0" />
        </g>
      </g>
    </g>
    <g
       id="Page-1-40"
       transform="matrix(0.50396822,0,0,0.52916641,0,244.08336)"
       style="fill:none;fill-rule:evenodd;stroke:none;stroke-width:1">
      <g
         transform="translate(-299,-200)"
         id="Dribbble-Dark-Preview-35"
         style="fill:#ffffff">
        <g
           transform="translate(56,160)"
           id="icons-850">
          <path
             id="grid-[#1524]"
             d="m 254.55,49 h 7.35 v -7 h -7.35 z m 0,9 h 7.35 v -7 h -7.35 z m -9.45,-9 h 7.35 v -7 h -7.35 z m 0,9 h 7.35 v -7 h -7.35 z m -2.1,2 h 21 V 40 h -21 z"
             inkscape:connector-curvature="0" />
        </g>
      </g>
    </g>
    <g
       id="Page-1-998"
       transform="matrix(0.50396822,0,0,0.52916641,10.583334,265.25001)"
       style="fill:none;fill-rule:evenodd;stroke:none;stroke-width:1">
      <g
         transform="translate(-59,-240)"
         id="Dribbble-Dark-Preview-02"
         style="fill:#ffffff">
        <g
           transform="translate(56,160)"
           id="icons-490">
          <path
             id="grid_system-[#1520]"
             d="m 16.65,98 h 5.25 v -5 h -5.25 z m -2.1,2 H 24 V 91 H 14.55 Z M 5.1,98 h 5.25 V 93 H 5.1 Z M 3,100 h 9.45 V 91 H 3 Z M 16.65,87 h 5.25 v -5 h -5.25 z m -2.1,2 H 24 V 80 H 14.55 Z M 5.1,87 h 5.25 V 82 H 5.1 Z M 3,89 h 9.45 V 80 H 3 Z"
             inkscape:connector-curvature="0" />
        </g>
      </g>
    </g>
    <g
       id="Page-1-12"
       transform="matrix(0.52916665,0,0,0.52916641,21.166667,244.08336)"
       style="fill:none;fill-rule:evenodd;stroke:none;stroke-width:1">
      <g
         transform="translate(-180,-3839)"
         id="Dribbble-Dark-Preview-00"
         style="fill:#ffffff">
        <g
           transform="translate(56,160)"
           id="icons-6390">
          <path
             id="image-[#987]"
             d="m 138.242,3684.469 c 0,-0.552 0.448,-1 1,-1 0.552,0 1,0.448 1,1 0,0.552 -0.448,1 -1,1 -0.552,0 -1,-0.448 -1,-1 z M 142,3690 l -3.314,-3.136 -5.613,5.667 -3.466,-3.518 -3.607,3.512 V 3681 h 16 z m 0,7 h -16 v -1.648 l 3.578,-3.434 3.457,3.434 0.026,-0.015 0.021,0.015 5.514,-5.606 3.404,3.496 z m -18,2 h 20 v -20 h -20 z"
             inkscape:connector-curvature="0" />
        </g>
      </g>
    </g>
    <g
       id="Page-1-469"
       transform="matrix(0.52916665,0,0,0.52916641,33.3375,286.4164)"
       style="fill:none;fill-rule:evenodd;stroke:none;stroke-width:1">
      <g
         transform="translate(-263,-5079)"
         id="Dribbble-Dark-Preview-290"
         style="fill:#ffffff">
        <g
           transform="translate(56,160)"
           id="icons-303">
          <path
             id="lock_circle_close_round-[#703]"
             d="m 214,4931.0005 c 0.552,0 1,0.448 1,1 0,0.552 -0.448,1 -1,1 -0.552,0 -1,-0.448 -1,-1 0,-0.552 0.448,-1 1,-1 z m 0,4 c 1.654,0 3,-1.346 3,-3 0,-1.654 -1.346,-3 -3,-3 -1.654,0 -3,1.346 -3,3 0,1.654 1.346,3 3,3 z m 5,1 c 0,0.552 -0.448,1 -1,1 h -8 c -0.552,0 -1,-0.448 -1,-1 v -8 c 0,-0.552 0.448,-1 1,-1 h 8 c 0.552,0 1,0.448 1,1 z m -7,-13 c 0,-1.103 0.897,-2 2,-2 1.103,0 2,1 2,2 v 2 h -4 z m 6,2 v -2 c 0,-2.247 -2.261,-4.495 -4.836,-3.905 -1.898,0.435 -3.164,2.246 -3.164,4.193 v 1.712 h -1 c -1.105,0 -2,0.895 -2,2 v 10 c 0,1.105 0.895,2 2,2 h 10 c 1.105,0 2,-0.895 2,-2 v -10 c 0,-1.105 -0.895,-2 -2,-2 z"
             inkscape:connector-curvature="0" />
        </g>
      </g>
    </g>
    <g
       id="Page-1-379"
       transform="matrix(0.52916665,0,0,0.52916641,22.754165,286.41661)"
       style="fill:none;fill-rule:evenodd;stroke:none;stroke-width:1">
      <g
         transform="translate(-223,-5079)"
         id="Dribbble-Dark-Preview-4991"
         style="fill:#ffffff">
        <g
           transform="translate(56,160)"
           id="icons-942">
          <path
             id="lock_circle_open_round-[#704]"
             d="m 174,4931.0001 c 0.552,0 1,0.448 1,1 0,0.552 -0.448,1 -1,1 -0.552,0 -1,-0.448 -1,-1 0,-0.552 0.448,-1 1,-1 z m 0,4 c 1.654,0 3,-1.346 3,-3 0,-1.654 -1.346,-3 -3,-3 -1.654,0 -3,1.346 -3,3 0,1.654 1.346,3 3,3 z m 5,1 c 0,0.552 -0.448,1 -1,1 h -8 c -0.552,0 -1,-0.448 -1,-1 v -8 c 0,-0.552 0.448,-1 1,-1 h 8 c 0.552,0 1,0.448 1,1 z m -7,-11 v -1.868 c 0,-0.798 0.417,-1.571 1.133,-1.923 1.22,-0.6 2.407,0.182 2.761,1.188 0.132,0.375 0.514,0.603 0.911,0.603 0.68,0 1.188,-0.678 0.944,-1.313 -0.697,-1.819 -2.754,-3.23 -4.969,-2.483 -1.708,0.576 -2.78,2.282 -2.78,4.084 v 1.712 c -1.657,0 -3,1.343 -3,3 v 8 c 0,1.657 1.343,3 3,3 h 8 c 1.657,0 3,-1.343 3,-3 v -8 c 0,-1.657 -1.343,-3 -3,-3 z"
             inkscape:connector-curvature="0" />
        </g>
      </g>
    </g>
    <g
       id="Page-1-065"
       transform="matrix(0.50395333,0,0,0.52901743,52.916665,287.47501)"
       style="fill:none;fill-rule:evenodd;stroke:none;stroke-width:1">
      <g
         transform="translate(-139,-361)"
         id="Dribbble-Dark-Preview-95"
         style="fill:#ffffff">
        <g
           transform="translate(56,160)"
           id="icons-611">
          <path
             id="love-[#1488]"
             d="m 103.99191,206.59988 c -0.2121,4.094 -3.24765,6.151 -7.009791,9.199 -1.982397,1.606 -4.949693,1.606 -6.93944,0.009 -3.736945,-3 -6.87749,-5.098 -7.03814,-9.334 -0.201599,-5.323 6.359841,-7.502 10.087336,-3.159 0.203699,0.238 0.611099,0.233 0.813748,-0.005 3.714895,-4.358 10.368737,-2.15 10.086287,3.29"
             inkscape:connector-curvature="0" />
        </g>
      </g>
    </g>
    <g
       id="Page-1-437"
       transform="matrix(0.50395214,0,0,0.52916641,42.333331,287.47501)"
       style="fill:none;fill-rule:evenodd;stroke:none;stroke-width:1">
      <g
         transform="translate(-99,-362)"
         id="Dribbble-Dark-Preview-27"
         style="fill:#ffffff">
        <g
           transform="translate(56,160)"
           id="icons-339">
          <path
             id="love-[#1489]"
             d="m 55.592964,215.34899 c -0.575399,0.46583 -1.314598,0.72273 -2.082146,0.72273 -0.766499,0 -1.507798,-0.2559 -2.106297,-0.73672 -3.773694,-3.02787 -6.17609,-4.63427 -6.30104,-7.92904 -0.13125,-3.48669 3.879744,-4.76122 6.33884,-1.89629 0.497699,0.57878 1.245298,0.91066 2.051697,0.91066 0.813748,0 1.566597,-0.33587 2.065346,-0.92165 2.405547,-2.81895 6.52364,-1.6184 6.33569,2.00924 -0.167999,3.2268 -2.662795,4.89317 -6.30209,7.84107 m -1.686297,-11.03887 c -0.1029,0.12095 -0.2583,0.18193 -0.412649,0.18193 -0.1512,0 -0.30135,-0.059 -0.40215,-0.17593 -3.720144,-4.33338 -10.288933,-2.17519 -10.087334,3.15682 0.16065,4.24341 3.319045,6.34662 7.038139,9.33051 0.994349,0.7977 2.231247,1.19655 3.468145,1.19655 1.240048,0 2.479046,-0.40085 3.471294,-1.20455 3.678144,-2.97989 6.796639,-5.0691 7.009789,-9.19656 0.2835,-5.45096 -6.37454,-7.64014 -10.085234,-3.28877"
             inkscape:connector-curvature="0" />
        </g>
      </g>
    </g>
    <g
       id="Page-1-739"
       transform="matrix(0.50396822,0,0,0.52916641,52.916665,233.50003)"
       style="fill:none;fill-rule:evenodd;stroke:none;stroke-width:1">
      <g
         transform="translate(-139,-440)"
         id="Dribbble-Dark-Preview-07"
         style="fill:#ffffff">
        <g
           transform="translate(56,160)"
           id="icons-272">
          <path
             id="minus-[#1468]"
             d="m 89.3,291 h 8.4 v -2 h -8.4 z m 6.3,-11 v 2 h 6.3 v 6 h 2.1 v -8 z m 6.3,18 h -6.3 v 2 h 8.4 v -8 h -2.1 z M 85.1,292 H 83 v 8 h 8.4 v -2 h -6.3 z m 0,-4 H 83 v -8 h 8.4 v 2 h -6.3 z"
             inkscape:connector-curvature="0" />
        </g>
      </g>
    </g>
    <g
       id="Page-1-905"
       transform="matrix(0.50396822,0,0,0.52916641,42.333331,233.50003)"
       style="fill:none;fill-rule:evenodd;stroke:none;stroke-width:1">
      <g
         transform="translate(-299,-240)"
         id="Dribbble-Dark-Preview-04"
         style="fill:#ffffff">
        <g
           transform="translate(56,160)"
           id="icons-179">
          <path
             id="minus-[#1514]"
             d="m 245.1,98 h 16.8 V 82 h -16.8 z m -2.1,2 h 21 V 80 h -21 z m 5.25,-9 h 10.5 v -2 h -10.5 z"
             inkscape:connector-curvature="0" />
        </g>
      </g>
    </g>
    <g
       id="Page-1-3734"
       transform="matrix(0.52916665,0,0,0.52916641,74.083347,244.08339)"
       style="fill:none;fill-rule:evenodd;stroke:none;stroke-width:1">
      <g
         transform="translate(-220,-8159)"
         id="Dribbble-Dark-Preview-721"
         style="fill:#ffffff">
        <g
           transform="translate(56,160)"
           id="icons-795">
          <path
             id="mouse__window-[#4]"
             d="m 165.99997,7999 c -1.10398,0 -1.99997,0.895 -1.99997,2 v 4.9999 c 0,0.552 0.44799,1 0.99999,1 0.55199,0 0.99998,-0.448 0.99998,-1 V 8002 c 0,-0.552 0.448,-1 0.99999,-1 h 13.99983 c 0.55199,0 0.99998,0.448 0.99998,1 v 13.9998 c 0,0.552 -0.44799,1 -0.99998,1 h -3.99995 c -0.552,0 -0.99999,0.448 -0.99999,1 0,0.552 0.44799,0.9999 0.99999,0.9999 h 4.99993 c 1.10499,0 1.99998,-0.8949 1.99998,-1.9999 V 8001 c 0,-1.105 -0.89499,-2 -1.99998,-2 z m 6.93584,12.3622 -2.28368,6.2071 c -0.25475,0.6925 -1.14133,0.8876 -1.66297,0.3649 l -1.23029,-1.2293 -1.9986,1.9986 c -0.39426,0.3953 -1.03519,0.3953 -1.42945,0 l -0.0344,-0.034 c -0.39527,-0.3943 -0.39527,-1.0352 0,-1.4295 l 1.9986,-1.9986 -1.22928,-1.2303 c -0.52265,-0.5216 -0.32754,-1.4082 0.36595,-1.6629 l 6.20606,-2.2837 c 0.80874,-0.2972 1.59524,0.4893 1.29803,1.298"
             inkscape:connector-curvature="0" />
        </g>
      </g>
    </g>
    <g
       id="Page-1-689"
       transform="matrix(0.52916665,0,0,0.52916641,52.916665,244.08336)"
       style="fill:none;fill-rule:evenodd;stroke:none;stroke-width:1">
      <g
         transform="translate(-340,-4239)"
         id="Dribbble-Dark-Preview-55"
         style="fill:#ffffff">
        <g
           transform="translate(56,160)"
           id="icons-2159">
          <path
             id="movement_focus_round-[#893]"
             d="m 302,4079 h -5 c -0.552,0 -1,0.448 -1,1 0,0.552 0.448,1 1,1 h 4 c 0.552,0 1,0.448 1,1 v 4 c 0,0.552 0.448,1 1,1 0.552,0 1,-0.448 1,-1 v -5 c 0,-1.105 -0.895,-2 -2,-2 z m 2,18 v -5 c 0,-0.552 -0.448,-1 -1,-1 -0.552,0 -1,0.448 -1,1 v 4 c 0,0.552 -0.448,1 -1,1 h -4 c -0.552,0 -1,0.448 -1,1 0,0.552 0.448,1 1,1 h 5 c 1.105,0 2,-0.895 2,-2 z m -14,-3 c 0,-0.552 -0.448,-1 -1,-1 h -2 c -0.552,0 -1,0.448 -1,1 v 2 c 0,0.552 0.448,1 1,1 h 2 c 0.552,0 1,-0.448 1,-1 z m 2,3 c 0,1.105 -0.895,2 -2,2 h -4 c -1.105,0 -2,-0.895 -2,-2 v -4 c 0,-1.105 0.895,-2 2,-2 h 4 c 1.105,0 2,0.895 2,2 z m -8,-11 v -5 c 0,-1.105 0.895,-2 2,-2 h 5 c 0.552,0 1,0.448 1,1 0,0.552 -0.448,1 -1,1 h -4 c -0.552,0 -1,0.448 -1,1 v 4 c 0,0.552 -0.448,1 -1,1 -0.552,0 -1,-0.448 -1,-1 z"
             inkscape:connector-curvature="0" />
        </g>
      </g>
    </g>
    <g
       id="Page-1-856"
       transform="matrix(0.52916665,0,0,0.52916641,74.083329,275.83335)"
       style="fill:none;fill-rule:evenodd;stroke:none;stroke-width:1">
      <g
         transform="translate(-100,-4359)"
         id="Dribbble-Dark-Preview-252"
         style="fill:#ffffff">
        <g
           transform="translate(56,160)"
           id="icons-6913">
          <path
             id="object_alignment_round-[#869]"
             d="m 62,4214 v 2 c 0,0.552 -0.585,1 -1.137,1 H 58 v -4 h 2.863 c 0.552,0 1.137,0.448 1.137,1 z m -6,-3 v 2 4 h -4 v -10 h 2.863 c 0.552,0 1.137,0.448 1.137,1 z m -6,-6 v 2 10 H 46.863 C 46.31,4217 46,4216.552 46,4216 v -14 c 0,-0.552 0.31,-1 0.863,-1 h 2 c 0.552,0 1.137,0.448 1.137,1 z m 8,2 c 0,-1.105 -1.033,-2 -2.137,-2 H 52 v -4 c 0,-1.105 -1.033,-2 -2.137,-2 h -4 c -1.105,0 -1.863,0.895 -1.863,2 v 16 c 0,1.105 0.827,2 1.931,2 h -0.068 4 2 4 2 4 v 0 c 1.104,0 2.137,-0.895 2.137,-2 v -4 c 0,-1.104 -0.895,-1.998 -1.998,-1.999 L 58,4211 Z"
             inkscape:connector-curvature="0" />
        </g>
      </g>
    </g>
    <g
       id="Page-1-315"
       transform="matrix(0.52916665,0,0,0.52916641,63.5,275.83335)"
       style="fill:none;fill-rule:evenodd;stroke:none;stroke-width:1">
      <g
         transform="translate(-420,-4319)"
         id="Dribbble-Dark-Preview-269"
         style="fill:#ffffff">
        <g
           transform="translate(56,160)"
           id="icons-446">
          <path
             id="object_alignment_round-[#871]"
             d="m 379,4161 h 2 c 0.552,0 1,0.448 1,1 v 3 h -4 v -3 c 0,-0.552 0.448,-1 1,-1 z m -3,6 h 2 4 v 4 h -10 v -3 c 0,-0.552 0.448,-1 1,-1 z m -6,6 h 2 10 v 3 c 0,0.552 -0.448,1 -1,1 h -14 c -0.552,0 -1,-0.448 -1,-1 v -2 c 0,-0.552 0.448,-1 1,-1 z m 2,-8 c -1.105,0 -2,0.895 -2,2 v 4 h -4 c -1.105,0 -2,0.895 -2,2 v 4 c 0,1.105 0.895,2 2,2 h 16 c 1.105,0 2,-0.895 2,-2 v -4 -2 -4 -2 -4 c 0,-1.105 -0.895,-2 -2,-2 h -4 c -1.104,0 -1.999,0.895 -1.999,1.998 L 376,4165 Z"
             inkscape:connector-curvature="0" />
        </g>
      </g>
    </g>
    <g
       id="Page-1-226"
       transform="matrix(0.52916665,0,0,0.52916641,74.083329,233.50003)"
       style="fill:none;fill-rule:evenodd;stroke:none;stroke-width:1">
      <g
         transform="translate(-100,-3759)"
         id="Dribbble-Dark-Preview-903"
         style="fill:#ffffff">
        <g
           transform="translate(56,160)"
           id="icons-55">
          <path
             id="pause-[#1009]"
             d="m 46,3617 h 16 v -16 H 46 Z m -2,2 h 20 v -20 H 44 Z m 7,-7 h 2 v -6 h -2 z m 4,0 h 2 v -6 h -2 z"
             inkscape:connector-curvature="0" />
        </g>
      </g>
    </g>
    <g
       id="Page-1-723"
       transform="matrix(0.52916665,0,0,0.52916641,63.5,233.50003)"
       style="fill:none;fill-rule:evenodd;stroke:none;stroke-width:1">
      <g
         transform="translate(-60,-3839)"
         id="Dribbble-Dark-Preview-517"
         style="fill:#ffffff">
        <g
           transform="translate(56,160)"
           id="icons-894">
          <path
             id="play-[#990]"
             d="m 6,3697 h 16 v -16 H 6 Z m -2,2 h 20 v -20 H 4 Z m 7,-7.58 v -4.547 c 0,-0.984 1.273,-1.566 2.078,-1.012 l 3.474,2.274 c 0.706,0.486 0.682,1.537 -0.024,2.023 l -3.445,2.274 C 12.279,3692.986 11,3692.404 11,3691.42 Z"
             inkscape:connector-curvature="0" />
        </g>
      </g>
    </g>
    <g
       id="Page-1-16"
       transform="matrix(0.50396822,0,0,0.52916641,31.75,233.50003)"
       style="fill:none;fill-rule:evenodd;stroke:none;stroke-width:1">
      <g
         transform="translate(-99,-440)"
         id="Dribbble-Dark-Preview-435"
         style="fill:#ffffff">
        <g
           transform="translate(56,160)"
           id="icons-487">
          <path
             id="plus-[#1469]"
             d="m 57.7,289 h -3.15 v -3 h -2.1 v 3 H 49.3 v 2 h 3.15 v 3 h 2.1 v -3 h 3.15 z m -2.1,-9 v 2 h 6.3 v 6 H 64 v -8 z m 6.3,18 h -6.3 v 2 H 64 v -8 H 61.9 Z M 45.1,292 H 43 v 8 h 8.4 v -2 h -6.3 z m 0,-4 H 43 v -8 h 8.4 v 2 h -6.3 z"
             inkscape:connector-curvature="0" />
        </g>
      </g>
    </g>
    <g
       id="Page-1-335"
       transform="matrix(0.50396822,0,0,0.52916641,0,265.25001)"
       style="fill:none;fill-rule:evenodd;stroke:none;stroke-width:1">
      <g
         transform="translate(-379,-240)"
         id="Dribbble-Dark-Preview-014"
         style="fill:#ffffff">
        <g
           transform="translate(56,160)"
           id="icons-57">
          <polygon
             points="323,91 323,89 332.45,89 332.45,80 334.55,80 334.55,89 344,89 344,91 334.55,91 334.55,100 332.45,100 332.45,91 "
             id="plus-[#1512]" />
        </g>
      </g>
    </g>
    <g
       id="Page-1-693"
       transform="matrix(0.50396822,0,0,0.52916641,0,286.41667)"
       style="fill:none;fill-rule:evenodd;stroke:none;stroke-width:1">
      <g
         transform="translate(-59,-680)"
         id="Dribbble-Dark-Preview-0876"
         style="fill:#ffffff">
        <g
           transform="translate(56,160)"
           id="icons-524">
          <path
             id="save_item-[#1410]"
             d="m 10.21875,524 c 0,-0.552 0.4704,-1 1.05,-1 0.5796,0 1.05,0.448 1.05,1 0,0.552 -0.4704,1 -1.05,1 -0.5796,0 -1.05,-0.448 -1.05,-1 z M 19.8,535 c 0,0.552 -0.4704,1 -1.05,1 H 8.25 c -0.5796,0 -1.05,-0.448 -1.05,-1 0,-0.552 0.4704,-1 1.05,-1 h 10.5 c 0.5796,0 1.05,0.448 1.05,1 z m 0,-4 c 0,0.552 -0.4704,1 -1.05,1 H 8.25 c -0.5796,0 -1.05,-0.448 -1.05,-1 0,-0.552 0.4704,-1 1.05,-1 h 10.5 c 0.5796,0 1.05,0.448 1.05,1 z m 2.1,6 c 0,0.552 -0.4704,1 -1.05,1 H 6.15 C 5.5704,538 5.1,537.552 5.1,537 v -9.956 c 0,-0.133 0.05565,-0.26 0.1533,-0.353 L 7.2,524.837 V 526 c 0,1.105 0.93975,2 2.1,2 h 8.4 c 1.16025,0 2.1,-0.895 2.1,-2 v -4 h 1.05 c 0.5796,0 1.05,0.448 1.05,1 z M 9.3,522.837 10.02555,522.146 C 10.1232,522.053 10.2576,522 10.3962,522 H 17.7 v 3 c 0,0.552 -0.4704,1 -1.05,1 h -6.3 C 9.7704,526 9.3,525.552 9.3,525 Z M 21.9,520 H 9.75045 c -0.27825,0 -0.54495,0.105 -0.7413,0.292 l -5.6973,5.415 c -0.1974,0.188 -0.30765,0.442 -0.30765,0.708 L 3,538 c 0,1.104 0.93975,2 2.09895,2 H 21.9 c 1.16025,0 2.1,-0.895 2.1,-2 v -16 c 0,-1.105 -0.93975,-2 -2.1,-2 z"
             inkscape:connector-curvature="0" />
        </g>
      </g>
    </g>
    <g
       id="Page-1-006"
       transform="matrix(0.50396822,0,0,0.52916641,10.583334,286.41667)"
       style="fill:none;fill-rule:evenodd;stroke:none;stroke-width:1">
      <g
         transform="translate(-419,-640)"
         id="Dribbble-Dark-Preview-854"
         style="fill:#ffffff">
        <g
           transform="translate(56,160)"
           id="icons-9468">
          <path
             id="save_item-[#1411]"
             d="m 370.21875,484 c 0,-0.552 0.4704,-1 1.05,-1 0.5796,0 1.05,0.448 1.05,1 0,0.552 -0.4704,1 -1.05,1 -0.5796,0 -1.05,-0.448 -1.05,-1 z M 381.9,497 c 0,0.552 -0.4704,1 -1.05,1 h -1.05 v -4 c 0,-1.105 -0.93975,-2 -2.1,-2 h -8.4 c -1.16025,0 -2.1,0.895 -2.1,2 v 4 h -1.05 c -0.5796,0 -1.05,-0.448 -1.05,-1 v -9.956 c 0,-0.133 0.0556,-0.26 0.1533,-0.353 L 367.2,484.837 V 486 c 0,1.105 0.93975,2 2.1,2 h 8.4 c 1.16025,0 2.1,-0.895 2.1,-2 v -4 h 1.05 c 0.5796,0 1.05,0.448 1.05,1 z m -4.2,1 h -8.4 v -3 c 0,-0.552 0.4704,-1 1.05,-1 h 6.3 c 0.5796,0 1.05,0.448 1.05,1 z M 369.3,482.837 370.17885,482 H 377.7 v 3 c 0,0.552 -0.4704,1 -1.05,1 h -6.3 c -0.5796,0 -1.05,-0.448 -1.05,-1 z M 381.9,480 h -12.1653 c -0.27825,0 -0.54495,0.105 -0.74235,0.293 l -5.6847,5.414 C 363.11025,485.895 363,486.149 363,486.414 V 498 c 0,1.105 0.93975,2 2.1,2 h 16.8 c 1.16025,0 2.1,-0.895 2.1,-2 v -16 c 0,-1.105 -0.93975,-2 -2.1,-2 z"
             inkscape:connector-curvature="0" />
        </g>
      </g>
    </g>
    <g
       id="Page-1-742"
       transform="matrix(0.50397069,0,0,0.52916641,63.5,286.41667)"
       style="fill:none;fill-rule:evenodd;stroke:none;stroke-width:1">
      <g
         transform="translate(-139,-320)"
         id="Dribbble-Dark-Preview-003"
         style="fill:#ffffff">
        <g
           transform="translate(56,160)"
           id="icons-390">
          <path
             id="star_favorite-[#1498]"
             d="m 98.786027,170.404 c -1.0458,1.012 -1.52355,2.468 -1.27575,3.897 l 0.45885,2.656 -2.404501,-1.254 c -0.6342,-0.331 -1.3482,-0.506 -2.0643,-0.506 -0.71715,0 -1.431151,0.175 -2.065351,0.506 l -2.4045,1.254 0.4599,-2.656 c 0.24675,-1.429 -0.231,-2.885 -1.276801,-3.897 l -1.9446,-1.881 2.688001,-0.388 c 1.44585,-0.208 2.6943,-1.108 3.3411,-2.408 l 1.202251,-2.417 1.20225,2.417 c 0.64575,1.3 1.89525,2.2 3.340051,2.408 l 2.689053,0.388 z m 4.637853,-0.971 c 1.1277,-1.091 0.5061,-2.992 -1.05315,-3.217 l -3.962703,-0.571 c -0.6195,-0.089 -1.155,-0.475 -1.43115,-1.032 l -1.772401,-3.562 c -0.3486,-0.701 -1.0269,-1.051 -1.70415,-1.051 -0.6783,0 -1.3566,0.35 -1.705201,1.051 l -1.77135,3.562 c -0.2772,0.557 -0.8127,0.943 -1.43115,1.032 l -3.962701,0.571 c -1.559251,0.225 -2.181901,2.126 -1.054201,3.217 l 2.867551,2.773 c 0.44835,0.433 0.6531,1.057 0.54705,1.669 l -0.67725,3.916 c -0.21105,1.219 0.76545,2.209 1.8732,2.209 0.291901,0 0.594301,-0.069 0.885151,-0.221 l 3.543751,-1.849 c 0.2772,-0.144 0.58065,-0.217 0.88515,-0.217 0.30345,0 0.6069,0.073 0.8841,0.217 l 3.544801,1.849 c 0.29085,0.152 0.5922,0.221 0.8841,0.221 1.10775,0 2.084253,-0.99 1.873203,-2.209 l -0.6762,-3.916 c -0.106053,-0.612 0.0977,-1.236 0.546,-1.669 z"
             inkscape:connector-curvature="0" />
        </g>
      </g>
    </g>
    <g
       id="Page-1-433"
       transform="matrix(0.50397537,0,0,0.52916641,74.083329,286.41667)"
       style="fill:none;fill-rule:evenodd;stroke:none;stroke-width:1">
      <g
         transform="translate(-99,-320)"
         id="Dribbble-Dark-Preview-424"
         style="fill:#ffffff">
        <g
           transform="translate(56,160)"
           id="icons-538">
          <path
             id="star_favorite-[#1499]"
             d="m 60.556381,172.206 c -0.44835,0.433 -0.65205,1.057 -0.54705,1.669 l 0.67725,3.916 c 0.21105,1.219 -0.76545,2.209 -1.873201,2.209 -0.2919,0 -0.593251,-0.069 -0.885151,-0.221 l -3.543752,-1.849 c -0.277201,-0.144 -0.580651,-0.216 -0.885151,-0.216 -0.30345,0 -0.6069,0.072 -0.884101,0.216 l -3.543752,1.849 c -0.2919,0.152 -0.593251,0.221 -0.885151,0.221 -1.10775,0 -2.084251,-0.99 -1.873201,-2.209 l 0.67725,-3.916 c 0.105,-0.612 -0.0987,-1.236 -0.54705,-1.669 l -2.867552,-2.773 c -1.127701,-1.091 -0.50505,-2.992 1.053151,-3.217 l 3.962702,-0.571 c 0.619501,-0.089 1.155001,-0.475 1.431151,-1.032 l 1.772402,-3.562 c 0.3486,-0.701 1.0269,-1.051 1.704151,-1.051 0.678301,0 1.356601,0.35 1.705201,1.051 l 1.772401,3.562 c 0.276151,0.557 0.811651,0.943 1.431151,1.032 l 3.962703,0.571 c 1.558201,0.225 2.180852,2.126 1.053151,3.217 z"
             inkscape:connector-curvature="0" />
        </g>
      </g>
    </g>
    <g
       id="Page-1-453"
       transform="matrix(0.52916665,0,0,0.52916641,63.5,254.66672)"
       style="fill:none;fill-rule:evenodd;stroke:none;stroke-width:1">
      <g
         transform="translate(-340,-7839)"
         id="Dribbble-Dark-Preview-072"
         style="fill:#ffffff">
        <g
           transform="translate(56,160)"
           id="icons-99">
          <path
             id="target-[#81]"
             d="m 298,7689 c 0,-0.552 0.448,-1 1,-1 h 0.91 c -0.424,-2.507 -2.403,-4.486 -4.91,-4.91 v 0.91 c 0,0.552 -0.448,1 -1,1 -0.552,0 -1,-0.448 -1,-1 v -0.91 c -2.507,0.424 -4.486,2.403 -4.91,4.91 H 289 c 0.552,0 1,0.448 1,1 0,0.552 -0.448,1 -1,1 h -0.91 c 0.424,2.507 2.403,4.486 4.91,4.91 V 7694 c 0,-0.552 0.448,-1 1,-1 0.552,0 1,0.448 1,1 v 0.91 c 2.507,-0.424 4.486,-2.403 4.91,-4.91 H 299 c -0.552,0 -1,-0.448 -1,-1 m 6,0 c 0,0.552 -0.448,1 -1,1 h -1.069 c -0.452,3.617 -3.314,6.479 -6.931,6.931 V 7698 c 0,0.552 -0.448,1 -1,1 -0.552,0 -1,-0.448 -1,-1 v -1.069 c -3.617,-0.452 -6.479,-3.314 -6.931,-6.931 H 285 c -0.552,0 -1,-0.448 -1,-1 0,-0.552 0.448,-1 1,-1 h 1.069 c 0.452,-3.617 3.314,-6.479 6.931,-6.931 V 7680 c 0,-0.552 0.448,-1 1,-1 0.552,0 1,0.448 1,1 v 1.069 c 3.617,0.452 6.479,3.314 6.931,6.931 H 303 c 0.552,0 1,0.448 1,1 m -7,0 c 0,0.552 -0.448,1 -1,1 h -1 v 1 c 0,0.552 -0.448,1 -1,1 -0.552,0 -1,-0.448 -1,-1 v -1 h -1 c -0.552,0 -1,-0.448 -1,-1 0,-0.552 0.448,-1 1,-1 h 1 v -1 c 0,-0.552 0.448,-1 1,-1 0.552,0 1,0.448 1,1 v 1 h 1 c 0.552,0 1,0.448 1,1"
             inkscape:connector-curvature="0" />
        </g>
      </g>
    </g>
    <g
       id="Page-1-3027"
       transform="matrix(0.52916665,0,0,0.52916641,52.916665,254.66672)"
       style="fill:none;fill-rule:evenodd;stroke:none;stroke-width:1">
      <g
         transform="translate(-300,-7839)"
         id="Dribbble-Dark-Preview-995"
         style="fill:#ffffff">
        <g
           transform="translate(56,160)"
           id="icons-208">
          <path
             id="target-[#82]"
             d="m 255,7689 c 0,0.552 -0.448,1 -1,1 -0.552,0 -1,-0.448 -1,-1 0,-0.552 0.448,-1 1,-1 0.552,0 1,0.448 1,1 m 4,1 h 0.91 c -0.424,2.507 -2.403,4.486 -4.91,4.91 V 7694 c 0,-0.552 -0.448,-1 -1,-1 -0.552,0 -1,0.448 -1,1 v 0.91 c -2.507,-0.424 -4.486,-2.403 -4.91,-4.91 H 249 c 0.552,0 1,-0.448 1,-1 0,-0.552 -0.448,-1 -1,-1 h -0.91 c 0.424,-2.507 2.403,-4.486 4.91,-4.91 v 0.91 c 0,0.552 0.448,1 1,1 0.552,0 1,-0.448 1,-1 v -0.91 c 2.507,0.424 4.486,2.403 4.91,4.91 H 259 c -0.552,0 -1,0.448 -1,1 0,0.552 0.448,1 1,1 m 4,-2 h -1.069 c -0.452,-3.617 -3.314,-6.479 -6.931,-6.931 V 7680 c 0,-0.552 -0.448,-1 -1,-1 -0.552,0 -1,0.448 -1,1 v 1.069 c -3.617,0.452 -6.479,3.314 -6.931,6.931 H 245 c -0.552,0 -1,0.448 -1,1 0,0.552 0.448,1 1,1 h 1.069 c 0.452,3.617 3.314,6.479 6.931,6.931 V 7698 c 0,0.552 0.448,1 1,1 0.552,0 1,-0.448 1,-1 v -1.069 c 3.617,-0.452 6.479,-3.314 6.931,-6.931 H 263 c 0.552,0 1,-0.448 1,-1 0,-0.552 -0.448,-1 -1,-1"
             inkscape:connector-curvature="0" />
        </g>
      </g>
    </g>
    <g
       id="Page-1-35"
       transform="matrix(0.52916665,0,0,0.52916641,31.75,254.66696)"
       style="fill:none;fill-rule:evenodd;stroke:none;stroke-width:1">
      <g
         transform="translate(-300,-7759)"
         id="Dribbble-Dark-Preview-965"
         style="fill:#ffffff">
        <g
           transform="translate(56,160)"
           id="icons-630">
          <path
             id="target-[#102]"
             d="m 255,7616.9305 v -2.021 c 3,-0.422 4.488,-2.399 4.91,-4.91 h 2.021 c -0.454,3.612 -2.931,6.478 -6.931,6.931 z m 0,-6.208 c 0,-0.175 0.548,-0.422 0.723,-0.723 h 2.135 c -0.364,1.399 -1.858,2.495 -2.858,2.858 z m 0,-5.581 c 1,0.364 2.494,1.46 2.858,2.858 h -2.135 c -0.175,-0.3 -0.723,-0.548 -0.723,-0.722 z m 0,-4.072 c 4,0.453 6.477,3.319 6.931,6.93 h -2.021 c -0.422,-2.51 -1.91,-4.487 -4.91,-4.91 z m -2,2.02 c -3,0.423 -4.488,2.4 -4.91,4.91 h -2.021 c 0.454,-3.611 2.931,-6.477 6.931,-6.93 z m 0,4.188 c 0,0.174 -0.548,0.422 -0.723,0.722 h -2.135 c 0.364,-1.398 1.858,-2.494 2.858,-2.858 z m 0,5.58 c -1,-0.363 -2.494,-1.459 -2.858,-2.858 h 2.135 c 0.175,0.301 0.723,0.548 0.723,0.723 z m 0,4.073 c -4,-0.453 -6.477,-3.319 -6.931,-6.931 h 2.021 c 0.422,2.511 1.91,4.488 4.91,4.91 z m 1,-17.931 c -5.523,0 -10,4.478 -10,10 0,5.523 4.477,10 10,10 5.523,0 10,-4.477 10,-10 0,-5.522 -4.477,-10 -10,-10 z"
             inkscape:connector-curvature="0" />
        </g>
      </g>
    </g>
    <g
       id="Page-1-207"
       transform="matrix(0.52916665,0,0,0.52916641,10.583334,254.66672)"
       style="fill:none;fill-rule:evenodd;stroke:none;stroke-width:1">
      <g
         transform="translate(-220,-4759)"
         id="Dribbble-Dark-Preview-473"
         style="fill:#ffffff">
        <g
           transform="translate(56,160)"
           id="icons-01">
          <path
             id="target-[#784]"
             d="m 176,4609 c 0,1.105 -0.895,2 -2,2 -1.105,0 -2,-0.895 -2,-2 0,-1.105 0.895,-2 2,-2 1.105,0 2,0.895 2,2 m -2,4 c -2.206,0 -4,-1.794 -4,-4 0,-2.206 1.794,-4 4,-4 2.206,0 4,1.794 4,4 0,2.206 -1.794,4 -4,4 m 0,-10 c -3.314,0 -6,2.686 -6,6 0,3.314 2.686,6 6,6 3.314,0 6,-2.686 6,-6 0,-3.314 -2.686,-6 -6,-6 m 0,14 c -4.411,0 -8,-3.589 -8,-8 0,-4.411 3.589,-8 8,-8 4.411,0 8,3.589 8,8 0,4.411 -3.589,8 -8,8 m 0,-18 c -5.523,0 -10,4.477 -10,10 0,5.523 4.477,10 10,10 5.523,0 10,-4.477 10,-10 0,-5.523 -4.477,-10 -10,-10"
             inkscape:connector-curvature="0" />
        </g>
      </g>
    </g>
    <g
       id="Page-1-675"
       transform="matrix(0.52916665,0,0,0.52916641,44.979166,257.31252)"
       style="fill:none;fill-rule:evenodd;stroke:none;stroke-width:1">
      <g
         transform="translate(-385,-7844)"
         id="Dribbble-Dark-Preview-788"
         style="fill:#ffffff">
        <g
           transform="translate(56,160)"
           id="icons-907">
          <path
             id="tetrix-[#80]"
             d="m 335.096,7688.031 h 2 v -2 h -2 z m 0,4.032 h 2 v -2 h -2 z m -4,-4.032 h 2 v -2 h -2 z m 0,4.032 h 2 v -2 h -2 z M 329,7694 h 10 v -10 h -10 z"
             inkscape:connector-curvature="0" />
        </g>
      </g>
    </g>
    <g
       id="Page-1-803"
       transform="matrix(0.52916665,0,0,0.52916641,44.979166,212.33336)"
       style="fill:none;fill-rule:evenodd;stroke:none;stroke-width:1">
      <g
         transform="translate(-425,-4879)"
         id="Dribbble-Dark-Preview-1036"
         style="fill:#ffffff">
        <g
           transform="translate(56,160)"
           id="icons-732">
          <path
             id="thermometer-[#749]"
             d="m 374.0178,4736.9998 c -1.65839,0 -3.03203,-1.346 -3.03203,-3 0,-1.302 0.97759,-2.401 1.98024,-2.8159 v -2.083 -0.101 h 2.00532 v 0.101 2.083 c 1.00265,0.4149 2.03038,1.5139 2.03038,2.8159 0,1.654 -1.32552,3 -2.98391,3 z m -1.00266,-9.9999 h 2.00532 v -2 h -2.00532 z m 0,-4.9999 c 0,-0.552 0.44919,-1 1.00266,-1 0.55347,0 1.00266,0.448 1.00266,1 v 1 h -2.00532 z m 3.9615,8.0229 V 4721 c 0,-1.105 -0.84825,-2 -1.95618,-2 h -2.00532 c -1.10793,0 -2.05444,0.895 -2.05444,2 v 9.0229 c -1.00266,1.083 -2.264,2.9019 -1.89502,4.9119 0.35895,1.95 1.92009,3.551 3.86624,3.954 3.23758,0.67 6.06808,-1.778 6.06808,-4.889 0,-1.63 -1.0207,-3.0649 -2.02336,-3.9769 z"
             inkscape:connector-curvature="0" />
        </g>
      </g>
    </g>
    <g
       id="Page-1-2153"
       transform="matrix(0.52916665,0,0,0.52916641,31.75,212.33338)"
       style="fill:none;fill-rule:evenodd;stroke:none;stroke-width:1">
      <g
         transform="translate(-340,-4799)"
         id="Dribbble-Dark-Preview-382"
         style="fill:#ffffff">
        <g
           transform="translate(56,160)"
           id="icons-8580">
          <path
             id="umbrella_round-[#771]"
             d="m 298.506,4648 c -0.196,-2 -0.936,-4.608 -2.206,-6.659 2.983,0.898 5.233,3.659 5.63,6.659 z m -3.506,0 h -2 -1.507 c 0.221,-2 1.065,-4.55 2.501,-6.497 1.44,1.946 2.286,4.497 2.51,6.497 z m -5.508,0 h -3.423 c 0.397,-3 2.641,-5.756 5.619,-6.656 -1.266,2.05 -2.002,4.656 -2.196,6.656 z m 5.04,-8.973 c -0.081,0 -0.161,-0.01 -0.242,-0.012 -0.098,0 -0.193,-0.015 -0.29,-0.015 -0.093,0 -0.182,0.011 -0.274,0.014 -0.092,0 -0.183,0.01 -0.274,0.014 -5.266,0.286 -9.452,4.634 -9.452,9.972 0,0.338 0.018,1 0.051,1 h 2.018 3.398 2 1.533 v 6 c 0,0.552 -0.448,1 -1,1 -0.553,0 -1,-0.448 -1,-1 v -1 c 0,-0.552 -0.448,-1 -1,-1 -0.553,0 -1,0.448 -1,1 v 2 c 0,1.105 0.895,2 2,2 h 2 c 1.104,0 2,-0.895 2,-2 v -7 h 1.532 2 3.398 2.018 c 0.033,0 0.052,-0.662 0.052,-1 0,-5.343 -4.194,-9.695 -9.468,-9.973 z"
             inkscape:connector-curvature="0" />
        </g>
      </g>
    </g>
    <g
       id="Page-1-869"
       transform="matrix(0.52916665,0,0,0.52916641,21.166667,214.45004)"
       style="fill:none;fill-rule:evenodd;stroke:none;stroke-width:1">
      <g
         transform="translate(-260,-4563)"
         id="Dribbble-Dark-Preview-337"
         style="fill:#ffffff">
        <g
           transform="translate(56,160)"
           id="icons-437">
          <path
             id="view_simple-[#815]"
             d="m 216,4409.0005 c 0,1.1472 -0.895,2.0763 -2,2.0763 -1.105,0 -2,-0.9291 -2,-2.0763 0,-1.1471 0.895,-2.0763 2,-2.0763 1.105,0 2,0.9292 2,2.0763 m -2,3.9232 c -2.989,0 -5.805,-1.4763 -7.601,-3.9232 1.796,-2.4469 4.612,-3.9242 7.601,-3.9242 2.989,0 5.805,1.4773 7.601,3.9242 -1.796,2.4469 -4.612,3.9232 -7.601,3.9232 M 214,4403 c -4.276,0 -8.001,2.4168 -10,6.0005 1.999,3.5837 5.724,5.9995 10,5.9995 4.276,0 8.001,-2.4158 10,-5.9995 -1.999,-3.5837 -5.724,-6.0005 -10,-6.0005"
             inkscape:connector-curvature="0" />
        </g>
      </g>
    </g>
    <g
       id="Page-1-001"
       transform="matrix(0.52916665,0,0,0.52916641,0,254.66672)"
       style="fill:none;fill-rule:evenodd;stroke:none;stroke-width:1">
      <g
         transform="translate(-340,-7919)"
         id="Dribbble-Dark-Preview-330"
         style="fill:#ffffff">
        <g
           transform="translate(56,160)"
           id="icons-002">
          <path
             id="weighted_storage_cube-[#61]"
             d="m 297,7763 v -0.879 c 0,-0.552 0.448,-1.121 1,-1.121 h 3 c 0.552,0 1,0.569 1,1.121 v 3 c 0,0.553 -0.448,0.879 -1,0.879 h -1 v -3 z m 4,9 c 0.552,0 1,0.569 1,1.121 v 3 c 0,0.553 -0.448,0.879 -1,0.879 h -3 c -0.55,0 -1,-0.329 -1,-0.879 V 7775 h 3 v -3 z m -11,1 h 8 v -8 h -8 z m 1,3.121 c 0,0.553 -0.448,0.879 -1,0.879 h -3 c -0.55,0 -1,-0.329 -1,-0.879 v -3 c 0,-0.552 0.448,-1.121 1,-1.121 h 1 v 3 h 3 z M 286.125,7766 c -0.069,0 -0.125,0.065 -0.125,0 v -3.875 c 0,-0.552 0.448,-1.121 1,-1.121 h 3 c 0.552,0 1,0.569 1,1.121 V 7763 h -3 v 3 z m 15.875,2 c 1.105,0 2,-0.774 2,-1.879 v -5 c 0,-1.104 -0.895,-2.121 -2,-2.121 h -5 c -1.104,0 -2,1.017 -2,2.121 V 7763 h -2 v -1.879 c 0,-1.104 -0.895,-2.121 -2,-2.121 h -5 c -1.104,0 -2,1.017 -2,2.121 v 5 c 0,1.105 0.896,1.879 2,1.879 h 2 v 2 h -2 c -1.104,0 -2,1.017 -2,2.121 v 5 c 0,1.105 0.896,1.879 2,1.879 h 5 c 1.105,0 2,-0.774 2,-1.879 V 7775 h 2 v 2.121 c 0,1.105 0.896,1.879 2,1.879 h 5 c 1.105,0 2,-0.774 2,-1.879 v -5 c 0,-1.104 -0.895,-2.121 -2,-2.121 h -2 v -2 z"
             inkscape:connector-curvature="0" />
        </g>
      </g>
    </g>
    <g
       id="Page-1-2247"
       transform="matrix(0.52916665,0,0,0.52916641,21.166667,254.66672)"
       style="fill:none;fill-rule:evenodd;stroke:none;stroke-width:1">
      <g
         transform="translate(-180,-7719)"
         id="Dribbble-Dark-Preview-985"
         style="fill:#ffffff">
        <g
           transform="translate(56,160)"
           id="icons-478">
          <path
             id="wheel-[#115]"
             d="m 134,7577 c -4.073,0 -7.444,-3 -7.937,-7 h 4.063 c 0.444,2 2.01,3 3.874,3 1.864,0 3.43,-1 3.874,-3 h 4.063 c -0.493,4 -3.864,7 -7.937,7 m 0,-16 c 4.073,0 7.444,3 7.937,7 h -4.063 c -0.444,-2 -2.01,-3 -3.874,-3 -1.864,0 -3.43,1 -3.874,3 h -4.063 c 0.493,-4 3.864,-7 7.937,-7 m 0,-2 c -5.523,0 -10,4.477 -10,10 0,5.523 4.477,10 10,10 5.523,0 10,-4.477 10,-10 0,-5.523 -4.477,-10 -10,-10"
             inkscape:connector-curvature="0" />
        </g>
      </g>
    </g>
  </g>
</svg>
